<svg id="레이어_1" data-name="레이어 1" xmlns="http://www.w3.org/2000/svg" viewBox="0 0 100 100"><defs><style>.cls-1{opacity:0.99;}.cls-16,.cls-2{fill:#a0c931;}.cls-2{opacity:0.1;}.cls-12,.cls-3{fill:#f0a247;}.cls-3{opacity:0.7;}.cls-4{font-size:7.9px;font-family:SeoulNamsanEB, SeoulNamsan;}.cls-4,.cls-7{fill:#fff;}.cls-5{fill:#5c6aa4;}.cls-6{fill:#acb3ba;}.cls-8{fill:#efefef;}.cls-9{fill:#a1a6ad;}.cls-10{fill:#595757;}.cls-11{fill:#f8ca4b;}.cls-13{fill:#e47d8f;}.cls-14{fill:#914f82;}.cls-15{fill:#4caac3;}</style></defs><title>1</title><g class="cls-1"><path class="cls-2" d="M82.92,45.17l-8.48,8.49,0,0,0,0-3.59,3.59,1-.15,3-3,0,0,8.45-8.45,0,0,2.81-2.82q.09-.49.15-1L83,45.14Z"/><path class="cls-2" d="M84.37,46.56l0,0,0,0-8.45,8.45,0,0-1.38,1.38c.48-.16.94-.35,1.4-.55l.38-.37,0,0,0,0L84.77,47l0,0,.13-.14c.2-.46.39-.92.55-1.4l-1.11,1.11Z"/><path class="cls-2" d="M56.18,27.18a16.52,16.52,0,0,0-1.42,1.61l3-3A16.52,16.52,0,0,0,56.18,27.18Z"/><path class="cls-2" d="M56.42,35.64l8.46-8.45,0,0L70,22l-.81,0-4.7,4.7,0,0L56,35.21l0,0,0,0L51,40.21c0,.27,0,.54,0,.81l5.35-5.35Z"/><path class="cls-2" d="M53.58,32.8,62,24.35l0,0,1.6-1.6c-.44.13-.87.28-1.3.44l-.7.7,0,0-8.48,8.49,0,0,0,0-.94.94c-.16.43-.31.86-.44,1.3l1.84-1.84Z"/><path class="cls-2" d="M59.26,38.48,67.71,30l0,0,0,0L74.7,23c-.21-.08-.42-.14-.63-.21l-6.72,6.72,0,0,0,0-8.46,8.45,0,0,0,0-7,7,.21.63,7.2-7.19Z"/><path class="cls-2" d="M72,51.24h0l8.45-8.45,0,0L86.23,37l-.12-.73-6,6,0,0-8.52,8.51,0,0h0l-6.23,6.23.73.12,6-6Z"/><path class="cls-2" d="M69.19,48.41,77.64,40h0l0,0L85,32.64c-.08-.2-.17-.39-.26-.59l-7.42,7.42h0l0,0L68.74,48l0,0-7.66,7.65.59.27,7.52-7.52Z"/><path class="cls-2" d="M57.81,37.09l0,0,8.48-8.49,0,0L72.5,22.4l-.71-.14-5.86,5.86h0l0,0,0,0-8.45,8.45,0,0-6.13,6.13c0,.23.09.47.14.71l6.38-6.38Z"/><path class="cls-2" d="M55,34.25l0,0,8.46-8.45,0,0,0,0,3.65-3.65c-.33,0-.65.06-1,.11l-3.12,3.11,0,0,0,0-8.45,8.45,0,0L51.17,37.2c-.05.32-.08.64-.11,1l3.88-3.88Z"/><path class="cls-2" d="M63.49,42.76,72,34.25l0,0h0l8.08-8.08-.47-.38-8.07,8.06,0,0h0l-8.45,8.46,0,0-8.3,8.3.38.47,8.32-8.32Z"/><path class="cls-2" d="M60.62,40l0,0,8.51-8.51,0,0,7.5-7.5-.57-.27L68.77,31h0l0,0,0,0-8.46,8.45h0l0,0-7.61,7.62c.08.19.18.38.28.57L60.62,40Z"/><path class="cls-2" d="M66.32,45.6l0,0,8.46-8.45,0,0,0,0,8-8-.37-.48-8.06,8.06,0,0,0,0-8.45,8.45,0,0,0,0-8.3,8.3.48.37,8.24-8.24Z"/><path class="cls-2" d="M64.91,44.18l0,0,8.46-8.45,0,0,0,0,8.12-8.12c-.11-.11-.21-.23-.33-.34l-.09-.09L73,35.21l0,0,0,0-8.45,8.45,0,0,0,0-8.36,8.37.09.09.34.33,8.36-8.36Z"/><path class="cls-2" d="M62.07,41.34l0,0,8.45-8.45,0,0,0,0,7.88-7.88L78,24.6l-7.78,7.78,0,0,0,0-8.45,8.46,0,0,0,0-8,8c.1.18.21.35.32.53L62,41.37Z"/><path class="cls-2" d="M73.42,52.69l0,0,8.45-8.45,0,0,0,0,4.47-4.47c0-.28,0-.56,0-.83l-4.88,4.87,0,0,0,0L73,52.24l0,0-5.14,5.14c.27,0,.55,0,.83,0l4.71-4.71Z"/><path class="cls-2" d="M70.58,49.86l0,0,8.45-8.46,0,0,0,0,6.6-6.59c-.06-.22-.14-.43-.21-.65L78.7,40.89l0,0,0,0L70.18,49.4l0,0,0,0-7.05,7,.65.21,6.83-6.84Z"/><path class="cls-2" d="M67.74,47l0,0,8.46-8.46,0,0,0,0L84,30.75l-.33-.52-7.82,7.82,0,0,0,0-8.45,8.45,0,0,0,0-8.06,8.06.52.33,8-8Z"/></g><circle class="cls-3" cx="18.66" cy="20.15" r="7.15"/><text class="cls-4" transform="translate(16.56 23.1)">1</text><path class="cls-5" d="M72.07,37.81A1.84,1.84,0,0,0,70.23,36H29.77a1.84,1.84,0,0,0-1.84,1.84V65.59H72.07Z"/><path class="cls-6" d="M65.18,78.92H63.52a2.71,2.71,0,0,1-2.76-2.76v-4H39.24v4a2.71,2.71,0,0,1-2.76,2.76H34.82a.6.6,0,0,0-.55.55h0a.6.6,0,0,0,.55.56H65.18a.6.6,0,0,0,.55-.56h0A.6.6,0,0,0,65.18,78.92Z"/><rect class="cls-7" x="30.69" y="38.73" width="38.63" height="24.1"/><path class="cls-8" d="M27.93,65.59v4.78a1.84,1.84,0,0,0,1.84,1.84H70.23a1.85,1.85,0,0,0,1.84-1.84V65.59Z"/><circle class="cls-7" cx="50" cy="68.9" r="1.47"/><rect class="cls-9" x="39.24" y="72.21" width="21.52" height="1.38"/><path class="cls-10" d="M38.39,53.11h-.24l-.06-.25a1.05,1.05,0,0,1-.3.24,1,1,0,0,1-.35.07,1,1,0,0,1-.43-.09,1,1,0,0,1-.33-.25,1,1,0,0,1-.2-.36,1.27,1.27,0,0,1-.07-.44,1.21,1.21,0,0,1,.07-.43,1,1,0,0,1,.2-.36A.9.9,0,0,1,37,51a1,1,0,0,1,.43-.09,1.27,1.27,0,0,1,.34.05.92.92,0,0,1,.28.14.93.93,0,0,1,.21.23,1,1,0,0,1,.1.32H38a.44.44,0,0,0-.07-.19.49.49,0,0,0-.12-.13.53.53,0,0,0-.17-.08.64.64,0,0,0-.2,0,.56.56,0,0,0-.5.26.89.89,0,0,0-.12.26,1.53,1.53,0,0,0,0,.3,1.55,1.55,0,0,0,0,.31,1.23,1.23,0,0,0,.12.26.61.61,0,0,0,.2.19.73.73,0,0,0,.3.07.68.68,0,0,0,.26,0,.62.62,0,0,0,.19-.12.52.52,0,0,0,.12-.19.93.93,0,0,0,0-.25h-.58V52h.92Z"/><path class="cls-10" d="M40.13,53.11h-.34V52.9h0a.55.55,0,0,1-.19.18.52.52,0,0,1-.26.08.56.56,0,0,1-.45-.16.67.67,0,0,1-.13-.46v-1h.34v1a.44.44,0,0,0,.08.29.27.27,0,0,0,.22.08.48.48,0,0,0,.18,0,.27.27,0,0,0,.12-.09.54.54,0,0,0,.07-.13,1,1,0,0,0,0-.17v-.91h.34Z"/><path class="cls-10" d="M40.34,51.55h.26v-.47h.34v.47h.31v.26h-.31v.83a.31.31,0,0,0,0,.1.14.14,0,0,0,0,.06.07.07,0,0,0,.05,0l.09,0h.14v.27H41a.69.69,0,0,1-.22,0,.23.23,0,0,1-.13-.07.31.31,0,0,1-.06-.13.47.47,0,0,1,0-.17v-.92h-.26Z"/><path class="cls-10" d="M42.38,51h.54l.59,1.69h0L44.1,51h.53v2.16h-.36V51.45h0l-.6,1.66h-.31l-.6-1.66h0v1.66h-.37Z"/><path class="cls-10" d="M45.75,53.16a.7.7,0,0,1-.33-.07.62.62,0,0,1-.25-.17.76.76,0,0,1-.16-.26A1.11,1.11,0,0,1,45,52a.76.76,0,0,1,.16-.26.74.74,0,0,1,.25-.17.84.84,0,0,1,.33-.06.81.81,0,0,1,.33.06.65.65,0,0,1,.25.17.76.76,0,0,1,.16.26,1.11,1.11,0,0,1,0,.66.76.76,0,0,1-.16.26.56.56,0,0,1-.25.17A.67.67,0,0,1,45.75,53.16Zm0-.28a.42.42,0,0,0,.2,0,.58.58,0,0,0,.14-.13.49.49,0,0,0,.08-.18.64.64,0,0,0,0-.2.69.69,0,0,0,0-.2.49.49,0,0,0-.08-.18.41.41,0,0,0-.14-.12.43.43,0,0,0-.4,0,.41.41,0,0,0-.14.12.75.75,0,0,0-.08.18.68.68,0,0,0,0,.2.65.65,0,0,0,0,.2.75.75,0,0,0,.08.18.58.58,0,0,0,.14.13A.42.42,0,0,0,45.75,52.88Z"/><path class="cls-10" d="M46.83,51.55h.32v.3h0a.34.34,0,0,1,.06-.12.52.52,0,0,1,.1-.11.39.39,0,0,1,.14-.08l.15,0h.13v.33H47.6a.33.33,0,0,0-.17,0,.41.41,0,0,0-.13.1.46.46,0,0,0-.09.17.56.56,0,0,0,0,.23v.74h-.34Z"/><path class="cls-10" d="M48,51.55h.32v.23h0a.58.58,0,0,1,.21-.2.51.51,0,0,1,.28-.07.57.57,0,0,1,.4.13.51.51,0,0,1,.15.4v1.07H49v-1a.48.48,0,0,0-.08-.27.32.32,0,0,0-.23-.08.41.41,0,0,0-.16,0,.31.31,0,0,0-.11.09.35.35,0,0,0-.08.13.41.41,0,0,0,0,.16v.92H48Z"/><path class="cls-10" d="M49.69,51H50v.33h-.35Zm0,.6H50v1.56h-.35Z"/><path class="cls-10" d="M50.41,51.55h.33v.23h0a.64.64,0,0,1,.2-.2.55.55,0,0,1,.28-.07.58.58,0,0,1,.41.13.51.51,0,0,1,.15.4v1.07h-.35v-1a.41.41,0,0,0-.08-.27.28.28,0,0,0-.22-.08.41.41,0,0,0-.16,0,.27.27,0,0,0-.12.09.33.33,0,0,0-.07.13.41.41,0,0,0,0,.16v.92h-.35Z"/><path class="cls-10" d="M53.6,53a.68.68,0,0,1-.2.53.81.81,0,0,1-.57.17,1,1,0,0,1-.24,0,.83.83,0,0,1-.22-.08.57.57,0,0,1-.16-.15.45.45,0,0,1-.08-.23h.35a.19.19,0,0,0,.05.11.2.2,0,0,0,.08.08l.11,0h.13a.42.42,0,0,0,.31-.11.4.4,0,0,0,.09-.29v-.24h0a.64.64,0,0,1-.2.2.52.52,0,0,1-.27.07.76.76,0,0,1-.32-.06.55.55,0,0,1-.22-.18.62.62,0,0,1-.12-.26,1.12,1.12,0,0,1,0-.32,1,1,0,0,1,0-.3,1,1,0,0,1,.14-.25.68.68,0,0,1,.52-.23.67.67,0,0,1,.28.06.5.5,0,0,1,.19.19h0v-.21h.35Zm-.77-.19a.33.33,0,0,0,.2-.05.49.49,0,0,0,.13-.12.48.48,0,0,0,.07-.18.62.62,0,0,0,0-.19.68.68,0,0,0,0-.2.4.4,0,0,0-.08-.16.3.3,0,0,0-.13-.12.36.36,0,0,0-.19,0,.38.38,0,0,0-.19,0,.37.37,0,0,0-.13.12.75.75,0,0,0-.07.18,1.23,1.23,0,0,0,0,.19,1.11,1.11,0,0,0,0,.19.89.89,0,0,0,.08.17.3.3,0,0,0,.13.12A.34.34,0,0,0,52.83,52.84Z"/><path class="cls-11" d="M58.34,51a7.82,7.82,0,0,0-1,.8c-.26.26-.41.41-.51.53-.11-.15-.17-.25-.31-.42-.33-.43-.73-.49-1-.36a.91.91,0,0,0-.52.95.79.79,0,0,1,0-.43,3.46,3.46,0,0,1,1.11-1.52,3.5,3.5,0,0,1,1.57-1,.89.89,0,0,1,1,.52C58.83,50.31,58.77,50.7,58.34,51Z"/><path class="cls-12" d="M56.84,52.37c-.13.16-.19.25-.35.43-.35.41-.75.45-1,.31a1.08,1.08,0,0,1-.47-.56h0a.91.91,0,0,1,.52-.95c.24-.13.64-.07,1,.36C56.67,52.12,56.73,52.22,56.84,52.37Z"/><path class="cls-13" d="M58,55.25a.68.68,0,0,1-.4,0,3.41,3.41,0,0,1-1.52-1.11,3.46,3.46,0,0,1-1-1.57v0a1.08,1.08,0,0,0,.47.56c.23.14.63.1,1-.31.16-.18.22-.27.35-.43a6.31,6.31,0,0,0,.5.57c.24.25.39.39.51.5-.17.13-.27.18-.45.33-.43.34-.49.73-.36,1A.88.88,0,0,0,58,55.25Z"/><path class="cls-14" d="M58.6,54.78a1,1,0,0,1-.59.47h0a.88.88,0,0,1-1-.51c-.13-.24-.07-.63.36-1,.18-.15.28-.2.45-.33.16.14.26.2.44.36C58.71,54.15,58.75,54.55,58.6,54.78Z"/><path class="cls-5" d="M60.69,52.7A5.37,5.37,0,0,1,58,55.25a1,1,0,0,0,.59-.47c.15-.23.11-.63-.31-1-.18-.16-.28-.22-.44-.36.12-.09.26-.22.49-.43a.82.82,0,0,0,.47.15h1a.78.78,0,0,0,.78-.78.82.82,0,0,0-.27-.6A.85.85,0,0,1,60.69,52.7Z"/><path class="cls-15" d="M60.62,52.38a.78.78,0,0,1-.78.78h-1a.82.82,0,0,1-.47-.15l0,0a9.55,9.55,0,0,0,.85-1c.36-.41.75-.45,1-.31l.13.08h0A.82.82,0,0,1,60.62,52.38Z"/><path class="cls-16" d="M60.35,51.78l-.13-.08c-.23-.14-.62-.1-1,.31a9.55,9.55,0,0,1-.85,1l0,0a.79.79,0,0,1-.32-.63.79.79,0,0,1,.23-.56.81.81,0,0,1,.56-.23h1A.78.78,0,0,1,60.35,51.78Z"/><path class="cls-13" d="M63.84,53a3.14,3.14,0,0,1-1-.15,2.22,2.22,0,0,0-.68-.09.64.64,0,0,1-.63-.64.63.63,0,0,1,.63-.63,3.53,3.53,0,0,1,1,.14,2.17,2.17,0,0,0,.68.1.63.63,0,0,1,.63.63A.64.64,0,0,1,63.84,53Z"/><path class="cls-12" d="M62.72,56.05a.58.58,0,0,1-.35-.11c-.37-.24-.55-.38-.73-.51L61,55a.63.63,0,0,1-.17-.88.64.64,0,0,1,.88-.18c.37.25.55.38.72.51s.33.25.67.48a.63.63,0,0,1-.35,1.16Z"/><path class="cls-16" d="M61.12,57.86a.65.65,0,0,1-.52-.26,1.15,1.15,0,0,0-.46-.41,2.57,2.57,0,0,1-.84-.76.63.63,0,0,1,1-.74,1.31,1.31,0,0,0,.46.41,2.4,2.4,0,0,1,.84.75.64.64,0,0,1-.14.89A.63.63,0,0,1,61.12,57.86Z"/><path class="cls-14" d="M61.43,51a.66.66,0,0,1-.53-.28.64.64,0,0,1,.18-.88,1.64,1.64,0,0,0,.48-.46,3.12,3.12,0,0,1,.78-.73.64.64,0,0,1,.88.18.63.63,0,0,1-.17.88,1.62,1.62,0,0,0-.48.45,2.87,2.87,0,0,1-.79.73A.56.56,0,0,1,61.43,51Z"/><path class="cls-15" d="M60,49.37a.68.68,0,0,1-.38-.12.65.65,0,0,1-.14-.89,1.1,1.1,0,0,0,.23-.55,2.49,2.49,0,0,1,.45-1.06.63.63,0,0,1,.89-.14.62.62,0,0,1,.14.88,1.17,1.17,0,0,0-.23.56,2.36,2.36,0,0,1-.45,1.06A.63.63,0,0,1,60,49.37Z"/></svg>