<svg id="레이어_1" data-name="레이어 1" xmlns="http://www.w3.org/2000/svg" viewBox="0 0 100 100"><defs><style>.cls-1{opacity:0.99;}.cls-2{fill:#a0c931;opacity:0.1;}.cls-3{fill:#f0a247;opacity:0.7;}.cls-4{font-size:7.9px;font-family:SeoulNamsanEB, SeoulNamsan;}.cls-4,.cls-6{fill:#fff;}.cls-5,.cls-8,.cls-9{fill:#4caac3;}.cls-7{fill:#e47d8f;}.cls-11,.cls-7{opacity:0.85;}.cls-10,.cls-8{opacity:0.5;}.cls-9{opacity:0.3;}.cls-10{fill:#f8ca4b;}.cls-11{fill:#b5b5b6;}.cls-12{fill:#727171;}.cls-13{fill:#acb3ba;}</style></defs><title>1</title><g class="cls-1"><path class="cls-2" d="M80.92,50.17l-8.48,8.49,0,0,0,0-3.59,3.59,1-.15,3-3,0,0,8.45-8.45,0,0,2.81-2.82q.09-.49.15-1L81,50.14Z"/><path class="cls-2" d="M82.37,51.56l0,0,0,0-8.45,8.45,0,0-1.38,1.38c.48-.16.94-.35,1.4-.55l.38-.37,0,0,0,0L82.77,52l0,0,.13-.14c.2-.46.39-.92.55-1.4l-1.11,1.11Z"/><path class="cls-2" d="M54.18,32.18a16.52,16.52,0,0,0-1.42,1.61l3-3A16.52,16.52,0,0,0,54.18,32.18Z"/><path class="cls-2" d="M54.42,40.64l8.46-8.45,0,0L68,27l-.81,0-4.7,4.7,0,0L54,40.21l0,0,0,0L49,45.21c0,.27,0,.54,0,.81l5.35-5.35Z"/><path class="cls-2" d="M51.58,37.8,60,29.35l0,0,1.6-1.6c-.44.13-.87.28-1.3.44l-.7.7,0,0-8.48,8.49,0,0,0,0-.94.94c-.16.43-.31.86-.44,1.3l1.84-1.84Z"/><path class="cls-2" d="M57.26,43.48,65.71,35l0,0,0,0L72.7,28c-.21-.08-.42-.14-.63-.21l-6.72,6.72,0,0,0,0-8.46,8.45,0,0,0,0-7,7,.21.63,7.2-7.19Z"/><path class="cls-2" d="M70,56.24h0l8.45-8.45,0,0L84.23,42l-.12-.73-6,6,0,0-8.52,8.51,0,0h0l-6.23,6.23.73.12,6-6Z"/><path class="cls-2" d="M67.19,53.41,75.64,45h0l0,0L83,37.64c-.08-.2-.17-.39-.26-.59l-7.42,7.42h0l0,0L66.74,53l0,0-7.66,7.65.59.27,7.52-7.52Z"/><path class="cls-2" d="M55.81,42.09l0,0,8.48-8.49,0,0L70.5,27.4l-.71-.14-5.86,5.86h0l0,0,0,0-8.45,8.45,0,0-6.13,6.13c0,.23.09.47.14.71l6.38-6.38Z"/><path class="cls-2" d="M53,39.25l0,0,8.46-8.45,0,0,0,0,3.65-3.65c-.33,0-.65.06-1,.11l-3.12,3.11,0,0,0,0-8.45,8.45,0,0L49.17,42.2c-.05.32-.08.64-.11,1l3.88-3.88Z"/><path class="cls-2" d="M61.49,47.76,70,39.25l0,0h0l8.08-8.08-.47-.38-8.07,8.06,0,0h0l-8.45,8.46,0,0-8.3,8.3.38.47,8.32-8.32Z"/><path class="cls-2" d="M58.62,45l0,0,8.51-8.51,0,0,7.5-7.5-.57-.27L66.77,36h0l0,0,0,0-8.46,8.45h0l0,0-7.61,7.62c.08.19.18.38.28.57L58.62,45Z"/><path class="cls-2" d="M64.32,50.6l0,0,8.46-8.45,0,0,0,0,8-8-.37-.48-8.06,8.06,0,0,0,0-8.45,8.45,0,0,0,0-8.3,8.3.48.37,8.24-8.24Z"/><path class="cls-2" d="M62.91,49.18l0,0,8.46-8.45,0,0,0,0,8.12-8.12c-.11-.11-.21-.23-.33-.34l-.09-.09L71,40.21l0,0,0,0-8.45,8.45,0,0,0,0-8.36,8.37.09.09.34.33,8.36-8.36Z"/><path class="cls-2" d="M60.07,46.34l0,0,8.45-8.45,0,0,0,0,7.88-7.88L76,29.6l-7.78,7.78,0,0,0,0-8.45,8.46,0,0,0,0-8,8c.1.18.21.35.32.53L60,46.37Z"/><path class="cls-2" d="M71.42,57.69l0,0,8.45-8.45,0,0,0,0,4.47-4.47c0-.28,0-.56,0-.83l-4.88,4.87,0,0,0,0L71,57.24l0,0-5.14,5.14c.27,0,.55,0,.83,0l4.71-4.71Z"/><path class="cls-2" d="M68.58,54.86l0,0,8.45-8.46,0,0,0,0,6.6-6.59c-.06-.22-.14-.43-.21-.65L76.7,45.89l0,0,0,0L68.18,54.4l0,0,0,0-7.05,7,.65.21,6.83-6.84Z"/><path class="cls-2" d="M65.74,52l0,0,8.46-8.46,0,0,0,0L82,35.75l-.33-.52-7.82,7.82,0,0,0,0-8.45,8.45,0,0,0,0-8.06,8.06.52.33,8-8Z"/></g><circle class="cls-3" cx="18.66" cy="20.15" r="7.15"/><text class="cls-4" transform="translate(16.56 23.1)">2</text><rect class="cls-5" x="21.84" y="40.09" width="14.43" height="2.06"/><rect class="cls-5" x="18.91" y="43.3" width="14.43" height="2.06"/><polygon class="cls-6" points="27.25 71.38 27.25 38 61.96 38 61.96 47.88 81.19 47.88 81.19 77.52 27.25 77.52 27.25 71.38"/><path class="cls-7" d="M72,47.9H61.14V67.61H79V58.74l-2.08-7.18A5.07,5.07,0,0,0,72,47.9"/><path class="cls-6" d="M76.36,58.65l-1.85-6.4A2.6,2.6,0,0,0,72,50.37h-8.4v8.28Z"/><polygon class="cls-8" points="76.37 58.65 63.62 58.65 63.62 50.37 76.37 58.65"/><path class="cls-9" d="M76.36,58.65l-1.85-6.4A2.6,2.6,0,0,0,72,50.37h-8.4Z"/><path class="cls-10" d="M30.41,38H57.85a3.29,3.29,0,0,1,3.29,3.29V67.61h-34V41.29A3.29,3.29,0,0,1,30.41,38"/><polygon class="cls-6" points="49.42 38.01 49.42 46.7 48.15 45.43 46.81 46.77 45.48 45.43 44.14 46.77 42.81 45.43 41.46 46.77 40.13 45.43 38.84 46.72 38.84 38.01 49.42 38.01"/><path class="cls-11" d="M79.8,67.61v3.72H27.12V67.61h5.5a7.55,7.55,0,0,1,13.17,0H63.48a7.54,7.54,0,0,1,13.16,0Z"/><path class="cls-12" d="M75.31,71.31a5.26,5.26,0,1,1-5.26-5.26,5.26,5.26,0,0,1,5.26,5.26"/><path class="cls-13" d="M72.17,71.31a2.12,2.12,0,1,1-2.11-2.11,2.11,2.11,0,0,1,2.11,2.11"/><path class="cls-12" d="M44.46,71.31a5.26,5.26,0,1,1-5.26-5.26,5.27,5.27,0,0,1,5.26,5.26"/><path class="cls-13" d="M41.31,71.31A2.11,2.11,0,1,1,39.2,69.2a2.1,2.1,0,0,1,2.11,2.11"/></svg>