<svg id="레이어_1" data-name="레이어 1" xmlns="http://www.w3.org/2000/svg" viewBox="0 0 100 100"><defs><style>.cls-1{opacity:0.99;}.cls-11,.cls-2{fill:#a0c931;}.cls-2{opacity:0.1;}.cls-3{fill:#f0a247;opacity:0.7;}.cls-4{font-size:7.9px;font-family:SeoulNamsanEB, SeoulNamsan;}.cls-4,.cls-7{fill:#fff;}.cls-5{fill:#5c6aa4;}.cls-6{fill:#acb3ba;}.cls-8{fill:#efefef;}.cls-9{fill:#a1a6ad;}.cls-10{fill:#3e3a39;}</style></defs><title>1</title><g class="cls-1"><path class="cls-2" d="M78.92,77.17l-8.48,8.49,0,0,0,0-3.59,3.59,1-.15,3-3,0,0,8.45-8.45,0,0,2.81-2.82q.09-.5.15-1L79,77.14Z"/><path class="cls-2" d="M80.37,78.56l0,0,0,0-8.45,8.45,0,0-1.38,1.38c.48-.16.94-.35,1.4-.55l.38-.37,0,0,0,0L80.77,79l0,0,.13-.14c.2-.46.39-.92.55-1.4l-1.11,1.11Z"/><path class="cls-2" d="M52.18,59.18a16.52,16.52,0,0,0-1.42,1.61l3-3A16.52,16.52,0,0,0,52.18,59.18Z"/><path class="cls-2" d="M52.42,67.64l8.46-8.45,0,0L66,54l-.81,0-4.7,4.7,0,0L52,67.21l0,0,0,0L47,72.21c0,.27,0,.54,0,.81l5.35-5.35Z"/><path class="cls-2" d="M49.58,64.8,58,56.35l0,0,1.6-1.6c-.44.13-.87.28-1.3.44l-.7.7,0,0-8.48,8.49,0,0,0,0-.94.94c-.16.43-.31.86-.44,1.3l1.84-1.84Z"/><path class="cls-2" d="M55.26,70.48,63.71,62l0,0,0,0L70.7,55l-.63-.21-6.72,6.72,0,0,0,0-8.46,8.45,0,0,0,0-7,7,.21.63,7.2-7.19Z"/><path class="cls-2" d="M68,83.24h0l8.45-8.45,0,0L82.23,69l-.12-.73-6,6,0,0-8.52,8.51,0,0h0l-6.23,6.23.73.12,6-6Z"/><path class="cls-2" d="M65.19,80.41,73.64,72h0l0,0L81,64.64c-.08-.2-.17-.39-.26-.59l-7.42,7.42h0l0,0L64.74,80l0,0-7.66,7.65.59.27,7.52-7.52Z"/><path class="cls-2" d="M53.81,69.09l0,0,8.48-8.49,0,0L68.5,54.4l-.71-.14-5.86,5.86h0l0,0,0,0-8.45,8.45,0,0-6.13,6.13c0,.23.09.47.14.71l6.38-6.38Z"/><path class="cls-2" d="M51,66.25l0,0,8.46-8.45,0,0,0,0,3.65-3.65c-.33,0-.65.06-1,.11l-3.12,3.11,0,0,0,0-8.45,8.45,0,0L47.17,69.2c-.05.32-.08.64-.11,1l3.88-3.88Z"/><path class="cls-2" d="M59.49,74.76,68,66.25l0,0h0l8.08-8.08-.47-.38-8.07,8.06,0,0h0l-8.45,8.46,0,0-8.3,8.3.38.47,8.32-8.32Z"/><path class="cls-2" d="M56.62,72l0,0,8.51-8.51,0,0,7.5-7.5c-.19-.09-.38-.19-.57-.27L64.77,63h0l0,0,0,0-8.46,8.45h0l0,0-7.61,7.62c.08.19.18.38.28.57L56.62,72Z"/><path class="cls-2" d="M62.32,77.6l0,0,8.46-8.45,0,0,0,0,8-8-.37-.48-8.06,8.06,0,0,0,0-8.45,8.45,0,0,0,0-8.3,8.3.48.37,8.24-8.24Z"/><path class="cls-2" d="M60.91,76.18l0,0,8.46-8.45,0,0,0,0,8.12-8.12c-.11-.11-.21-.23-.33-.34l-.09-.09L69,67.21l0,0,0,0-8.45,8.45,0,0,0,0-8.36,8.37.09.09.34.33,8.36-8.36Z"/><path class="cls-2" d="M58.07,73.34l0,0,8.45-8.45,0,0,0,0,7.88-7.88L74,56.6l-7.78,7.78,0,0,0,0-8.45,8.46,0,0,0,0-8,8c.1.18.21.35.32.53L58,73.37Z"/><path class="cls-2" d="M69.42,84.69l0,0,8.45-8.45,0,0,0,0,4.47-4.47c0-.28,0-.56,0-.83l-4.88,4.87,0,0,0,0L69,84.24l0,0-5.14,5.14c.27,0,.55,0,.83,0l4.71-4.71Z"/><path class="cls-2" d="M66.58,81.86l0,0,8.45-8.46,0,0,0,0,6.6-6.59c-.06-.22-.14-.43-.21-.65L74.7,72.89l0,0,0,0L66.18,81.4l0,0,0,0-7.05,7.05.65.21,6.83-6.84Z"/><path class="cls-2" d="M63.74,79l0,0,8.46-8.46,0,0,0,0L80,62.75l-.33-.52-7.82,7.82,0,0,0,0-8.45,8.45,0,0,0,0-8.06,8.06.52.33,8-8Z"/></g><circle class="cls-3" cx="18.66" cy="20.15" r="7.15"/><text class="cls-4" transform="translate(16.56 23.1)">3</text><path class="cls-5" d="M72.07,37.81A1.84,1.84,0,0,0,70.23,36H29.77a1.84,1.84,0,0,0-1.84,1.84V65.59H72.07Z"/><path class="cls-6" d="M65.18,78.92H63.52a2.71,2.71,0,0,1-2.76-2.76v-4H39.24v4a2.71,2.71,0,0,1-2.76,2.76H34.82a.6.6,0,0,0-.55.55h0a.6.6,0,0,0,.55.56H65.18a.6.6,0,0,0,.55-.56h0A.6.6,0,0,0,65.18,78.92Z"/><rect class="cls-7" x="30.69" y="38.73" width="38.63" height="24.1"/><path class="cls-8" d="M27.93,65.59v4.78a1.84,1.84,0,0,0,1.84,1.84H70.23a1.85,1.85,0,0,0,1.84-1.84V65.59Z"/><circle class="cls-7" cx="50" cy="68.9" r="1.47"/><rect class="cls-9" x="39.24" y="72.21" width="21.52" height="1.38"/><rect class="cls-10" x="39.18" y="48.47" width="0.47" height="4.26"/><rect class="cls-10" x="45.04" y="48.47" width="0.12" height="4.26"/><rect class="cls-10" x="34.46" y="48.47" width="0.12" height="4.26"/><rect class="cls-10" x="35.49" y="48.47" width="0.12" height="4.26"/><rect class="cls-10" x="34.92" y="48.47" width="0.24" height="4.26"/><rect class="cls-10" x="40.14" y="48.47" width="0.12" height="4.26"/><rect class="cls-10" x="40.59" y="48.47" width="0.24" height="4.26"/><rect class="cls-10" x="37.56" y="48.47" width="0.12" height="4.26"/><rect class="cls-10" x="38.59" y="48.47" width="0.12" height="4.26"/><rect class="cls-10" x="38.01" y="48.47" width="0.24" height="4.26"/><rect class="cls-10" x="36.72" y="48.47" width="0.24" height="4.26"/><rect class="cls-10" x="36.15" y="48.47" width="0.35" height="4.26"/><rect class="cls-10" x="41.17" y="48.47" width="0.12" height="4.26"/><rect class="cls-10" x="42.2" y="48.47" width="0.12" height="4.26"/><rect class="cls-10" x="44.46" y="48.47" width="0.24" height="4.26"/><rect class="cls-10" x="44.27" y="48.47" width="0.12" height="4.26"/><rect class="cls-10" x="43.75" y="48.47" width="0.12" height="4.26"/><rect class="cls-10" x="41.63" y="48.47" width="0.24" height="4.26"/><rect class="cls-10" x="42.86" y="48.47" width="0.35" height="4.26"/><rect class="cls-10" x="45.3" y="48.47" width="0.12" height="4.26"/><rect class="cls-10" x="45.85" y="48.47" width="0.05" height="4.26"/><path d="M35.1,55.38H35V54l-.26.16v-.1L35,53.9h.13Z"/><path d="M36.47,55.38h-.82v-.11l0,0,.05-.05.13-.13.14-.17.15-.2a2,2,0,0,0,.11-.2l0-.11c0-.05,0-.09,0-.11s0-.06,0-.09a.41.41,0,0,0,0-.09.2.2,0,0,0-.08-.08A.23.23,0,0,0,36,54a.24.24,0,0,0-.19.08.22.22,0,0,0-.07.17h-.14a.26.26,0,0,1,0-.11.2.2,0,0,1,.07-.1.27.27,0,0,1,.12-.09.49.49,0,0,1,.19,0,.32.32,0,0,1,.14,0,.57.57,0,0,1,.13.08.27.27,0,0,1,.09.12.41.41,0,0,1,0,.16.57.57,0,0,1,0,.12l0,.11a.93.93,0,0,1-.1.2l-.15.2L36,55.1l-.17.17h.67Z"/><path d="M37.53,55a.41.41,0,0,1-.12.3.44.44,0,0,1-.33.11.45.45,0,0,1-.3-.08.39.39,0,0,1-.12-.19h.14l0,.07.05.06.08,0h.11a.31.31,0,0,0,.24-.09.36.36,0,0,0,.08-.24.27.27,0,0,0,0-.16l-.09-.1-.13,0a.25.25,0,0,0-.12,0v-.08a.41.41,0,0,0,.16,0,.23.23,0,0,0,.11,0,.37.37,0,0,0,.06-.1.21.21,0,0,0,0-.12.26.26,0,0,0-.09-.21.27.27,0,0,0-.19-.08.32.32,0,0,0-.2.05.26.26,0,0,0-.08.13h-.13a.36.36,0,0,1,0-.09.18.18,0,0,1,.07-.08.35.35,0,0,1,.12-.07.47.47,0,0,1,.17,0,.4.4,0,0,1,.15,0l.14.07a.27.27,0,0,1,.09.12.29.29,0,0,1,0,.16.27.27,0,0,1,0,.12.23.23,0,0,1-.07.1.22.22,0,0,1-.09.07l-.1,0h0l.11,0a.3.3,0,0,1,.1.07.44.44,0,0,1,.08.11A.38.38,0,0,1,37.53,55Z"/><path d="M38.89,54.27h-.15a.27.27,0,0,0-.11-.22A.48.48,0,0,0,38.4,54a.49.49,0,0,0-.21,0,.52.52,0,0,0-.17.13.75.75,0,0,0-.11.2.77.77,0,0,0,0,.27,1.68,1.68,0,0,0,0,.2A.6.6,0,0,0,38,55a.52.52,0,0,0,.17.19.53.53,0,0,0,.3.08h.16l.13,0v-.52h-.37v-.11h.5v.68l-.06,0-.09,0-.13,0h-.18a.62.62,0,0,1-.31-.07.72.72,0,0,1-.21-.18,1,1,0,0,1-.12-.26,1.26,1.26,0,0,1,0-.28.86.86,0,0,1,.05-.27.46.46,0,0,1,.12-.23.51.51,0,0,1,.21-.17.62.62,0,0,1,.29-.06.52.52,0,0,1,.18,0,.46.46,0,0,1,.16.07.41.41,0,0,1,.1.13A.43.43,0,0,1,38.89,54.27Z"/><path d="M40,55a.47.47,0,0,1,0,.17.34.34,0,0,1-.09.14.36.36,0,0,1-.15.1.41.41,0,0,1-.19,0,.4.4,0,0,1-.17,0,.26.26,0,0,1-.13-.06.28.28,0,0,1-.07-.09.16.16,0,0,1,0-.09h.14a.14.14,0,0,0,0,.06l.05.06a.2.2,0,0,0,.08,0l.11,0a.3.3,0,0,0,.24-.1.41.41,0,0,0,.1-.26.36.36,0,0,0-.1-.26.29.29,0,0,0-.22-.09.18.18,0,0,0-.13,0,.25.25,0,0,0-.1.08h-.13l0-.79h.66V54H39.3l0,.59a.31.31,0,0,1,.12-.07.3.3,0,0,1,.14,0,.47.47,0,0,1,.17,0,.42.42,0,0,1,.14.09.64.64,0,0,1,.08.14A.57.57,0,0,1,40,55Z"/><path d="M41,55a.45.45,0,0,1,0,.16.29.29,0,0,1-.08.14.32.32,0,0,1-.12.11.58.58,0,0,1-.19,0,.34.34,0,0,1-.18,0,.36.36,0,0,1-.14-.1.53.53,0,0,1-.08-.15,1.05,1.05,0,0,1-.05-.19s0-.08,0-.14v-.14a1.14,1.14,0,0,1,0-.26.84.84,0,0,1,.06-.24.45.45,0,0,1,.15-.18.36.36,0,0,1,.24-.07.41.41,0,0,1,.16,0l.11.06a.28.28,0,0,1,.07.09.16.16,0,0,1,0,.09h-.14a.16.16,0,0,0-.07-.13A.24.24,0,0,0,40.6,54a.24.24,0,0,0-.14.05.29.29,0,0,0-.1.12,1.07,1.07,0,0,0-.07.19,1.5,1.5,0,0,0,0,.22v.12h0l0,0,.07-.06.09,0,.14,0a.38.38,0,0,1,.16,0,.27.27,0,0,1,.12.09.39.39,0,0,1,.08.14A.47.47,0,0,1,41,55Zm-.13,0a.39.39,0,0,0-.08-.25.27.27,0,0,0-.22-.09.27.27,0,0,0-.21.09.39.39,0,0,0-.08.25.3.3,0,0,0,0,.13.27.27,0,0,0,.06.12.24.24,0,0,0,.09.08.28.28,0,0,0,.13,0,.26.26,0,0,0,.21-.1A.4.4,0,0,0,40.9,55Z"/><path d="M42.07,54l-.55,1.34h-.14L41.93,54h-.72v-.1h.86Z"/><path d="M43.37,54.84a.62.62,0,0,1,0,.19.49.49,0,0,1-.08.18.39.39,0,0,1-.17.14.46.46,0,0,1-.25.06.48.48,0,0,1-.26-.06.42.42,0,0,1-.16-.13.48.48,0,0,1-.08-.18,1.36,1.36,0,0,1,0-.2v-.93h.13v.93a1,1,0,0,0,0,.17,1,1,0,0,0,.07.15.29.29,0,0,0,.12.1.36.36,0,0,0,.19,0,.34.34,0,0,0,.18,0,.41.41,0,0,0,.13-.1.52.52,0,0,0,.07-.15.88.88,0,0,0,0-.17v-.93h.12Z"/><path d="M44.53,55a.41.41,0,0,1-.12.3.44.44,0,0,1-.32.12.43.43,0,0,1-.32-.11.39.39,0,0,1-.12-.31.33.33,0,0,1,0-.15.24.24,0,0,1,.06-.11l.08-.08.1,0h0l-.07,0-.08-.06a.54.54,0,0,1-.06-.11.33.33,0,0,1,0-.15.35.35,0,0,1,0-.14.44.44,0,0,1,.08-.11.57.57,0,0,1,.13-.08.47.47,0,0,1,.17,0l.16,0a.57.57,0,0,1,.13.08.48.48,0,0,1,.09.11.32.32,0,0,1,0,.14.29.29,0,0,1,0,.14.28.28,0,0,1,0,.11l-.08.07-.08,0h0l.08,0,.09.07a.35.35,0,0,1,.07.12A.35.35,0,0,1,44.53,55Zm-.13,0a.38.38,0,0,0-.08-.23.31.31,0,0,0-.45,0,.32.32,0,0,0-.09.24s0,.07,0,.11a.61.61,0,0,0,.05.12.27.27,0,0,0,.1.08.33.33,0,0,0,.15,0,.27.27,0,0,0,.22-.09A.38.38,0,0,0,44.4,55Zm0-.71a.34.34,0,0,0-.07-.22.25.25,0,0,0-.21-.08.26.26,0,0,0-.2.07.33.33,0,0,0-.08.22.34.34,0,0,0,0,.16.23.23,0,0,0,.12.12h.13a.27.27,0,0,0,.19-.08A.39.39,0,0,0,44.37,54.27Z"/><path d="M45.65,54H45.2v1.37h-.13V54h-.45v-.1h1Z"/><rect class="cls-8" x="48.54" y="49.03" width="14.45" height="3.4"/><rect class="cls-11" x="62.99" y="49.03" width="2.55" height="3.4"/><path d="M51.24,51.42h-.13V50.05l-.26.16v-.1l.27-.18h.12Z"/><path d="M52.61,51.42H51.8V51.3l0,0,0-.05L52,51.1c.05-.06.1-.11.15-.18l.15-.19a2.12,2.12,0,0,0,.11-.21.31.31,0,0,0,0-.11.52.52,0,0,0,0-.11.31.31,0,0,0,0-.08.18.18,0,0,0,0-.1.27.27,0,0,0-.08-.07.25.25,0,0,0-.13,0,.24.24,0,0,0-.19.07.3.3,0,0,0-.08.17h-.13a.22.22,0,0,1,0-.1.24.24,0,0,1,.06-.11L52,50a.48.48,0,0,1,.18,0l.15,0a.57.57,0,0,1,.13.08l.09.13a.38.38,0,0,1,0,.16.49.49,0,0,1,0,.11l0,.11a.75.75,0,0,1-.1.2,1.56,1.56,0,0,1-.16.2,1.54,1.54,0,0,1-.17.19l-.17.18h.66Z"/><path d="M53.67,51a.41.41,0,0,1-.44.42.49.49,0,0,1-.3-.08.44.44,0,0,1-.12-.19H53s0,0,0,.06a.13.13,0,0,0,.05.06l.07,0,.12,0a.32.32,0,0,0,.24-.09.39.39,0,0,0,.08-.25.33.33,0,0,0,0-.15.53.53,0,0,0-.09-.11l-.13,0-.12,0V50.6l.16,0,.11-.06a.24.24,0,0,0,.06-.09.42.42,0,0,0,0-.13.27.27,0,0,0-.09-.21.28.28,0,0,0-.2-.08.3.3,0,0,0-.2.06.19.19,0,0,0-.07.12h-.13l0-.08a.28.28,0,0,1,.07-.09.35.35,0,0,1,.12-.07l.17,0,.15,0a.39.39,0,0,1,.14.08.48.48,0,0,1,.09.11.29.29,0,0,1,0,.16.21.21,0,0,1,0,.12.26.26,0,0,1-.07.1l-.09.07a.25.25,0,0,1-.11,0v0a.2.2,0,0,1,.11,0,.35.35,0,0,1,.21.34Z"/><path d="M55,50.31h-.14a.28.28,0,0,0-.11-.22.41.41,0,0,0-.24-.08.65.65,0,0,0-.2,0,.52.52,0,0,0-.17.13.55.55,0,0,0-.11.2.79.79,0,0,0,0,.28.68.68,0,0,0,0,.19.63.63,0,0,0,.08.23.62.62,0,0,0,.18.18.5.5,0,0,0,.29.08h.17l.13,0v-.52h-.37v-.11H55v.68l-.06,0-.1,0-.13,0h-.18a.73.73,0,0,1-.3-.07.76.76,0,0,1-.21-.19,1,1,0,0,1-.12-.25,1.45,1.45,0,0,1,0-.28,1.26,1.26,0,0,1,0-.28.76.76,0,0,1,.13-.23.67.67,0,0,1,.2-.17.68.68,0,0,1,.29-.06.58.58,0,0,1,.19,0,.48.48,0,0,1,.16.08.4.4,0,0,1,.1.12A.33.33,0,0,1,55,50.31Z"/><path d="M56.11,51a.51.51,0,0,1,0,.17.45.45,0,0,1-.1.14.71.71,0,0,1-.14.1.58.58,0,0,1-.19,0l-.18,0a.35.35,0,0,1-.12-.07.18.18,0,0,1-.07-.08.69.69,0,0,1,0-.1h.15a.14.14,0,0,0,0,.06l.05.06a.16.16,0,0,0,.08.05h.11a.36.36,0,0,0,.24-.09A.4.4,0,0,0,56,51a.33.33,0,0,0-.09-.25.3.3,0,0,0-.22-.1.32.32,0,0,0-.14,0l-.09.08h-.13l0-.79H56v.11h-.56l0,.58a.37.37,0,0,1,.12-.07l.13,0a.48.48,0,0,1,.18,0,.45.45,0,0,1,.13.1.34.34,0,0,1,.09.14A.48.48,0,0,1,56.11,51Z"/><path d="M57.18,51a.51.51,0,0,1,0,.17.39.39,0,0,1-.08.14.4.4,0,0,1-.31.14.58.58,0,0,1-.19,0,.45.45,0,0,1-.13-.11.53.53,0,0,1-.08-.15,1,1,0,0,1,0-.18s0-.09,0-.14v-.15a2.26,2.26,0,0,1,0-.26,1.37,1.37,0,0,1,.07-.24.65.65,0,0,1,.15-.18.42.42,0,0,1,.39,0A.35.35,0,0,1,57,50l.07.09a.16.16,0,0,1,0,.08H57a.19.19,0,0,0-.07-.12.24.24,0,0,0-.18-.06.23.23,0,0,0-.14,0,.47.47,0,0,0-.11.13.76.76,0,0,0-.06.18,1.64,1.64,0,0,0,0,.22v.12h0l0,0a.18.18,0,0,1,.07-.05l.09,0h.14a.41.41,0,0,1,.16,0,.4.4,0,0,1,.12.1.57.57,0,0,1,.08.13A.51.51,0,0,1,57.18,51Zm-.13,0a.41.41,0,0,0-.08-.25.28.28,0,0,0-.22-.09.26.26,0,0,0-.21.09.36.36,0,0,0-.08.25.53.53,0,0,0,0,.13.67.67,0,0,0,.06.12.25.25,0,0,0,.1.08.28.28,0,0,0,.13,0,.25.25,0,0,0,.2-.09A.4.4,0,0,0,57.05,51Z"/><path d="M58.21,50.07l-.54,1.35h-.14l.55-1.36h-.72V50h.85Z"/><path d="M59.52,50.88a1.37,1.37,0,0,1,0,.19,1.42,1.42,0,0,1-.08.18.79.79,0,0,1-.17.14.62.62,0,0,1-.25,0,.6.6,0,0,1-.26,0,.48.48,0,0,1-.24-.32.65.65,0,0,1,0-.19v-.94h.12v.93a.88.88,0,0,0,0,.17.52.52,0,0,0,.06.15.29.29,0,0,0,.12.1.4.4,0,0,0,.2,0,.48.48,0,0,0,.18,0,.32.32,0,0,0,.12-.11.27.27,0,0,0,.07-.14.57.57,0,0,0,0-.18v-.93h.12Z"/><path d="M60.68,51a.43.43,0,0,1-.12.31.48.48,0,0,1-.32.11.47.47,0,0,1-.32-.1A.42.42,0,0,1,59.8,51a.77.77,0,0,1,0-.15.41.41,0,0,1,.07-.11.18.18,0,0,1,.08-.07l.09,0h0l-.06,0a.16.16,0,0,1-.08-.06.33.33,0,0,1-.06-.1.35.35,0,0,1,0-.16.31.31,0,0,1,0-.13.5.5,0,0,1,.08-.12.57.57,0,0,1,.13-.08.47.47,0,0,1,.17,0,.41.41,0,0,1,.16,0,.33.33,0,0,1,.13.07.44.44,0,0,1,.08.11.37.37,0,0,1,0,.15.32.32,0,0,1,0,.14.31.31,0,0,1,0,.1l-.08.07-.08,0h0l.08,0a.32.32,0,0,1,.09.08.39.39,0,0,1,.1.27Zm-.14,0a.34.34,0,0,0-.07-.22.28.28,0,0,0-.23-.1.27.27,0,0,0-.22.08.32.32,0,0,0-.09.24.49.49,0,0,0,0,.12.37.37,0,0,0,.05.11.24.24,0,0,0,.09.08.29.29,0,0,0,.16,0,.27.27,0,0,0,.22-.09A.4.4,0,0,0,60.54,51Zm0-.71a.31.31,0,0,0-.07-.22.29.29,0,0,0-.4,0,.29.29,0,0,0-.08.21.5.5,0,0,0,0,.16.25.25,0,0,0,.13.12l.06,0h.07a.25.25,0,0,0,.19-.08A.28.28,0,0,0,60.51,50.3Z"/><path d="M61.8,50.05h-.45v1.37h-.13V50.05h-.44v-.11h1Z"/></svg>