<svg xmlns="http://www.w3.org/2000/svg" xmlns:xlink="http://www.w3.org/1999/xlink" viewBox="0 0 100 100"><defs><style>.cls-1{isolation:isolate;}.cls-2{opacity:0.99;}.cls-3{fill:#a0c931;opacity:0.1;}.cls-13,.cls-4{fill:#f0a247;}.cls-4{opacity:0.7;}.cls-5{font-size:7.9px;font-family:SeoulNamsanEB, SeoulNamsan;}.cls-5,.cls-7{fill:#fff;}.cls-6{fill:#efefef;}.cls-8{fill:#caccce;}.cls-9{fill:url(#무제_그라디언트_30);}.cls-10{fill:#dbdcdd;}.cls-10,.cls-12,.cls-13{opacity:0.5;}.cls-10,.cls-12{mix-blend-mode:multiply;}.cls-11,.cls-12,.cls-15,.cls-16,.cls-18{fill:none;}.cls-11{stroke:#929496;stroke-linecap:round;stroke-linejoin:round;stroke-width:0.16px;}.cls-12{stroke:#6c6e70;}.cls-12,.cls-15,.cls-16,.cls-18{stroke-miterlimit:10;}.cls-12,.cls-18{stroke-width:0.25px;}.cls-14{fill:#f2f2f3;}.cls-15,.cls-16,.cls-18{stroke:#fff;}.cls-15{stroke-width:1.51px;}.cls-16{stroke-width:0.75px;}.cls-17{fill:#d0d2d3;}.cls-19{fill:#fffbde;}.cls-20{fill:#bee6fa;}</style><linearGradient id="무제_그라디언트_30" x1="49.74" y1="64.15" x2="71.01" y2="64.49" gradientUnits="userSpaceOnUse"><stop offset="0" stop-color="#d0d2d3"/><stop offset="0.18" stop-color="#dbdcdd"/><stop offset="0.48" stop-color="#fff"/><stop offset="0.61" stop-color="#d0d2d3"/><stop offset="0.85" stop-color="#e6e7e7"/><stop offset="1" stop-color="#d0d2d3"/></linearGradient></defs><title>1</title><g class="cls-1"><g id="레이어_1" data-name="레이어 1"><g class="cls-2"><path class="cls-3" d="M74.92,42.17l-8.48,8.49,0,0,0,0-3.59,3.59,1-.15,3.05-3,0,0,8.45-8.45,0,0,2.81-2.82q.09-.49.15-1L75,42.14Z"/><path class="cls-3" d="M76.37,43.56l0,0,0,0-8.45,8.45,0,0-1.38,1.38c.48-.16.94-.35,1.4-.55l.38-.37,0,0,0,0L76.77,44l0,0,.13-.14c.2-.46.39-.92.55-1.4l-1.11,1.11Z"/><path class="cls-3" d="M48.18,24.18a16.52,16.52,0,0,0-1.42,1.61l3-3A16.52,16.52,0,0,0,48.18,24.18Z"/><path class="cls-3" d="M48.42,32.64l8.46-8.45,0,0L62,19l-.81,0-4.7,4.7,0,0L48,32.21l0,0,0,0L43,37.21c0,.27,0,.54,0,.81l5.35-5.35Z"/><path class="cls-3" d="M45.58,29.8,54,21.35l0,0,1.6-1.6c-.44.13-.87.28-1.3.44l-.7.7,0,0-8.48,8.49,0,0,0,0-.94.94c-.16.43-.31.86-.44,1.3l1.84-1.84Z"/><path class="cls-3" d="M51.26,35.48,59.71,27l0,0,0,0L66.7,20c-.21-.08-.42-.14-.63-.21l-6.72,6.72,0,0,0,0-8.46,8.45,0,0,0,0-7,7,.21.63,7.2-7.19Z"/><path class="cls-3" d="M64,48.24h0l8.45-8.45,0,0L78.23,34l-.12-.73-6,6,0,0-8.52,8.51,0,0h0l-6.23,6.23.73.12,6-6Z"/><path class="cls-3" d="M61.19,45.41,69.64,37h0l0,0L77,29.64c-.08-.2-.17-.39-.26-.59l-7.42,7.42h0l0,0L60.74,45l0,0-7.66,7.65.59.27,7.52-7.52Z"/><path class="cls-3" d="M49.81,34.09l0,0,8.48-8.49,0,0L64.5,19.4l-.71-.14-5.86,5.86h0l0,0,0,0-8.45,8.45,0,0-6.13,6.13c0,.23.09.47.14.71l6.38-6.38Z"/><path class="cls-3" d="M47,31.25l0,0,8.46-8.45,0,0,0,0,3.65-3.65c-.33,0-.65.06-1,.11l-3.12,3.11,0,0,0,0-8.45,8.45,0,0L43.17,34.2c-.05.32-.08.64-.11,1l3.88-3.88Z"/><path class="cls-3" d="M55.49,39.76,64,31.25l0,0h0l8.08-8.08-.47-.38-8.07,8.06,0,0h0l-8.45,8.46,0,0-8.3,8.3.38.47,8.32-8.32Z"/><path class="cls-3" d="M52.62,37l0,0,8.51-8.51,0,0,7.5-7.5-.57-.27L60.77,28h0l0,0,0,0-8.46,8.45h0l0,0-7.61,7.62c.08.19.18.38.28.57L52.62,37Z"/><path class="cls-3" d="M58.32,42.6l0,0,8.46-8.45,0,0,0,0,8-8-.37-.48-8.06,8.06,0,0,0,0-8.45,8.45,0,0,0,0-8.3,8.3.48.37,8.24-8.24Z"/><path class="cls-3" d="M56.91,41.18l0,0,8.46-8.45,0,0,0,0,8.12-8.12c-.11-.11-.21-.23-.33-.34l-.09-.09L65,32.21l0,0,0,0-8.45,8.45,0,0,0,0-8.36,8.37.09.09.34.33,8.36-8.36Z"/><path class="cls-3" d="M54.07,38.34l0,0,8.45-8.45,0,0,0,0,7.88-7.88L70,21.6l-7.78,7.78,0,0,0,0-8.45,8.46,0,0,0,0-8,8c.1.18.21.35.32.53L54,38.37Z"/><path class="cls-3" d="M65.42,49.69l0,0,8.45-8.45,0,0,0,0,4.47-4.47c0-.28,0-.56,0-.83l-4.88,4.87,0,0,0,0L65,49.24l0,0-5.14,5.14c.27,0,.55,0,.83,0l4.71-4.71Z"/><path class="cls-3" d="M62.58,46.86l0,0,8.45-8.46,0,0,0,0,6.6-6.59c-.06-.22-.14-.43-.21-.65L70.7,37.89l0,0,0,0L62.18,46.4l0,0,0,0-7,7,.65.21,6.83-6.84Z"/><path class="cls-3" d="M59.74,44l0,0,8.46-8.46,0,0,0,0L76,27.75l-.33-.52-7.82,7.82,0,0,0,0-8.45,8.45,0,0,0,0-8.06,8.06.52.33,8-8Z"/></g><circle class="cls-4" cx="18.66" cy="20.15" r="7.15"/><text class="cls-5" transform="translate(16.56 23.1)">4</text><path class="cls-6" d="M72.43,36.47H48.33a2.35,2.35,0,0,0-2.38.27c-.77.71-1.34,2.33-.13,3.14s2.51,1.57,2.51,1.57l.09.31s-2.38-.63-3-.76-1,0-1.16.85-.86,9.69-1,10.41a2.38,2.38,0,0,0,1.08,1.93c.67.58,2.92,2.92,2.92,2.92l-.09.36s-.81-.18-1,.18-4,13.19-4.08,13.5A47.38,47.38,0,0,0,43.66,76l33.08-.2a38.74,38.74,0,0,0,1.61-4.4,6.7,6.7,0,0,0-.49-1.88c-.18-.54-3.5-11.25-3.5-11.25-.14-.67-.63-.71-1.17-.67v-.4s3.72-3.46,3.77-3.64.27-.18.18-1.84c-.09-1.84-1-9.55-1-10s-.22-.94-1.12-.76-2.74.72-2.74.72l0-.23s2.37-1.39,2.73-1.66a2.13,2.13,0,0,0,.54-2c-.27-.71-1-1.7-1.75-1.57S72.38,36.38,72.43,36.47Z"/><polygon class="cls-7" points="73.22 57.23 47.29 57.2 48.44 41.49 72.3 41.49 73.22 57.23"/><path class="cls-8" d="M53.12,67.67c-1.92,0-2.11,0-2.25,0a3.8,3.8,0,0,1-1.72-.44.89.89,0,0,1-.35-1.28l.51-1.19A23.5,23.5,0,0,1,50.6,61.9l.06-.08c.15-.23.53-.85,2.64-.85h0l13.49,0H68c1.36.06,2.48.24,2.67,1.2,0,0,.77,4,.77,4.31s-.31,1.12-3.13,1.13l-2.18,0C62.63,67.64,56.36,67.67,53.12,67.67Z"/><path class="cls-9" d="M53.44,61.59s14.11,0,14.34,0c.82,0,1.27,0,1.39.64s.77,4,.77,4.26-.19.51-1.7.51c-2,0-16.38.11-17.14.06s-1.2-.27-.88-1S51.75,62.37,52,62.1,52.09,61.57,53.44,61.59Z"/><path class="cls-10" d="M69.22,62.47a1.5,1.5,0,0,0,0-.26c-.12-.64-.57-.59-1.39-.64-.23,0-14.34,0-14.34,0-1.35,0-1.25.25-1.47.51a3.28,3.28,0,0,0-.23.43l1.22-.6,14.92-.07A9.93,9.93,0,0,1,69.22,62.47Z"/><line class="cls-11" x1="42.13" y1="71.21" x2="78.36" y2="71.17"/><line class="cls-12" x1="50.11" y1="51.35" x2="52.63" y2="51.35"/><line class="cls-12" x1="50.11" y1="52" x2="52.63" y2="52"/><line class="cls-12" x1="68.68" y1="51.35" x2="71.2" y2="51.35"/><line class="cls-12" x1="54.42" y1="52" x2="56.94" y2="52"/><line class="cls-12" x1="63.81" y1="51.35" x2="66.33" y2="51.35"/><line class="cls-12" x1="63.81" y1="52" x2="66.33" y2="52"/><line class="cls-12" x1="59.06" y1="51.35" x2="61.58" y2="51.35"/><line class="cls-12" x1="59.06" y1="52" x2="61.58" y2="52"/><line class="cls-12" x1="59.06" y1="52.75" x2="61.58" y2="52.75"/><rect class="cls-13" x="49.41" y="45.43" width="21.81" height="4.43"/><rect class="cls-14" x="30.26" y="56.62" width="4.16" height="17.51"/><path class="cls-15" d="M30,73.67a.48.48,0,0,0,.49.48h3.63a.48.48,0,0,0,.49-.48V56.73H30Z"/><path class="cls-16" d="M30.15,55.57h4.37M30.15,55h4.37m-4.37-.57h4.37m-4.37-.56h4.37"/><path class="cls-15" d="M34.15,52.89H30.52a.48.48,0,0,0-.49.48v3.36h4.61V53.37A.48.48,0,0,0,34.15,52.89Z"/><rect class="cls-17" x="29.48" y="50.2" width="5.72" height="6.84" rx="1.06"/><path class="cls-7" d="M34.1,53.73V51.65c0-.53-.93-.53-.93,0v2.08c0,.53.93.53.93,0"/><line class="cls-18" x1="29.48" y1="55.12" x2="35.2" y2="55.12"/><line class="cls-18" x1="29.48" y1="55.37" x2="35.2" y2="55.37"/><line class="cls-18" x1="29.48" y1="55.62" x2="35.2" y2="55.62"/><line class="cls-18" x1="29.48" y1="55.87" x2="35.2" y2="55.87"/><line class="cls-18" x1="29.48" y1="56.12" x2="35.2" y2="56.12"/><rect class="cls-14" x="22.42" y="56.62" width="4.16" height="17.51"/><path class="cls-15" d="M22.19,73.67a.48.48,0,0,0,.49.48h3.63a.48.48,0,0,0,.49-.48V56.73H22.19Z"/><path class="cls-16" d="M22.31,55.57h4.37M22.31,55h4.37m-4.37-.57h4.37m-4.37-.56h4.37"/><path class="cls-15" d="M26.31,52.89H22.68a.48.48,0,0,0-.49.48v3.36H26.8V53.37A.48.48,0,0,0,26.31,52.89Z"/><rect class="cls-17" x="21.64" y="50.2" width="5.72" height="6.84" rx="1.06"/><path class="cls-7" d="M26.26,53.73V51.65c0-.53-.93-.53-.93,0v2.08c0,.53.93.53.93,0"/><rect class="cls-19" x="24.28" y="59.02" width="0.34" height="9.81"/><path class="cls-7" d="M24.43,68.51h0c.26,0,.48,2.16.48,2.16a.49.49,0,0,1-.48.48h0a.49.49,0,0,1-.48-.48s.22-2.16.48-2.16"/><line class="cls-18" x1="21.64" y1="55.12" x2="27.36" y2="55.12"/><line class="cls-18" x1="21.64" y1="55.37" x2="27.36" y2="55.37"/><line class="cls-18" x1="21.64" y1="55.62" x2="27.36" y2="55.62"/><line class="cls-18" x1="21.64" y1="55.87" x2="27.36" y2="55.87"/><line class="cls-18" x1="21.64" y1="56.12" x2="27.36" y2="56.12"/><rect class="cls-20" x="30.66" y="64.17" width="3.41" height="9.44"/><rect class="cls-19" x="32.11" y="59.02" width="0.34" height="9.81"/><path class="cls-7" d="M32.27,68.51h0c.27,0,.49,2.16.49,2.16a.49.49,0,0,1-.49.48h0a.48.48,0,0,1-.48-.48s.21-2.16.48-2.16"/></g></g></svg>