<svg id="레이어_1" data-name="레이어 1" xmlns="http://www.w3.org/2000/svg" xmlns:xlink="http://www.w3.org/1999/xlink" viewBox="0 0 100 100"><defs><style>.cls-1,.cls-9{fill:none;}.cls-2{opacity:0.99;}.cls-27,.cls-3{fill:#a0c931;}.cls-15,.cls-3{opacity:0.1;}.cls-22,.cls-4{fill:#f0a247;}.cls-4{opacity:0.7;}.cls-5{font-size:7.9px;font-family:SeoulNamsanEB, SeoulNamsan;}.cls-5,.cls-8{fill:#fff;}.cls-6{fill:#a6a8ab;opacity:0.3;}.cls-7{fill:#e57a34;}.cls-9{stroke:#221e1f;stroke-width:0.16px;}.cls-12,.cls-13,.cls-9{stroke-linecap:round;stroke-linejoin:round;}.cls-10{fill:#a6a7aa;}.cls-11,.cls-13{fill:#231815;}.cls-12,.cls-29{fill:#f7f8f8;}.cls-12,.cls-13{stroke:#fff;stroke-width:0.75px;}.cls-14{clip-path:url(#clip-path);}.cls-16{fill:#f09b53;}.cls-17{fill:#f7c258;}.cls-18{fill:#9bc747;}.cls-19{fill:#6c6e70;}.cls-20{fill:#58595b;}.cls-21{fill:#f8ca4b;}.cls-23{fill:#e47d8f;}.cls-24{fill:#914f82;}.cls-25{fill:#5c6aa4;}.cls-26{fill:#4caac3;}.cls-28{fill:#a4ce4c;}</style><clipPath id="clip-path"><polygon class="cls-1" points="78.48 62.55 21.57 62.6 29.26 41 70.97 41 78.48 62.55"/></clipPath></defs><title>1</title><g class="cls-2"><path class="cls-3" d="M78.92,50.17l-8.48,8.49,0,0,0,0-3.59,3.59,1-.15,3-3,0,0,8.45-8.45,0,0,2.81-2.82q.09-.49.15-1L79,50.14Z"/><path class="cls-3" d="M80.37,51.56l0,0,0,0-8.45,8.45,0,0-1.38,1.38c.48-.16.94-.35,1.4-.55l.38-.37,0,0,0,0L80.77,52l0,0,.13-.14c.2-.46.39-.92.55-1.4l-1.11,1.11Z"/><path class="cls-3" d="M52.18,32.18a16.52,16.52,0,0,0-1.42,1.61l3-3A16.52,16.52,0,0,0,52.18,32.18Z"/><path class="cls-3" d="M52.42,40.64l8.46-8.45,0,0L66,27l-.81,0-4.7,4.7,0,0L52,40.21l0,0,0,0L47,45.21c0,.27,0,.54,0,.81l5.35-5.35Z"/><path class="cls-3" d="M49.58,37.8,58,29.35l0,0,1.6-1.6c-.44.13-.87.28-1.3.44l-.7.7,0,0-8.48,8.49,0,0,0,0-.94.94c-.16.43-.31.86-.44,1.3l1.84-1.84Z"/><path class="cls-3" d="M55.26,43.48,63.71,35l0,0,0,0L70.7,28c-.21-.08-.42-.14-.63-.21l-6.72,6.72,0,0,0,0-8.46,8.45,0,0,0,0-7,7,.21.63,7.2-7.19Z"/><path class="cls-3" d="M68,56.24h0l8.45-8.45,0,0L82.23,42l-.12-.73-6,6,0,0-8.52,8.51,0,0h0l-6.23,6.23.73.12,6-6Z"/><path class="cls-3" d="M65.19,53.41,73.64,45h0l0,0L81,37.64c-.08-.2-.17-.39-.26-.59l-7.42,7.42h0l0,0L64.74,53l0,0-7.66,7.65.59.27,7.52-7.52Z"/><path class="cls-3" d="M53.81,42.09l0,0,8.48-8.49,0,0L68.5,27.4l-.71-.14-5.86,5.86h0l0,0,0,0-8.45,8.45,0,0-6.13,6.13c0,.23.09.47.14.71l6.38-6.38Z"/><path class="cls-3" d="M51,39.25l0,0,8.46-8.45,0,0,0,0,3.65-3.65c-.33,0-.65.06-1,.11l-3.12,3.11,0,0,0,0-8.45,8.45,0,0L47.17,42.2c-.05.32-.08.64-.11,1l3.88-3.88Z"/><path class="cls-3" d="M59.49,47.76,68,39.25l0,0h0l8.08-8.08-.47-.38-8.07,8.06,0,0h0l-8.45,8.46,0,0-8.3,8.3.38.47,8.32-8.32Z"/><path class="cls-3" d="M56.62,45l0,0,8.51-8.51,0,0,7.5-7.5-.57-.27L64.77,36h0l0,0,0,0-8.46,8.45h0l0,0-7.61,7.62c.08.19.18.38.28.57L56.62,45Z"/><path class="cls-3" d="M62.32,50.6l0,0,8.46-8.45,0,0,0,0,8-8-.37-.48-8.06,8.06,0,0,0,0-8.45,8.45,0,0,0,0-8.3,8.3.48.37,8.24-8.24Z"/><path class="cls-3" d="M60.91,49.18l0,0,8.46-8.45,0,0,0,0,8.12-8.12c-.11-.11-.21-.23-.33-.34l-.09-.09L69,40.21l0,0,0,0-8.45,8.45,0,0,0,0-8.36,8.37.09.09.34.33,8.36-8.36Z"/><path class="cls-3" d="M58.07,46.34l0,0,8.45-8.45,0,0,0,0,7.88-7.88L74,29.6l-7.78,7.78,0,0,0,0-8.45,8.46,0,0,0,0-8,8c.1.18.21.35.32.53L58,46.37Z"/><path class="cls-3" d="M69.42,57.69l0,0,8.45-8.45,0,0,0,0,4.47-4.47c0-.28,0-.56,0-.83l-4.88,4.87,0,0,0,0L69,57.24l0,0-5.14,5.14c.27,0,.55,0,.83,0l4.71-4.71Z"/><path class="cls-3" d="M66.58,54.86l0,0,8.45-8.46,0,0,0,0,6.6-6.59c-.06-.22-.14-.43-.21-.65L74.7,45.89l0,0,0,0L66.18,54.4l0,0,0,0-7.05,7,.65.21,6.83-6.84Z"/><path class="cls-3" d="M63.74,52l0,0,8.46-8.46,0,0,0,0L80,35.75l-.33-.52-7.82,7.82,0,0,0,0-8.45,8.45,0,0,0,0-8.06,8.06.52.33,8-8Z"/></g><circle class="cls-4" cx="18.66" cy="20.15" r="7.15"/><text class="cls-5" transform="translate(16.56 23.1)">5</text><path class="cls-6" d="M28.07,72.68c0-.87,10.19-1.58,22.76-1.58s22.77.71,22.77,1.58-10.19,1.59-22.77,1.59S28.07,73.56,28.07,72.68Z"/><path class="cls-7" d="M29.26,41H71l7.59,21.68-2.4,9.86-51.84,0-2.88-9.86S29.41,40.85,29.26,41Z"/><polyline class="cls-8" points="30.46 41.03 22.84 62.87 25.15 69.33 74.75 69.32 77.01 62.7 69.89 41.03"/><polygon class="cls-8" points="75.55 72.59 24.9 72.59 22.11 62.7 77.95 62.7 75.55 72.59"/><line class="cls-9" x1="77.01" y1="62.7" x2="69.89" y2="41.03"/><line class="cls-9" x1="30.46" y1="41.03" x2="22.93" y2="62.7"/><line class="cls-9" x1="21.44" y1="62.72" x2="78.56" y2="62.68"/><path class="cls-9" d="M29.26,41H71l7.59,21.68-2.43,9.88-51.85,0-2.84-9.88S29.41,40.85,29.26,41Z"/><path class="cls-10" d="M54.07,67.7a.82.82,0,0,1,.5.15.47.47,0,0,1,.21.37.44.44,0,0,1-.21.36.82.82,0,0,1-.5.15h-.5v-1Zm0,.76a.4.4,0,0,0,.24-.07.22.22,0,0,0,.09-.17.2.2,0,0,0-.09-.17.4.4,0,0,0-.24-.07h-.13v.48Z"/><polygon class="cls-10" points="56.27 67.71 56.27 68.73 55.69 68.73 55.28 68.14 55.28 68.73 54.91 68.73 54.91 67.71 55.41 67.71 55.89 68.42 55.89 67.71 56.27 67.71"/><path class="cls-10" d="M57.28,67.71l.51,1h-.4l0-.11h-.53l-.06.11h-.39l.51-1Zm-.33.63h.25l-.12-.25Z"/><path class="cls-10" d="M58.19,67.71l0,.77h-.23l0-.77Zm0,1h-.27v-.2h.27Z"/><path class="cls-11" d="M29.26,41H71l7.59,21.68-2.4,9.86-51.84,0-2.88-9.86S29.41,40.85,29.26,41Z"/><polyline class="cls-11" points="30.46 41.03 22.84 62.87 25.15 69.33 74.75 69.32 77.01 62.7 69.89 41.03"/><polygon class="cls-11" points="75.55 72.59 24.9 72.59 22.11 62.7 77.95 62.7 75.55 72.59"/><path class="cls-12" d="M29.26,41H71l7.59,21.68-2.43,9.88-51.85,0-2.84-9.88S29.41,40.85,29.26,41Z"/><line class="cls-13" x1="77.01" y1="62.7" x2="69.89" y2="41.03"/><line class="cls-13" x1="30.46" y1="41.03" x2="22.93" y2="62.7"/><line class="cls-13" x1="21.44" y1="62.72" x2="78.56" y2="62.68"/><g class="cls-14"><g class="cls-15"><path class="cls-16" d="M7.5,57a.45.45,0,0,1,0,.2,6.12,6.12,0,0,1-.58,1.22,5.6,5.6,0,0,0-.49,1A.59.59,0,1,1,5.29,59a6.25,6.25,0,0,1,.58-1.21,5,5,0,0,0,.49-1A.59.59,0,0,1,7.5,57Z"/><path class="cls-16" d="M8.52,55.39a.59.59,0,0,1-.43.56,12.56,12.56,0,0,0-1.54.52A13.29,13.29,0,0,1,4.89,57a.59.59,0,1,1-.31-1.14,10.35,10.35,0,0,0,1.53-.52,14,14,0,0,1,1.67-.55.58.58,0,0,1,.72.41A.41.41,0,0,1,8.52,55.39Z"/><path class="cls-16" d="M4.86,50.72v.1a6.79,6.79,0,0,0-.14,1.42,9.2,9.2,0,0,1-.16,1.6.59.59,0,1,1-1.16-.21,8.44,8.44,0,0,0,.14-1.41,8.29,8.29,0,0,1,.16-1.6.58.58,0,0,1,.68-.48A.59.59,0,0,1,4.86,50.72Z"/><path class="cls-16" d="M2.92,46.69v0a6.33,6.33,0,0,1-.29,1.78A5.54,5.54,0,0,0,2.38,50,.59.59,0,0,1,1.2,50a6.64,6.64,0,0,1,.29-1.78,5.54,5.54,0,0,0,.25-1.51.59.59,0,0,1,.61-.57A.6.6,0,0,1,2.92,46.69Z"/><path class="cls-16" d="M6.62,50.73a.59.59,0,0,1-1.06.35,10,10,0,0,1-.92-1.44,7.77,7.77,0,0,0-.82-1.31.59.59,0,0,1,.95-.7,10.2,10.2,0,0,1,.91,1.45,9.3,9.3,0,0,0,.83,1.31A.6.6,0,0,1,6.62,50.73Z"/><path class="cls-17" d="M9.82,50.82a.6.6,0,0,1-.23.47,5.77,5.77,0,0,1-1.75,1,4.58,4.58,0,0,0-1.45.8.59.59,0,1,1-.72-.93,5.77,5.77,0,0,1,1.75-1,4.58,4.58,0,0,0,1.45-.8.59.59,0,0,1,.83.1A.62.62,0,0,1,9.82,50.82Z"/><path class="cls-16" d="M9.59,49.37a.69.69,0,0,1,0,.2.59.59,0,0,1-.76.36A4.51,4.51,0,0,1,7,48.78a3.5,3.5,0,0,0-1.39-.88.59.59,0,0,1-.36-.75A.59.59,0,0,1,6,46.79a4.52,4.52,0,0,1,1.8,1.14,3.4,3.4,0,0,0,1.39.89A.58.58,0,0,1,9.59,49.37Z"/><path class="cls-17" d="M11.43,53.3h0a.59.59,0,0,1-.61.58,10.66,10.66,0,0,1-1.37-.11,9.67,9.67,0,0,0-1.24-.09.59.59,0,0,1-.57-.6.58.58,0,0,1,.6-.58,10.66,10.66,0,0,1,1.37.11,9.67,9.67,0,0,0,1.24.09A.6.6,0,0,1,11.43,53.3Z"/><path class="cls-17" d="M11,55.32a.53.53,0,0,1-.11.34,4.86,4.86,0,0,1-1.12,1.17,3.91,3.91,0,0,0-.89.92.58.58,0,0,1-.82.14.59.59,0,0,1-.14-.82A5.05,5.05,0,0,1,9,55.9,3.63,3.63,0,0,0,9.92,55a.6.6,0,0,1,.83-.13A.57.57,0,0,1,11,55.32Z"/><path class="cls-16" d="M11.82,57.6a.59.59,0,0,1-.35.54,4.25,4.25,0,0,0-1.09.64,5.9,5.9,0,0,1-1.32.76.59.59,0,0,1-.47-1.08,5.07,5.07,0,0,0,1.09-.63A6,6,0,0,1,11,57.06a.6.6,0,0,1,.78.3A.69.69,0,0,1,11.82,57.6Z"/><path class="cls-17" d="M15.1,53.61a.56.56,0,0,1-.19.43,7.23,7.23,0,0,1-1.39,1.06,6,6,0,0,0-1.2.92.6.6,0,0,1-.84,0,.59.59,0,0,1,0-.83A6.83,6.83,0,0,1,12.9,54.1a6.26,6.26,0,0,0,1.21-.92.59.59,0,0,1,.83,0A.57.57,0,0,1,15.1,53.61Z"/><path class="cls-17" d="M13.15,52.7a.57.57,0,0,1-.24.47.58.58,0,0,1-.82-.13,3.21,3.21,0,0,0-1-.95,4.45,4.45,0,0,1-1.33-1.24A.6.6,0,0,1,9.86,50a.59.59,0,0,1,.82.13,3.19,3.19,0,0,0,1,1A4.41,4.41,0,0,1,13,52.35.63.63,0,0,1,13.15,52.7Z"/><path class="cls-17" d="M13.91,50.07a.59.59,0,0,1-.91.49,1.82,1.82,0,0,0-1.08-.33,2.85,2.85,0,0,1-1.67-.52.58.58,0,0,1-.17-.81.6.6,0,0,1,.82-.17,1.75,1.75,0,0,0,1.08.33,2.93,2.93,0,0,1,1.67.52A.58.58,0,0,1,13.91,50.07Z"/><path class="cls-17" d="M15.57,47.74s0,.07,0,.1a.59.59,0,0,1-.68.48,9,9,0,0,0-1.28-.13A10.63,10.63,0,0,1,12.18,48a.6.6,0,0,1-.48-.68.58.58,0,0,1,.68-.48,8.9,8.9,0,0,0,1.28.13,10.36,10.36,0,0,1,1.41.15A.6.6,0,0,1,15.57,47.74Z"/><path class="cls-16" d="M14.57,43.41a.58.58,0,0,1-.07.28,3.88,3.88,0,0,1-1.19,1.38,2.79,2.79,0,0,0-.88,1,.59.59,0,0,1-.8.24.6.6,0,0,1-.24-.8,4,4,0,0,1,1.19-1.39,2.74,2.74,0,0,0,.88-1,.59.59,0,0,1,.8-.24A.58.58,0,0,1,14.57,43.41Z"/><path class="cls-16" d="M12.13,43.21v0a.59.59,0,0,1-.61.57,2.69,2.69,0,0,0-1.14.18,3.73,3.73,0,0,1-1.58.25.6.6,0,0,1-.56-.62.58.58,0,0,1,.61-.56A2.66,2.66,0,0,0,10,42.87a3.73,3.73,0,0,1,1.58-.25A.59.59,0,0,1,12.13,43.21Z"/><path class="cls-16" d="M9.73,45.55a.59.59,0,0,1-.57.59,3.74,3.74,0,0,1-1.49-.23,2.55,2.55,0,0,0-1.08-.16A.6.6,0,0,1,6,45.18a.59.59,0,0,1,.57-.61A3.94,3.94,0,0,1,8,44.79,2.46,2.46,0,0,0,9.13,45a.58.58,0,0,1,.6.57Z"/><path class="cls-16" d="M11.7,45.73a.58.58,0,0,1-.11.35,3.21,3.21,0,0,1-1.14,1,2.08,2.08,0,0,0-.76.66.59.59,0,0,1-.82.13A.6.6,0,0,1,8.74,47a3.13,3.13,0,0,1,1.14-1,2.08,2.08,0,0,0,.76-.66.59.59,0,0,1,.82-.13A.6.6,0,0,1,11.7,45.73Z"/><path class="cls-16" d="M5.45,44.8a.52.52,0,0,1-.07.27,2.21,2.21,0,0,0-.28.87,3.55,3.55,0,0,1-.41,1.24.59.59,0,1,1-1-.56,2.22,2.22,0,0,0,.28-.86,3.49,3.49,0,0,1,.41-1.24.59.59,0,0,1,1.11.28Z"/><path class="cls-16" d="M3.88,45.11a.39.39,0,0,1,0,.15.59.59,0,0,1-.71.42,7.83,7.83,0,0,0-1.46-.25,9.13,9.13,0,0,1-1.64-.29A.59.59,0,0,1,.35,44a7.63,7.63,0,0,0,1.45.25,9,9,0,0,1,1.64.29A.6.6,0,0,1,3.88,45.11Z"/><path class="cls-16" d="M3.05,42.86a.61.61,0,0,1-.22.46A.6.6,0,0,1,2,43.23a6.82,6.82,0,0,0-1-1A7.55,7.55,0,0,1-.21,41a.6.6,0,0,1,.09-.83.6.6,0,0,1,.83.09,6.39,6.39,0,0,0,1,1.05,8.08,8.08,0,0,1,1.17,1.21A.59.59,0,0,1,3.05,42.86Z"/><path class="cls-16" d="M6.49,40.56a.53.53,0,0,1-.11.34,3.59,3.59,0,0,1-1.44,1.24,2.61,2.61,0,0,0-1.05.9.59.59,0,1,1-1-.69,3.59,3.59,0,0,1,1.44-1.24,2.61,2.61,0,0,0,1-.9.59.59,0,0,1,.82-.13A.6.6,0,0,1,6.49,40.56Z"/><path class="cls-16" d="M8.64,38.83a.62.62,0,0,1-.09.32,3.22,3.22,0,0,0-.47,1.13,4.32,4.32,0,0,1-.63,1.49.59.59,0,1,1-1-.64A3.08,3.08,0,0,0,6.93,40a4.42,4.42,0,0,1,.63-1.48.59.59,0,0,1,.81-.19A.6.6,0,0,1,8.64,38.83Z"/><path class="cls-16" d="M8.64,42.74a.57.57,0,0,1-.34.53A3.18,3.18,0,0,1,7,43.6a2.27,2.27,0,0,0-.93.22.59.59,0,0,1-.49-1.07,3.42,3.42,0,0,1,1.35-.33,2.08,2.08,0,0,0,.92-.22.59.59,0,0,1,.78.29A.56.56,0,0,1,8.64,42.74Z"/><path class="cls-17" d="M12.92,41.67a.6.6,0,0,1-.12.36.58.58,0,0,1-.82.11c-.58-.44-.86-.68-1.13-.91a13.74,13.74,0,0,0-1.07-.87.59.59,0,0,1,.72-.94c.57.44.85.68,1.12.92s.52.45,1.07.87A.58.58,0,0,1,12.92,41.67Z"/><path class="cls-16" d="M7.59,38.41a.64.64,0,0,1,0,.24.59.59,0,0,1-.78.3A4.21,4.21,0,0,1,5.19,37.8,3.1,3.1,0,0,0,4,36.93a.59.59,0,1,1,.48-1.07A4.21,4.21,0,0,1,6.06,37a3,3,0,0,0,1.18.87A.57.57,0,0,1,7.59,38.41Z"/><path class="cls-16" d="M5.29,39a.6.6,0,0,1-.42.56c-.68.2-1,.32-1.35.44s-.7.24-1.4.45a.59.59,0,0,1-.34-1.12c.68-.21,1-.32,1.35-.44s.69-.25,1.4-.46a.58.58,0,0,1,.73.4A.47.47,0,0,1,5.29,39Z"/><path class="cls-16" d="M3.27,37.56a.59.59,0,0,1-.37.55.58.58,0,0,1-.76-.34,6.21,6.21,0,0,0-.57-1.1,5.74,5.74,0,0,1-.68-1.31A.59.59,0,1,1,2,34.93,5.86,5.86,0,0,0,2.55,36a6,6,0,0,1,.68,1.31A.57.57,0,0,1,3.27,37.56Z"/><path class="cls-16" d="M7,34.1a.61.61,0,0,1-.34.54,3.62,3.62,0,0,0-1.12.75,4.86,4.86,0,0,1-1.43,1,.59.59,0,0,1-.78-.28.6.6,0,0,1,.28-.79,3.82,3.82,0,0,0,1.13-.75,4.47,4.47,0,0,1,1.42-1,.6.6,0,0,1,.79.28A.74.74,0,0,1,7,34.1Z"/><path class="cls-16" d="M4.57,31.36a.56.56,0,0,1-.11.35,4.34,4.34,0,0,1-1.2,1.17,3.43,3.43,0,0,0-.92.9.59.59,0,0,1-1-.69,4.48,4.48,0,0,1,1.2-1.17,3.44,3.44,0,0,0,.93-.9.58.58,0,0,1,.82-.13A.57.57,0,0,1,4.57,31.36Z"/><path class="cls-16" d="M6.13,27.78a.58.58,0,0,1-.25.48,3.37,3.37,0,0,0-.81.75A4.49,4.49,0,0,1,4,30a.59.59,0,0,1-.82-.15A.59.59,0,0,1,3.37,29a3.49,3.49,0,0,0,.8-.74,4.72,4.72,0,0,1,1-.95.59.59,0,0,1,.82.14A.62.62,0,0,1,6.13,27.78Z"/><path class="cls-16" d="M9.34,29.4a.6.6,0,0,1-.49.58,3.32,3.32,0,0,0-1.18.4,4.73,4.73,0,0,1-1.52.52.59.59,0,0,1-.69-.47.61.61,0,0,1,.48-.69,3.61,3.61,0,0,0,1.19-.4,4.56,4.56,0,0,1,1.51-.52.59.59,0,0,1,.69.47S9.34,29.36,9.34,29.4Z"/><path class="cls-17" d="M9.55,33.46a.5.5,0,0,1-.1.31.58.58,0,0,1-.81.18,10.93,10.93,0,0,0-1.11-.64c-.31-.16-.62-.33-1.21-.7a.61.61,0,0,1-.18-.82A.59.59,0,0,1,7,31.62c.54.34.82.49,1.11.64a12.52,12.52,0,0,1,1.21.7A.6.6,0,0,1,9.55,33.46Z"/><path class="cls-17" d="M9.51,37.15a.59.59,0,0,1-1.07.34l-.72-1-.71-1a.58.58,0,0,1,.14-.82.59.59,0,0,1,.82.14c.36.51.54.76.71,1l.72,1A.62.62,0,0,1,9.51,37.15Z"/><path class="cls-17" d="M12,36.46a.59.59,0,0,1-1.09.31,4,4,0,0,1-.54-1.33,2.62,2.62,0,0,0-.39-1,.59.59,0,1,1,1-.61,3.65,3.65,0,0,1,.53,1.33,2.85,2.85,0,0,0,.39,1A.61.61,0,0,1,12,36.46Z"/><path class="cls-17" d="M13.73,38.32a.59.59,0,0,1-.55.58L11.8,39l-1.43.14a.59.59,0,0,1-.1-1.18c.7,0,1-.09,1.39-.13s.72-.09,1.43-.14a.59.59,0,0,1,.64.54Z"/><path class="cls-17" d="M15.65,39.12v.06c-.06.58-.08.87-.1,1.17s-.05.6-.11,1.2a.59.59,0,0,1-.65.52.58.58,0,0,1-.52-.64c.06-.58.08-.87.1-1.17s0-.6.11-1.2a.59.59,0,0,1,1.17.06Z"/><path class="cls-18" d="M16.22,36.32a.61.61,0,0,1-.81.55,3.25,3.25,0,0,0-1.31-.26,4.31,4.31,0,0,1-1.7-.35.59.59,0,0,1,.43-1.09,3.25,3.25,0,0,0,1.31.26,4.45,4.45,0,0,1,1.7.34A.6.6,0,0,1,16.22,36.32Z"/><path class="cls-18" d="M18.18,34.77a.57.57,0,0,1-.31.51,2.13,2.13,0,0,1-1.56.2,1,1,0,0,0-.78.07.59.59,0,0,1-.56-1,2.12,2.12,0,0,1,1.56-.19,1,1,0,0,0,.78-.07.58.58,0,0,1,.87.52Z"/><path class="cls-17" d="M15,32.88a.57.57,0,0,1-.29.51,2.9,2.9,0,0,0-.88.73,4.29,4.29,0,0,1-1.18,1,.59.59,0,1,1-.59-1,2.76,2.76,0,0,0,.88-.72,4.29,4.29,0,0,1,1.18-1,.6.6,0,0,1,.81.22A.59.59,0,0,1,15,32.88Z"/><path class="cls-17" d="M12.19,32.77a.58.58,0,0,1-.06.26.59.59,0,0,1-.8.26,8.57,8.57,0,0,0-1.25-.53,9.48,9.48,0,0,1-1.42-.59.59.59,0,1,1,.54-1.05,9.3,9.3,0,0,0,1.26.53,8.86,8.86,0,0,1,1.41.59A.59.59,0,0,1,12.19,32.77Z"/><path class="cls-17" d="M14.18,29.87a.58.58,0,0,1-.58.59A6.29,6.29,0,0,1,12,30.31a4.87,4.87,0,0,0-1.39-.13.6.6,0,0,1-.6-.58.58.58,0,0,1,.58-.6,6.4,6.4,0,0,1,1.65.15,5.07,5.07,0,0,0,1.39.14.59.59,0,0,1,.6.57Z"/><path class="cls-17" d="M12.92,28a.57.57,0,0,1-.12.35.59.59,0,0,1-.83.11,2.49,2.49,0,0,0-1.07-.51,3.54,3.54,0,0,1-1.5-.71.59.59,0,0,1-.11-.83.6.6,0,0,1,.83-.1,2.3,2.3,0,0,0,1.07.5,3.59,3.59,0,0,1,1.5.72A.58.58,0,0,1,12.92,28Z"/><path class="cls-17" d="M14.59,27.67a.59.59,0,0,1-1.08.33c-.36-.54-.54-.82-.7-1.09s-.33-.53-.68-1.05a.59.59,0,1,1,1-.66c.36.54.53.82.7,1.09s.33.53.68,1.05A.67.67,0,0,1,14.59,27.67Z"/><path class="cls-17" d="M16.67,32a.59.59,0,0,1-1.17.12,3.53,3.53,0,0,0-.5-1.24,4.78,4.78,0,0,1-.64-1.59.59.59,0,0,1,.44-.71.6.6,0,0,1,.71.45,3.53,3.53,0,0,0,.5,1.24,5,5,0,0,1,.64,1.59A.68.68,0,0,1,16.67,32Z"/><path class="cls-17" d="M18.73,25.34a.56.56,0,0,1-.25.48c-.63.44-.92.66-1.23.9s-.63.48-1.28.93a.59.59,0,1,1-.67-1c.62-.43.92-.66,1.23-.89s.63-.49,1.28-.94a.59.59,0,0,1,.82.16A.56.56,0,0,1,18.73,25.34Z"/><path class="cls-17" d="M15.7,25.14a.59.59,0,0,1-.2.44.58.58,0,0,1-.83,0l-.93-1-.92-1a.59.59,0,1,1,.88-.78l.92,1,.93,1A.58.58,0,0,1,15.7,25.14Z"/><path class="cls-17" d="M18,23.82a.55.55,0,0,1-.1.32.58.58,0,0,1-.81.18A6.74,6.74,0,0,0,16,23.74a7.48,7.48,0,0,1-1.24-.66.6.6,0,0,1-.19-.82.61.61,0,0,1,.82-.18,6.74,6.74,0,0,0,1.09.58,7.73,7.73,0,0,1,1.24.67A.58.58,0,0,1,18,23.82Z"/><path class="cls-16" d="M12.08,24.32a.58.58,0,0,1-.39.55,3.55,3.55,0,0,1-1.77.21,2.41,2.41,0,0,0-1.25.13.57.57,0,0,1-.75-.35.59.59,0,0,1,.35-.75A3.56,3.56,0,0,1,10,23.9a2.41,2.41,0,0,0,1.25-.13.59.59,0,0,1,.76.35A.69.69,0,0,1,12.08,24.32Z"/><path class="cls-16" d="M9,27.22a.77.77,0,0,1,0,.15.6.6,0,0,1-.72.42,8.49,8.49,0,0,1-1.45-.5,7.33,7.33,0,0,0-1.27-.44.59.59,0,0,1-.43-.72.6.6,0,0,1,.72-.42,8.49,8.49,0,0,1,1.45.5,7.51,7.51,0,0,0,1.28.44A.6.6,0,0,1,9,27.22Z"/><path class="cls-16" d="M7.71,21.77a.34.34,0,0,1,0,.1c-.12.7-.2,1.05-.27,1.39s-.14.68-.26,1.36a.61.61,0,0,1-.69.48A.59.59,0,0,1,6,24.41c.12-.69.2-1.05.27-1.39s.14-.67.26-1.36a.59.59,0,0,1,1.17.11Z"/><path class="cls-16" d="M11.18,22.5a.59.59,0,0,1-1,.45c-.49-.42-.73-.66-1-.88s-.43-.43-.9-.83a.59.59,0,0,1-.07-.83.6.6,0,0,1,.84-.06c.49.42.73.65,1,.88s.44.43.9.82A.58.58,0,0,1,11.18,22.5Z"/><path class="cls-16" d="M14.91,19.71a.55.55,0,0,1-.18.41,6.6,6.6,0,0,1-1.16.95,5.73,5.73,0,0,0-1,.79.59.59,0,0,1-.83,0,.6.6,0,0,1,0-.84,7.35,7.35,0,0,1,1.16-.94,5,5,0,0,0,1-.79.6.6,0,0,1,.84,0A.63.63,0,0,1,14.91,19.71Z"/><path class="cls-16" d="M16.67,16.5a.59.59,0,0,1-.26.49,3.69,3.69,0,0,0-1,.94,4.71,4.71,0,0,1-1.26,1.2.58.58,0,0,1-.82-.15.6.6,0,0,1,.15-.82,3.61,3.61,0,0,0,1-.94A4.87,4.87,0,0,1,15.75,16a.59.59,0,0,1,.82.16A.58.58,0,0,1,16.67,16.5Z"/><path class="cls-16" d="M19,21.5a.69.69,0,0,1-.05.24.59.59,0,0,1-.78.3,6.71,6.71,0,0,1-1.43-.82,6,6,0,0,0-1.22-.69A.59.59,0,1,1,16,19.45a7.26,7.26,0,0,1,1.43.81,5.73,5.73,0,0,0,1.22.7A.58.58,0,0,1,19,21.5Z"/><path class="cls-17" d="M21.76,23.68a.55.55,0,0,1-.09.3.59.59,0,0,1-.81.2,11.23,11.23,0,0,0-1-.56A10.53,10.53,0,0,1,18.69,23a.59.59,0,0,1-.2-.81.6.6,0,0,1,.81-.2c.51.31.77.43,1,.57a12.15,12.15,0,0,1,1.13.61A.59.59,0,0,1,21.76,23.68Z"/><path class="cls-17" d="M23.26,20.88a.61.61,0,0,1-.28.5,2.74,2.74,0,0,1-1.64.45,1.62,1.62,0,0,0-1,.26.58.58,0,0,1-.81-.18.59.59,0,0,1,.18-.81,2.77,2.77,0,0,1,1.65-.45,1.55,1.55,0,0,0,1-.27.59.59,0,0,1,.81.18A.55.55,0,0,1,23.26,20.88Z"/><path class="cls-16" d="M21.06,18.79a.52.52,0,0,1-.07.27.58.58,0,0,1-.79.25,6.68,6.68,0,0,1-1.11-.7,5.47,5.47,0,0,0-.93-.59A.59.59,0,1,1,18.7,17a7.42,7.42,0,0,1,1.11.7,5.38,5.38,0,0,0,.93.6A.57.57,0,0,1,21.06,18.79Z"/><path class="cls-16" d="M22.39,15.19a.59.59,0,0,1-.46.58,5.69,5.69,0,0,0-1.37.45,7.28,7.28,0,0,1-1.59.52.59.59,0,0,1-.7-.45.59.59,0,0,1,.44-.7,6,6,0,0,0,1.37-.45,7.41,7.41,0,0,1,1.6-.52.59.59,0,0,1,.7.44A.62.62,0,0,1,22.39,15.19Z"/><path class="cls-16" d="M24.15,16.42a.6.6,0,0,1-.27.5c-.45.29-.7.43-.93.56s-.44.25-.88.53a.59.59,0,0,1-.63-1c.46-.3.7-.43.93-.56s.45-.26.88-.54a.59.59,0,0,1,.81.18A.54.54,0,0,1,24.15,16.42Z"/><path class="cls-16" d="M26.63,18.26a.59.59,0,0,1-.55.59,2.07,2.07,0,0,0-1,.28,3.34,3.34,0,0,1-1.41.39.58.58,0,0,1-.63-.54.59.59,0,0,1,.55-.63,2.19,2.19,0,0,0,1-.28A3.34,3.34,0,0,1,26,17.68a.58.58,0,0,1,.63.54Z"/><path class="cls-17" d="M26.63,22.5a.58.58,0,0,1-.37.55.6.6,0,0,1-.77-.32,2.12,2.12,0,0,0-.52-.8,3.43,3.43,0,0,1-.75-1.16.59.59,0,1,1,1.09-.45,2.21,2.21,0,0,0,.52.8,3.43,3.43,0,0,1,.75,1.16A.59.59,0,0,1,26.63,22.5Z"/><path class="cls-17" d="M24.48,23.07a.47.47,0,0,1,0,.16,5.35,5.35,0,0,1-.37,1,4.68,4.68,0,0,0-.31.85.59.59,0,0,1-1.13-.31,5.35,5.35,0,0,1,.37-1,6.07,6.07,0,0,0,.3-.86.61.61,0,0,1,.73-.41A.59.59,0,0,1,24.48,23.07Z"/><path class="cls-18" d="M22.71,26.23a.61.61,0,0,1-.22.46,14.37,14.37,0,0,1-1.17.87c-.29.21-.56.4-1.09.83a.6.6,0,0,1-.83-.09.59.59,0,0,1,.08-.83c.57-.46.88-.67,1.17-.87s.56-.39,1.1-.83a.6.6,0,0,1,.83.09A.64.64,0,0,1,22.71,26.23Z"/><path class="cls-18" d="M20.31,29.77a.59.59,0,0,1-.18.42.58.58,0,0,1-.83,0,1.64,1.64,0,0,0-.85-.49,2.74,2.74,0,0,1-1.37-.8.59.59,0,0,1,.85-.82,1.54,1.54,0,0,0,.85.49,2.78,2.78,0,0,1,1.37.81A.57.57,0,0,1,20.31,29.77Z"/><path class="cls-18" d="M18.2,32.93a.58.58,0,0,1-.59.59.59.59,0,0,1-.59-.59,1.5,1.5,0,0,0-.21-.81,2.57,2.57,0,0,1-.35-1.36.59.59,0,0,1,.59-.59.6.6,0,0,1,.59.59,1.57,1.57,0,0,0,.21.82A2.53,2.53,0,0,1,18.2,32.93Z"/><path class="cls-18" d="M22.17,30.68a.6.6,0,0,1-.28.51,2.6,2.6,0,0,0-.85.75,3.6,3.6,0,0,1-1.16,1,.59.59,0,0,1-.61-1,2.6,2.6,0,0,0,.85-.75,3.6,3.6,0,0,1,1.16-1,.59.59,0,0,1,.81.2A.64.64,0,0,1,22.17,30.68Z"/><path class="cls-18" d="M21.65,33.83a3.07,3.07,0,0,1-.16,1,1.79,1.79,0,0,0-.1.83.59.59,0,0,1-1.18.09,3,3,0,0,1,.15-1.27,1.93,1.93,0,0,0,.1-.83A.58.58,0,0,1,21,33a.57.57,0,0,1,.63.54C21.64,33.64,21.65,33.74,21.65,33.83Z"/><path class="cls-18" d="M19.17,35.26a.57.57,0,0,1-.13.36c-.35.46-.54.69-.72.91s-.36.43-.7.88a.59.59,0,0,1-.83.11.61.61,0,0,1-.11-.83c.36-.46.55-.69.73-.91s.36-.43.7-.88a.59.59,0,0,1,1.06.36Z"/><path class="cls-18" d="M19.22,39.21a.6.6,0,0,1-.53.59,9.35,9.35,0,0,0-1.26.19c-.33.06-.68.13-1.36.21A.59.59,0,0,1,15.94,39a9.35,9.35,0,0,0,1.26-.19c.33-.06.68-.13,1.36-.2a.58.58,0,0,1,.65.52S19.22,39.19,19.22,39.21Z"/><path class="cls-18" d="M21.76,39.35a.59.59,0,0,1-1,.39A4.53,4.53,0,0,1,20,38.57a3.34,3.34,0,0,0-.59-.89.59.59,0,1,1,.87-.79A4,4,0,0,1,21,38.06a3.73,3.73,0,0,0,.6.9A.58.58,0,0,1,21.76,39.35Z"/><path class="cls-16" d="M24.14,38.35a.59.59,0,0,1-1.18,0c0-.73-.08-1.09-.12-1.47s-.08-.75-.13-1.51a.59.59,0,1,1,1.17-.08c.05.74.09,1.09.13,1.47s.08.76.13,1.51Z"/><path class="cls-17" d="M24.44,32.43a.6.6,0,0,1-.24.48,1.51,1.51,0,0,0-.48.52,2.63,2.63,0,0,1-.79.86.58.58,0,0,1-.82-.14.59.59,0,0,1,.13-.82,1.6,1.6,0,0,0,.48-.52,2.63,2.63,0,0,1,.79-.86.59.59,0,0,1,.82.13A.58.58,0,0,1,24.44,32.43Z"/><path class="cls-17" d="M24.5,30.13a.62.62,0,0,1-.12.36.59.59,0,0,1-.83.1,9.87,9.87,0,0,1-.92-.79c-.21-.19-.4-.37-.84-.71a.59.59,0,1,1,.73-.93,9.87,9.87,0,0,1,.92.79,10.81,10.81,0,0,0,.83.71A.6.6,0,0,1,24.5,30.13Z"/><path class="cls-17" d="M27.09,26.44a.58.58,0,0,1-.15.39,7.45,7.45,0,0,0-.69.88,8.74,8.74,0,0,1-.78,1,.59.59,0,1,1-.88-.78,8.72,8.72,0,0,0,.69-.88,8.36,8.36,0,0,1,.78-1,.59.59,0,0,1,.83,0A.57.57,0,0,1,27.09,26.44Z"/><path class="cls-17" d="M29.81,23.51a.59.59,0,0,1-.41.56,4.32,4.32,0,0,1-1.65.22,2.88,2.88,0,0,0-1.24.16.59.59,0,1,1-.36-1.12,4.32,4.32,0,0,1,1.65-.22A2.88,2.88,0,0,0,29,23a.59.59,0,0,1,.74.38A.57.57,0,0,1,29.81,23.51Z"/><path class="cls-16" d="M28.71,19.13a.58.58,0,0,1-.11.35c-.32.43-.45.64-.6.88s-.31.48-.65.94a.59.59,0,0,1-.82.13.6.6,0,0,1-.13-.83,8.78,8.78,0,0,0,.6-.88c.15-.23.31-.48.65-.94a.59.59,0,0,1,.82-.13A.6.6,0,0,1,28.71,19.13Z"/><path class="cls-16" d="M28.46,17.69a.55.55,0,0,1-.1.32.58.58,0,0,1-.81.17l-1.06-.68-1.07-.69a.59.59,0,0,1-.16-.82.58.58,0,0,1,.81-.17l1.06.69,1.06.69A.57.57,0,0,1,28.46,17.69Z"/><path class="cls-16" d="M26.87,14a.59.59,0,0,1-.35.54,4.52,4.52,0,0,0-1,.57,5.56,5.56,0,0,1-1.22.7.59.59,0,0,1-.47-1.08,5.06,5.06,0,0,0,1-.57,5.43,5.43,0,0,1,1.21-.7.59.59,0,0,1,.78.3A.69.69,0,0,1,26.87,14Z"/><path class="cls-16" d="M31,16.61a.57.57,0,0,1-.27.49.58.58,0,0,1-.81-.17,3.09,3.09,0,0,0-.78-.84,4.12,4.12,0,0,1-1-1.12.59.59,0,0,1,1-.64,3.08,3.08,0,0,0,.77.84,4.2,4.2,0,0,1,1,1.11A.58.58,0,0,1,31,16.61Z"/><path class="cls-16" d="M32.51,14.7a.62.62,0,0,1-.09.32.6.6,0,0,1-.81.18,6.49,6.49,0,0,1-1-.73,6.21,6.21,0,0,0-.81-.62.58.58,0,0,1-.18-.81.6.6,0,0,1,.81-.18,6.49,6.49,0,0,1,1,.73,6.21,6.21,0,0,0,.81.62A.57.57,0,0,1,32.51,14.7Z"/><path class="cls-16" d="M35.34,17.58a.48.48,0,0,1,0,.2.57.57,0,0,1-.75.35l-1-.35-1-.35a.57.57,0,0,1-.35-.75.58.58,0,0,1,.75-.36l1,.35L35,17A.58.58,0,0,1,35.34,17.58Z"/><path class="cls-16" d="M35.44,13.54a.59.59,0,0,1-.14.38,8.08,8.08,0,0,0-.59.77c-.15.21-.31.43-.65.84a.59.59,0,1,1-.9-.76c.31-.37.44-.56.59-.76a10.38,10.38,0,0,1,.65-.85.59.59,0,0,1,1,.38Z"/><path class="cls-16" d="M32.64,18.73a.6.6,0,0,1-.36.55,1.19,1.19,0,0,0-.62.56,2.31,2.31,0,0,1-1.14,1,.59.59,0,0,1-.47-1.08,1.27,1.27,0,0,0,.63-.57,2.36,2.36,0,0,1,1.14-1,.59.59,0,0,1,.77.31A.68.68,0,0,1,32.64,18.73Z"/><path class="cls-16" d="M32.78,22.06v.05a.59.59,0,0,1-.64.54A2.36,2.36,0,0,1,30.7,22a1.24,1.24,0,0,0-.8-.36A.59.59,0,0,1,30,20.51a2.37,2.37,0,0,1,1.45.61,1.2,1.2,0,0,0,.8.36A.59.59,0,0,1,32.78,22.06Z"/><path class="cls-16" d="M35,22.26a.59.59,0,0,1-1.07.35,2.6,2.6,0,0,0-.55-.58,3.7,3.7,0,0,1-.77-.8.59.59,0,0,1,.13-.82.58.58,0,0,1,.83.13,2.51,2.51,0,0,0,.55.57,4,4,0,0,1,.77.8A.66.66,0,0,1,35,22.26Z"/><path class="cls-16" d="M32.23,23.59a.61.61,0,0,1-.22.46,5.45,5.45,0,0,0-.95,1,6.45,6.45,0,0,1-1.14,1.18.59.59,0,1,1-.74-.91,5.12,5.12,0,0,0,.95-1,5.73,5.73,0,0,1,1.13-1.17.6.6,0,0,1,1,.45Z"/><path class="cls-17" d="M30.36,28a.6.6,0,0,1-.23.47.59.59,0,0,1-.82-.1,2.74,2.74,0,0,0-1-.84A3.78,3.78,0,0,1,27,26.41a.59.59,0,0,1,.93-.72,2.7,2.7,0,0,0,1,.83,4,4,0,0,1,1.35,1.14A.62.62,0,0,1,30.36,28Z"/><path class="cls-16" d="M36.79,15.36s0,.06,0,.09a4.89,4.89,0,0,0-.06,1.14A5.36,5.36,0,0,1,36.66,18a.59.59,0,0,1-1.17-.18,4.33,4.33,0,0,0,.06-1.13,6,6,0,0,1,.06-1.39.59.59,0,0,1,1.18.09Z"/><path class="cls-16" d="M40.46,16.65a.59.59,0,0,1-1.09.32c-.38-.58-.58-.86-.79-1.15s-.42-.59-.82-1.19a.6.6,0,0,1,.18-.82.58.58,0,0,1,.81.17c.38.58.58.86.79,1.15s.42.59.82,1.19A.58.58,0,0,1,40.46,16.65Z"/><path class="cls-16" d="M39.58,18.43a.59.59,0,0,1-.29.5c-.61.37-.93.53-1.24.69s-.6.3-1.17.64a.59.59,0,1,1-.61-1c.61-.36.93-.53,1.24-.68s.6-.31,1.17-.65a.6.6,0,0,1,.9.51Z"/><path class="cls-16" d="M39.05,22.58a.6.6,0,0,1-.11.34.58.58,0,0,1-.82.14A2.41,2.41,0,0,0,37,22.6a3.56,3.56,0,0,1-1.53-.66.58.58,0,0,1-.14-.82.59.59,0,0,1,.82-.14,2.57,2.57,0,0,0,1.09.47,3.52,3.52,0,0,1,1.53.65A.61.61,0,0,1,39.05,22.58Z"/><path class="cls-16" d="M42.3,21.06a.58.58,0,0,1-.5.58,4.41,4.41,0,0,1-1.51,0,3.5,3.5,0,0,0-1.17,0,.59.59,0,0,1-.18-1.16,4.41,4.41,0,0,1,1.51,0,3.5,3.5,0,0,0,1.17,0,.59.59,0,0,1,.67.49S42.3,21,42.3,21.06Z"/><path class="cls-16" d="M43.2,17.73a.57.57,0,0,1-.24.47,7.62,7.62,0,0,0-.82.69,7.16,7.16,0,0,1-.93.79.59.59,0,0,1-.7-.95,6.6,6.6,0,0,0,.82-.69,8.1,8.1,0,0,1,.93-.78.58.58,0,0,1,.82.12A.57.57,0,0,1,43.2,17.73Z"/><path class="cls-16" d="M45.18,19.52a.59.59,0,0,1-.55.58A3.65,3.65,0,0,1,43.15,20a2.8,2.8,0,0,0-1.09-.11A.59.59,0,0,1,42,18.67a3.68,3.68,0,0,1,1.49.15,2.74,2.74,0,0,0,1.08.11.58.58,0,0,1,.63.54S45.18,19.5,45.18,19.52Z"/><path class="cls-16" d="M44.68,21.52a.59.59,0,0,1-.14.38,3.93,3.93,0,0,1-1.07.91,2.78,2.78,0,0,0-.79.66.59.59,0,1,1-.9-.76,3.93,3.93,0,0,1,1.07-.91,2.78,2.78,0,0,0,.79-.66.59.59,0,0,1,1,.38Z"/><path class="cls-16" d="M41.57,25.25a.59.59,0,0,1-.29.51.6.6,0,0,1-.81-.21c-.29-.5-.44-.74-.61-1s-.33-.51-.64-1a.59.59,0,0,1,1-.59c.29.5.44.74.61,1s.33.52.64,1A.56.56,0,0,1,41.57,25.25Z"/><path class="cls-18" d="M39,24.38a.59.59,0,0,1-.58.59,1.15,1.15,0,0,0-.69.24,2.27,2.27,0,0,1-1.33.44.6.6,0,0,1-.6-.58.59.59,0,0,1,.59-.6,1.15,1.15,0,0,0,.69-.24,2.24,2.24,0,0,1,1.33-.44.59.59,0,0,1,.59.58Z"/><path class="cls-18" d="M35.9,25.35a.54.54,0,0,1-.14.38.59.59,0,0,1-.83.07,2.09,2.09,0,0,0-.81-.45,3.3,3.3,0,0,1-1.19-.66.59.59,0,0,1,.76-.9,2.09,2.09,0,0,0,.81.45,3.08,3.08,0,0,1,1.19.66A.58.58,0,0,1,35.9,25.35Z"/><path class="cls-18" d="M34.58,28.05a.57.57,0,0,1-.22.46.59.59,0,0,1-.83-.1,1.61,1.61,0,0,0-.91-.61,2.89,2.89,0,0,1-1.43-1,.59.59,0,0,1,.93-.73,1.7,1.7,0,0,0,.9.62,2.75,2.75,0,0,1,1.44,1A.58.58,0,0,1,34.58,28.05Z"/><path class="cls-18" d="M38.7,28.88a.52.52,0,0,1,0,.21.59.59,0,0,1-.76.34,11.31,11.31,0,0,1-1.36-.6c-.32-.15-.62-.3-1.25-.54a.59.59,0,1,1,.41-1.11c.7.27,1,.44,1.37.6a10.08,10.08,0,0,0,1.25.55A.59.59,0,0,1,38.7,28.88Z"/><path class="cls-18" d="M41,28.45a.57.57,0,0,1-.2.44.59.59,0,0,1-.83,0,2.16,2.16,0,0,0-.95-.66,3.27,3.27,0,0,1-1.38-1,.58.58,0,0,1,0-.83.59.59,0,0,1,.83.05,2.13,2.13,0,0,0,.95.65,3.47,3.47,0,0,1,1.38,1A.58.58,0,0,1,41,28.45Z"/><path class="cls-16" d="M43.16,27.18a.59.59,0,0,1,0,.14.6.6,0,0,1-.71.44l-1.23-.31L40,27.15a.59.59,0,0,1-.43-.71.6.6,0,0,1,.71-.44l1.23.31,1.22.3A.59.59,0,0,1,43.16,27.18Z"/><path class="cls-16" d="M46.06,24.39a.59.59,0,0,1-.25.48,3,3,0,0,1-1.79.57,1.92,1.92,0,0,0-1.19.37.59.59,0,0,1-.67-1,3,3,0,0,1,1.8-.57,1.89,1.89,0,0,0,1.18-.37.58.58,0,0,1,.92.49Z"/><path class="cls-16" d="M47.87,19.87a.58.58,0,0,1-.1.33,7.15,7.15,0,0,0-.54,1,7.41,7.41,0,0,1-.62,1.11.59.59,0,0,1-.82.16.58.58,0,0,1-.16-.81,6.65,6.65,0,0,0,.54-1,7,7,0,0,1,.62-1.1.59.59,0,0,1,1.08.32Z"/><path class="cls-16" d="M48.6,24.89a.6.6,0,0,1-.21.45.59.59,0,0,1-.83-.07A1.74,1.74,0,0,1,47.15,24c0-.24,0-.33-.12-.48a.6.6,0,0,1,.07-.84.59.59,0,0,1,.83.07,1.73,1.73,0,0,1,.4,1.27.61.61,0,0,0,.13.49A.59.59,0,0,1,48.6,24.89Z"/><path class="cls-16" d="M51.71,23.41a.59.59,0,0,1-1,.41,3.75,3.75,0,0,0-.78-.66,5.59,5.59,0,0,1-1-.84.59.59,0,1,1,.86-.8,4.1,4.1,0,0,0,.78.66,5.42,5.42,0,0,1,1,.83A.58.58,0,0,1,51.71,23.41Z"/><path class="cls-16" d="M52.87,26.09a.58.58,0,0,1-.27.5,3.37,3.37,0,0,1-1.62.58,2.15,2.15,0,0,0-1.12.39.6.6,0,0,1-.82-.17.58.58,0,0,1,.17-.81A3.27,3.27,0,0,1,50.83,26,2.24,2.24,0,0,0,52,25.6a.58.58,0,0,1,.81.17A.55.55,0,0,1,52.87,26.09Z"/><path class="cls-16" d="M48.08,27.91a.58.58,0,0,1-.23.46.6.6,0,0,1-.83-.1,3.14,3.14,0,0,1-.64-1.42,2,2,0,0,0-.42-1,.59.59,0,1,1,.93-.72,3.09,3.09,0,0,1,.64,1.42,2.07,2.07,0,0,0,.42.95A.53.53,0,0,1,48.08,27.91Z"/><path class="cls-16" d="M46.35,28.67a.61.61,0,0,1-.16.41.6.6,0,0,1-.84,0l-.84-.81-.85-.82a.59.59,0,0,1,0-.83.61.61,0,0,1,.84,0l.85.82.84.81A.6.6,0,0,1,46.35,28.67Z"/><path class="cls-17" d="M47.55,30.8a.59.59,0,0,1-.58.59,7,7,0,0,1-1.27-.06,5.2,5.2,0,0,0-1.09-.06.59.59,0,0,1,0-1.18,6.67,6.67,0,0,1,1.27.07,6.23,6.23,0,0,0,1.09.05.58.58,0,0,1,.6.58Z"/><path class="cls-17" d="M45.85,32.7a.6.6,0,0,1-1,.45,5.47,5.47,0,0,0-.7-.52,7.68,7.68,0,0,1-.8-.6.59.59,0,1,1,.75-.91c.34.28.52.4.7.53a8.18,8.18,0,0,1,.81.59A.6.6,0,0,1,45.85,32.7Z"/><path class="cls-16" d="M49.76,29a3.45,3.45,0,0,1-.19,1.2,2.39,2.39,0,0,0-.13.83.59.59,0,0,1-.59.59.58.58,0,0,1-.59-.59,3.38,3.38,0,0,1,.19-1.19,2.46,2.46,0,0,0,.13-.84.6.6,0,0,1,.59-.59A.59.59,0,0,1,49.76,29Z"/><path class="cls-16" d="M53.89,29.69a.58.58,0,0,1-1,.42,10,10,0,0,1-.8-.85,6.84,6.84,0,0,0-.71-.76.59.59,0,0,1,0-.83.58.58,0,0,1,.83,0,8.13,8.13,0,0,1,.79.85,9.61,9.61,0,0,0,.71.76A.6.6,0,0,1,53.89,29.69Z"/><path class="cls-16" d="M52.06,32.59c0,.22,0,.47,0,.8a.59.59,0,1,1-1.18-.08,8.32,8.32,0,0,0,0-1.32,10,10,0,0,1,0-1.47.6.6,0,0,1,.63-.55.59.59,0,0,1,.55.63,8.33,8.33,0,0,0,0,1.32A6.45,6.45,0,0,1,52.06,32.59Z"/><path class="cls-16" d="M56.2,30.58a.59.59,0,0,1-.42.57,2.54,2.54,0,0,0-.86.41,3.84,3.84,0,0,1-1.18.55.58.58,0,0,1-.73-.39A.59.59,0,0,1,53.4,31a2.61,2.61,0,0,0,.87-.41A3.84,3.84,0,0,1,55.45,30a.59.59,0,0,1,.73.39A.52.52,0,0,1,56.2,30.58Z"/><path class="cls-16" d="M55.62,33.36v.1a6.28,6.28,0,0,0-.11.91,9,9,0,0,1-.13,1,.59.59,0,1,1-1.16-.19c.07-.46.09-.68.11-.92s0-.51.12-1a.6.6,0,0,1,.68-.48A.59.59,0,0,1,55.62,33.36Z"/><path class="cls-16" d="M51.69,35a.59.59,0,0,1-.45.57l-.76.19c-.2,0-.38.08-.74.18a.59.59,0,1,1-.3-1.14l.77-.19.74-.18a.6.6,0,0,1,.72.42A.77.77,0,0,1,51.69,35Z"/><path class="cls-17" d="M48.59,32.93a.6.6,0,0,1-.27.5,2.92,2.92,0,0,1-1.08.46,1.89,1.89,0,0,0-.72.31.59.59,0,0,1-.64-1A2.85,2.85,0,0,1,47,32.75a2.06,2.06,0,0,0,.72-.31.58.58,0,0,1,.81.17A.55.55,0,0,1,48.59,32.93Z"/><path class="cls-17" d="M49.18,37.2a.65.65,0,0,1-.11.34.59.59,0,0,1-.82.14,2.76,2.76,0,0,1-.9-1,1.58,1.58,0,0,0-.54-.62.6.6,0,0,1-.15-.83.61.61,0,0,1,.83-.14,2.79,2.79,0,0,1,.89,1,1.55,1.55,0,0,0,.55.63A.58.58,0,0,1,49.18,37.2Z"/><path class="cls-17" d="M45.08,34.68a2.87,2.87,0,0,1-.11.72,1.3,1.3,0,0,0,0,.85.58.58,0,0,1-.37.75.58.58,0,0,1-.74-.37,2.31,2.31,0,0,1,0-1.52,1.24,1.24,0,0,0,0-.85.59.59,0,0,1,1.12-.38A2.59,2.59,0,0,1,45.08,34.68Z"/><path class="cls-18" d="M42.59,33.42a.58.58,0,0,1-.13.37.59.59,0,0,1-.82.1,2.75,2.75,0,0,0-.85-.47,3.64,3.64,0,0,1-1.16-.64.59.59,0,0,1,.73-.93,2.72,2.72,0,0,0,.84.47,3.85,3.85,0,0,1,1.16.64A.59.59,0,0,1,42.59,33.42Z"/><path class="cls-18" d="M43.11,30.17a.59.59,0,0,1-.44.57,9.58,9.58,0,0,1-1.57.3,7.43,7.43,0,0,0-1.41.26.6.6,0,0,1-.72-.42.59.59,0,0,1,.42-.72,9.47,9.47,0,0,1,1.58-.3,7.36,7.36,0,0,0,1.4-.26.6.6,0,0,1,.72.42A.77.77,0,0,1,43.11,30.17Z"/><path class="cls-18" d="M39.31,32.57a.59.59,0,0,1-.29.51.6.6,0,0,1-.81-.21,2.67,2.67,0,0,1-.38-1.4,1.4,1.4,0,0,0-.22-.83.59.59,0,1,1,1-.6,2.67,2.67,0,0,1,.38,1.4,1.4,1.4,0,0,0,.22.83A.54.54,0,0,1,39.31,32.57Z"/><path class="cls-18" d="M36.69,30.46a.6.6,0,0,1-.12.36,2.88,2.88,0,0,1-.92.79,1.7,1.7,0,0,0-.59.5.58.58,0,0,1-.82.1.59.59,0,0,1-.1-.83,2.78,2.78,0,0,1,.92-.79,1.73,1.73,0,0,0,.58-.49.58.58,0,0,1,1,.36Z"/><path class="cls-16" d="M33.25,32.21a.58.58,0,0,1-.39.55.59.59,0,0,1-.75-.36A4.27,4.27,0,0,1,31.83,31a3.4,3.4,0,0,0-.22-1.08.59.59,0,0,1,.36-.75.58.58,0,0,1,.75.36A4.27,4.27,0,0,1,33,30.93,3.4,3.4,0,0,0,33.22,32,.64.64,0,0,1,33.25,32.21Z"/><path class="cls-17" d="M37.89,34a.54.54,0,0,1-.07.27.58.58,0,0,1-.79.25,9.14,9.14,0,0,0-1-.45,10.7,10.7,0,0,1-1.12-.5.58.58,0,0,1-.25-.79.59.59,0,0,1,.79-.26,7.51,7.51,0,0,0,1,.45,10.7,10.7,0,0,1,1.12.5A.6.6,0,0,1,37.89,34Z"/><path class="cls-17" d="M40,35a.58.58,0,0,1-.34.53,2.31,2.31,0,0,0-.77.56,3.17,3.17,0,0,1-1.12.82.59.59,0,1,1-.5-1.07,2.18,2.18,0,0,0,.77-.56,3.23,3.23,0,0,1,1.13-.82.59.59,0,0,1,.78.29A.53.53,0,0,1,40,35Z"/><path class="cls-17" d="M41.12,38.66a.54.54,0,0,1-.07.27.58.58,0,0,1-.79.25,6,6,0,0,1-1-.68,4.11,4.11,0,0,0-.86-.56.6.6,0,0,1-.24-.8.58.58,0,0,1,.8-.24,5.71,5.71,0,0,1,1,.67,4.11,4.11,0,0,0,.86.56A.59.59,0,0,1,41.12,38.66Z"/><path class="cls-17" d="M43.63,36.5a.59.59,0,0,1-1,.45l-.81-.64-.81-.64a.6.6,0,0,1-.09-.83.58.58,0,0,1,.83-.09l.8.64.81.64A.59.59,0,0,1,43.63,36.5Z"/><path class="cls-17" d="M47.52,38.13a.6.6,0,0,1-.53.59,9.09,9.09,0,0,1-1.38.05,8,8,0,0,0-1.22,0,.58.58,0,0,1-.64-.52.58.58,0,0,1,.52-.65,9.09,9.09,0,0,1,1.38,0,7.08,7.08,0,0,0,1.22-.05.6.6,0,0,1,.65.53Z"/><path class="cls-17" d="M49.32,39.44A2.53,2.53,0,0,1,49,40.75a1.43,1.43,0,0,0-.2.77.59.59,0,0,1-.59.59.58.58,0,0,1-.59-.59,2.54,2.54,0,0,1,.33-1.31,1.33,1.33,0,0,0,.21-.77.58.58,0,0,1,.59-.59A.59.59,0,0,1,49.32,39.44Z"/><path class="cls-16" d="M52.44,38.77a.6.6,0,0,1-.51.59c-.51.06-.75.1-1,.15l-1.05.15a.58.58,0,0,1-.66-.5.59.59,0,0,1,.51-.66l1-.16,1-.15a.58.58,0,0,1,.66.5A.25.25,0,0,1,52.44,38.77Z"/><path class="cls-16" d="M53.33,35.5a.6.6,0,0,1-.08.29,4.53,4.53,0,0,1-.81,1.08,3.75,3.75,0,0,0-.63.84.59.59,0,1,1-1-.58,5.12,5.12,0,0,1,.8-1.08,3.23,3.23,0,0,0,.63-.84.59.59,0,0,1,1.11.29Z"/><path class="cls-16" d="M56.24,39.33a.57.57,0,0,1-.13.36.58.58,0,0,1-.82.1,4.55,4.55,0,0,0-1.06-.65,5.65,5.65,0,0,1-1.28-.8.58.58,0,0,1-.1-.82.59.59,0,0,1,.83-.1,4.34,4.34,0,0,0,1,.65,5.74,5.74,0,0,1,1.29.79A.62.62,0,0,1,56.24,39.33Z"/><path class="cls-16" d="M57.58,36.24h0a7.58,7.58,0,0,1-.08,1.08,6.42,6.42,0,0,0-.06.94.61.61,0,0,1-.6.59.59.59,0,0,1-.58-.6,9.88,9.88,0,0,1,.07-1.08,7.77,7.77,0,0,0,.07-1,.59.59,0,0,1,1.18,0Z"/><path class="cls-16" d="M59.67,41a.6.6,0,0,1-.56.59,6.94,6.94,0,0,1-1.73-.08,6.21,6.21,0,0,0-1.49-.07.59.59,0,0,1-.62-.55.58.58,0,0,1,.55-.62,6.45,6.45,0,0,1,1.73.08,6.33,6.33,0,0,0,1.49.06.59.59,0,0,1,.62.56Z"/><path class="cls-16" d="M59.27,45a.58.58,0,0,1-.37.55.6.6,0,0,1-.77-.34l-.8-2.11a.59.59,0,0,1,1.1-.42l.81,2.11A.76.76,0,0,1,59.27,45Z"/><path class="cls-16" d="M57.25,45.45a.6.6,0,0,1-.59.59l-1,0c-.26,0-.52,0-1,0a.59.59,0,0,1-.59-.59.58.58,0,0,1,.59-.59c.49,0,.73,0,1,0l1,0A.59.59,0,0,1,57.25,45.45Z"/><path class="cls-16" d="M55.36,42.67a.56.56,0,0,1-.14.38.58.58,0,0,1-.83.06,10.85,10.85,0,0,1-.92-.87,10.16,10.16,0,0,0-.84-.8.59.59,0,1,1,.77-.89,9.23,9.23,0,0,1,.92.88,10.46,10.46,0,0,0,.84.79A.59.59,0,0,1,55.36,42.67Z"/><path class="cls-16" d="M53.38,43.62a.56.56,0,0,1-.05.25,3.49,3.49,0,0,1-.8,1.13,2.66,2.66,0,0,0-.57.8.58.58,0,0,1-.78.29.59.59,0,0,1-.28-.78,3.74,3.74,0,0,1,.79-1.14,2.16,2.16,0,0,0,.57-.8.59.59,0,0,1,.78-.28A.58.58,0,0,1,53.38,43.62Z"/><path class="cls-16" d="M51.16,42.36a.6.6,0,0,1-.18.43,2.13,2.13,0,0,0-.47.59,3.28,3.28,0,0,1-.68.87.59.59,0,0,1-.83,0,.6.6,0,0,1,0-.84,2.06,2.06,0,0,0,.46-.59,3.12,3.12,0,0,1,.68-.86A.59.59,0,0,1,51,42,.55.55,0,0,1,51.16,42.36Z"/><path class="cls-16" d="M51,47a.57.57,0,0,1-.19.43.6.6,0,0,1-.83,0c-.45-.48-.69-.72-.92-.95s-.47-.47-.93-1a.59.59,0,0,1,.86-.81c.45.48.69.72.91,1s.47.47.93,1A.58.58,0,0,1,51,47Z"/><path class="cls-16" d="M53.43,48a.61.61,0,0,1-.25.48,3.52,3.52,0,0,0-.85.82,5.17,5.17,0,0,1-1.08,1,.59.59,0,1,1-.69-1,3.52,3.52,0,0,0,.85-.82,5.17,5.17,0,0,1,1.08-1,.57.57,0,0,1,.82.13A.54.54,0,0,1,53.43,48Z"/><path class="cls-16" d="M57.66,48.16a.6.6,0,0,1-.11.34.58.58,0,0,1-.82.14c-.43-.31-.66-.44-.89-.58s-.5-.3-1-.63a.6.6,0,0,1-.14-.82.59.59,0,0,1,.83-.14,9.42,9.42,0,0,0,.89.58c.24.15.49.3,1,.63A.59.59,0,0,1,57.66,48.16Z"/><path class="cls-16" d="M55.59,50.06a.58.58,0,0,1-.52.58,2,2,0,0,1-1.24-.25.85.85,0,0,0-.57-.12.59.59,0,0,1-.14-1.18,2.05,2.05,0,0,1,1.24.25.83.83,0,0,0,.58.13.59.59,0,0,1,.65.52Z"/><path class="cls-16" d="M54.62,52.86a.6.6,0,0,1-.11.34.59.59,0,0,1-.82.14,5.05,5.05,0,0,0-.8-.49,5.4,5.4,0,0,1-1-.58.59.59,0,1,1,.69-1,5.13,5.13,0,0,0,.8.48,5.69,5.69,0,0,1,1,.58A.58.58,0,0,1,54.62,52.86Z"/><path class="cls-16" d="M57.73,50.36a.6.6,0,0,1-.24.48,1,1,0,0,0-.43.63,2.27,2.27,0,0,1-.85,1.19.59.59,0,0,1-.7-.95,1.13,1.13,0,0,0,.44-.64,2.2,2.2,0,0,1,.84-1.18.59.59,0,0,1,.83.12A.58.58,0,0,1,57.73,50.36Z"/><path class="cls-16" d="M55.93,56.64a.6.6,0,0,1-.48.58.58.58,0,0,1-.69-.46,3,3,0,0,0-.36-1,4.16,4.16,0,0,1-.47-1.31.58.58,0,0,1,.46-.69.6.6,0,0,1,.7.46,3.23,3.23,0,0,0,.35,1,3.92,3.92,0,0,1,.47,1.31A.36.36,0,0,1,55.93,56.64Z"/><path class="cls-16" d="M52.84,55.4a.57.57,0,0,1-.06.25.59.59,0,0,1-.78.28,5.64,5.64,0,0,1-1.27-.8,4.09,4.09,0,0,0-1-.65.59.59,0,0,1,.5-1.07,5.48,5.48,0,0,1,1.27.81,3.93,3.93,0,0,0,1,.64A.6.6,0,0,1,52.84,55.4Z"/><path class="cls-16" d="M53.78,58.08a.59.59,0,0,1-1.08.33,3.79,3.79,0,0,0-.51-.64,4.2,4.2,0,0,1-.66-.82.59.59,0,0,1,1-.64,3.23,3.23,0,0,0,.52.63,5.12,5.12,0,0,1,.66.82A.62.62,0,0,1,53.78,58.08Z"/><path class="cls-16" d="M51.31,57.22a.61.61,0,0,1-.19.43.6.6,0,0,1-.84,0,.75.75,0,0,0-.59-.25,1.94,1.94,0,0,1-1.31-.62.59.59,0,0,1,0-.83.6.6,0,0,1,.84,0,.77.77,0,0,0,.59.25,1.86,1.86,0,0,1,1.31.62A.59.59,0,0,1,51.31,57.22Z"/><path class="cls-16" d="M52.44,59.6a.58.58,0,0,1-.25.48c-.54.39-.79.6-1.06.82a14.08,14.08,0,0,1-1.13.87.59.59,0,1,1-.69-1c.55-.39.8-.6,1.07-.82s.55-.46,1.12-.87a.59.59,0,0,1,.94.47Z"/><path class="cls-16" d="M51.27,51.58a.57.57,0,0,1-.21.45.6.6,0,0,1-.83-.06,4.83,4.83,0,0,0-.83-.8,6,6,0,0,1-1-1,.59.59,0,0,1,.07-.83.58.58,0,0,1,.83.06,4.34,4.34,0,0,0,.83.79,6.67,6.67,0,0,1,1,1A.62.62,0,0,1,51.27,51.58Z"/><path class="cls-18" d="M49,48v.08a.59.59,0,0,1-.67.5c-.57-.08-.85-.13-1.13-.19s-.53-.1-1.06-.17a.59.59,0,0,1-.5-.67.58.58,0,0,1,.66-.5c.57.08.86.13,1.13.19l1.06.18A.58.58,0,0,1,49,48Z"/><path class="cls-18" d="M47.81,43.47a.54.54,0,0,1-.07.27,9.85,9.85,0,0,1-.65,1.08,7.35,7.35,0,0,0-.58,1,.59.59,0,1,1-1-.55,8.69,8.69,0,0,1,.66-1.08,8.66,8.66,0,0,0,.58-1,.58.58,0,0,1,.79-.25A.6.6,0,0,1,47.81,43.47Z"/><path class="cls-17" d="M46.8,42.15a.58.58,0,0,1-.07.28.6.6,0,0,1-.8.24,4.21,4.21,0,0,1-1.33-1.06,3,3,0,0,0-1-.8.58.58,0,0,1-.25-.79.59.59,0,0,1,.8-.25,4.21,4.21,0,0,1,1.33,1.06,3,3,0,0,0,1,.8A.6.6,0,0,1,46.8,42.15Z"/><path class="cls-17" d="M43.3,39.37a.68.68,0,0,1-.07.28,2.78,2.78,0,0,1-1.07,1.13,1.65,1.65,0,0,0-.67.69.58.58,0,0,1-.79.25.6.6,0,0,1-.25-.8,2.78,2.78,0,0,1,1.07-1.13,1.65,1.65,0,0,0,.67-.69.58.58,0,0,1,.79-.25A.6.6,0,0,1,43.3,39.37Z"/><path class="cls-17" d="M41.79,42.34a.57.57,0,0,1-.29.51c-.45.26-.69.38-.92.49s-.43.22-.85.46a.59.59,0,1,1-.59-1c.45-.26.69-.38.91-.49s.44-.22.86-.46a.59.59,0,0,1,.8.22A.51.51,0,0,1,41.79,42.34Z"/><path class="cls-18" d="M45.65,43.65v0a.59.59,0,0,1-.62.56,3,3,0,0,0-.93.07,4.29,4.29,0,0,1-1.24.1.59.59,0,0,1-.55-.62.58.58,0,0,1,.62-.56,3,3,0,0,0,.93-.07,4.26,4.26,0,0,1,1.23-.1A.59.59,0,0,1,45.65,43.65Z"/><path class="cls-18" d="M45,45.82a.56.56,0,0,1-.09.31,4.33,4.33,0,0,0-.49,1,5.71,5.71,0,0,1-.61,1.3.61.61,0,0,1-.82.19.6.6,0,0,1-.18-.82,4,4,0,0,0,.49-1.05,5.69,5.69,0,0,1,.61-1.29.6.6,0,0,1,.82-.19A.61.61,0,0,1,45,45.82Z"/><path class="cls-18" d="M43.53,45.32a.08.08,0,0,1,0,0,.58.58,0,0,1-.62.54,1.57,1.57,0,0,0-.75.12,2.6,2.6,0,0,1-1.25.2A.59.59,0,0,1,41,45a1.34,1.34,0,0,0,.74-.12A2.75,2.75,0,0,1,43,44.73.59.59,0,0,1,43.53,45.32Z"/><path class="cls-17" d="M39.57,40.42a.62.62,0,0,1-.12.36,3.18,3.18,0,0,0-.56,1,4.62,4.62,0,0,1-.73,1.31.59.59,0,1,1-.93-.71,3.47,3.47,0,0,0,.55-1,4.62,4.62,0,0,1,.73-1.31.59.59,0,0,1,1.06.36Z"/><path class="cls-17" d="M37.41,39.28a.59.59,0,0,1-.54.59c-.77.07-1.14.13-1.53.18s-.8.13-1.6.2a.58.58,0,0,1-.64-.54.59.59,0,0,1,.53-.64c.77-.06,1.14-.12,1.53-.18s.8-.12,1.6-.19a.59.59,0,0,1,.64.53A.11.11,0,0,1,37.41,39.28Z"/><path class="cls-17" d="M36.66,37.52a.61.61,0,0,1-.25.48.59.59,0,0,1-.82-.14c-.37-.51-.55-.76-.75-1s-.4-.52-.77-1.05a.58.58,0,0,1,.14-.82.59.59,0,0,1,.82.14c.36.51.55.75.74,1s.4.52.78,1A.6.6,0,0,1,36.66,37.52Z"/><path class="cls-16" d="M33.85,36.8a.59.59,0,0,1-.14.38.94.94,0,0,0-.23.71,2.1,2.1,0,0,1-.5,1.44.59.59,0,1,1-.9-.77.92.92,0,0,0,.22-.71,2.15,2.15,0,0,1,.51-1.43.59.59,0,0,1,1,.38Z"/><path class="cls-17" d="M33.37,33.6a.58.58,0,0,1-.17.42.59.59,0,0,1-.83,0,1.51,1.51,0,0,0-.85-.45,2.59,2.59,0,0,1-1.39-.74A.59.59,0,1,1,31,32a1.56,1.56,0,0,0,.85.44,2.7,2.7,0,0,1,1.39.74A.59.59,0,0,1,33.37,33.6Z"/><path class="cls-17" d="M32.6,35.49a.59.59,0,0,1-.42.56,7.23,7.23,0,0,1-1.16.27,6.11,6.11,0,0,0-1,.23.59.59,0,0,1-.35-1.13,8.28,8.28,0,0,1,1.17-.27,5.58,5.58,0,0,0,1-.22.58.58,0,0,1,.74.39A.47.47,0,0,1,32.6,35.49Z"/><path class="cls-16" d="M29.77,34.29a.57.57,0,0,1-.27.5,6.9,6.9,0,0,1-.9.49,4.43,4.43,0,0,0-.76.4A.59.59,0,0,1,27,35.5a.61.61,0,0,1,.18-.82,6.53,6.53,0,0,1,.9-.48,5.3,5.3,0,0,0,.76-.4.58.58,0,0,1,.81.18A.61.61,0,0,1,29.77,34.29Z"/><path class="cls-16" d="M30.75,30.14a.56.56,0,0,1-.1.33c-.47.7-.72,1-1,1.36s-.49.64-.93,1.31a.59.59,0,0,1-.82.16.58.58,0,0,1-.16-.81c.46-.7.72-1,1-1.37s.48-.64.93-1.3a.58.58,0,0,1,.82-.17A.59.59,0,0,1,30.75,30.14Z"/><path class="cls-17" d="M29,28.91a.58.58,0,0,1-.59.58,1.23,1.23,0,0,0-.69.2,2.38,2.38,0,0,1-1.23.32.59.59,0,1,1,0-1.17,1.29,1.29,0,0,0,.7-.2,2.44,2.44,0,0,1,1.23-.32.59.59,0,0,1,.6.58Z"/><path class="cls-16" d="M26.62,33.71a.59.59,0,0,1-1.15.17c-.19-.64-.26-1-.34-1.28S25,32,24.81,31.39a.59.59,0,0,1,.4-.73.6.6,0,0,1,.74.4c.18.63.26,1,.33,1.27s.14.61.32,1.21A.5.5,0,0,1,26.62,33.71Z"/><path class="cls-16" d="M25.85,36.76a2.62,2.62,0,0,1,0,.27A.59.59,0,1,1,24.67,37a2,2,0,0,0-.12-.89,3.16,3.16,0,0,1-.18-1.34.61.61,0,0,1,.63-.55.6.6,0,0,1,.55.63,2,2,0,0,0,.12.89A3.25,3.25,0,0,1,25.85,36.76Z"/><path class="cls-16" d="M27.59,39.93a.74.74,0,0,1-.05.25.61.61,0,0,1-.79.29,2.92,2.92,0,0,1-1.06-.8,1.72,1.72,0,0,0-.69-.51.59.59,0,1,1,.49-1.07,2.89,2.89,0,0,1,1.07.79,1.82,1.82,0,0,0,.69.52A.58.58,0,0,1,27.59,39.93Z"/><path class="cls-16" d="M30.72,38.5a.6.6,0,0,1-.08.29.59.59,0,0,1-.8.22c-.43-.24-.65-.34-.89-.45a10.76,10.76,0,0,1-1-.49.6.6,0,0,1-.22-.81.59.59,0,0,1,.8-.22,6.68,6.68,0,0,0,.89.45,10.25,10.25,0,0,1,1,.5A.6.6,0,0,1,30.72,38.5Z"/><path class="cls-16" d="M31.78,40.37a.58.58,0,0,1-.59.59,3.1,3.1,0,0,1-1.3-.24,2,2,0,0,0-.87-.17.59.59,0,0,1-.6-.58.61.61,0,0,1,.59-.6,3.24,3.24,0,0,1,1.3.25,2,2,0,0,0,.87.17.59.59,0,0,1,.6.58Z"/><path class="cls-16" d="M34.47,42.49a.78.78,0,0,1,0,.22.59.59,0,0,1-.77.33,3.19,3.19,0,0,0-1-.24,4.84,4.84,0,0,1-1.24-.32.59.59,0,0,1-.33-.76.58.58,0,0,1,.76-.34,3.71,3.71,0,0,0,1,.25,4.37,4.37,0,0,1,1.24.32A.59.59,0,0,1,34.47,42.49Z"/><path class="cls-16" d="M31.52,44.44a.61.61,0,0,1-.28.5.59.59,0,0,1-.81-.19A3.08,3.08,0,0,1,30,43.6a2.4,2.4,0,0,0-.31-.77.58.58,0,1,1,1-.62,3,3,0,0,1,.47,1.14,1.89,1.89,0,0,0,.31.77A.62.62,0,0,1,31.52,44.44Z"/><path class="cls-17" d="M28.05,42.3a.6.6,0,0,1-.18.43,1.5,1.5,0,0,0-.46.75,2.64,2.64,0,0,1-.76,1.25.59.59,0,0,1-.83,0,.58.58,0,0,1,0-.83,1.45,1.45,0,0,0,.45-.75,2.63,2.63,0,0,1,.77-1.25.58.58,0,0,1,1,.43Z"/><path class="cls-17" d="M25.7,41.57v0a.58.58,0,0,1-.61.56,2.31,2.31,0,0,1-1.54-.63,1.29,1.29,0,0,0-.86-.37A.59.59,0,1,1,22.75,40a2.43,2.43,0,0,1,1.54.63,1.21,1.21,0,0,0,.85.38A.58.58,0,0,1,25.7,41.57Z"/><path class="cls-17" d="M24.78,44.8a.59.59,0,0,1-.27.49.58.58,0,0,1-.81-.16,1.62,1.62,0,0,0-.54-.52,2.56,2.56,0,0,1-.89-.86.59.59,0,1,1,1-.65,1.41,1.41,0,0,0,.54.51,2.85,2.85,0,0,1,.89.86A.58.58,0,0,1,24.78,44.8Z"/><path class="cls-18" d="M21.68,43.19a.57.57,0,0,1-.14.39.6.6,0,0,1-.83.06,3.37,3.37,0,0,1-1.05-1.47,2.4,2.4,0,0,0-.74-1,.6.6,0,0,1-.07-.84.61.61,0,0,1,.84-.06,3.47,3.47,0,0,1,1,1.48,2.29,2.29,0,0,0,.74,1A.59.59,0,0,1,21.68,43.19Z"/><path class="cls-17" d="M23.25,45.5v.08a.59.59,0,0,1-.66.51A3.61,3.61,0,0,1,21,45.52a2.51,2.51,0,0,0-1.14-.4.59.59,0,0,1-.51-.66A.59.59,0,0,1,20,44a3.63,3.63,0,0,1,1.59.56,2.39,2.39,0,0,0,1.14.41A.58.58,0,0,1,23.25,45.5Z"/><path class="cls-17" d="M18.55,43.29a.88.88,0,0,1,0,.16l-.64,2.2a.59.59,0,1,1-1.13-.33l.64-2.2a.59.59,0,0,1,.73-.4A.6.6,0,0,1,18.55,43.29Z"/><path class="cls-18" d="M18,41.8a.6.6,0,0,1-.32.53,7.34,7.34,0,0,1-1.27.54,7.78,7.78,0,0,0-1.1.48.6.6,0,0,1-.8-.25.58.58,0,0,1,.25-.79A8,8,0,0,1,16,41.76a6.74,6.74,0,0,0,1.1-.48.59.59,0,0,1,.8.25A.68.68,0,0,1,18,41.8Z"/><path class="cls-17" d="M17.34,47.8a.56.56,0,0,1-.19.43.59.59,0,0,1-.83,0,4.18,4.18,0,0,1-1-1.67,3.2,3.2,0,0,0-.76-1.26.59.59,0,0,1,0-.83.58.58,0,0,1,.83,0,4.28,4.28,0,0,1,1,1.66,3,3,0,0,0,.75,1.27A.57.57,0,0,1,17.34,47.8Z"/><path class="cls-17" d="M19.79,48.32a.59.59,0,0,1-.41.56l-1.16.4c-.3.11-.6.23-1.21.43a.6.6,0,0,1-.75-.38.59.59,0,0,1,.38-.74c.59-.19.87-.3,1.16-.41s.61-.23,1.22-.42a.59.59,0,0,1,.74.37A.63.63,0,0,1,19.79,48.32Z"/><path class="cls-18" d="M16.77,51.6a.58.58,0,0,1-.23.46.59.59,0,0,1-.83-.1A8.05,8.05,0,0,0,15,51.1a9.32,9.32,0,0,1-.82-1,.59.59,0,0,1,.1-.83.6.6,0,0,1,.83.1,9.68,9.68,0,0,0,.74.86,10.81,10.81,0,0,1,.83,1A.59.59,0,0,1,16.77,51.6Z"/><path class="cls-18" d="M21.34,52.42a.52.52,0,0,1-.07.27.59.59,0,0,1-.8.25,11.13,11.13,0,0,1-1-.6,7.57,7.57,0,0,0-.93-.55.6.6,0,0,1-.24-.8.59.59,0,0,1,.8-.24,11.13,11.13,0,0,1,1,.6,10.44,10.44,0,0,0,.93.55A.58.58,0,0,1,21.34,52.42Z"/><path class="cls-17" d="M24.5,50.59a.6.6,0,0,1-.24.48,2.53,2.53,0,0,1-1.11.5,1.44,1.44,0,0,0-.68.31.6.6,0,0,1-.83-.13.59.59,0,0,1,.13-.82,2.7,2.7,0,0,1,1.11-.51,1.54,1.54,0,0,0,.69-.3.59.59,0,0,1,.82.12A.58.58,0,0,1,24.5,50.59Z"/><path class="cls-17" d="M24.89,48.26a.67.67,0,0,1-.08.3.59.59,0,0,1-.81.2L22.69,48c-.33-.18-.67-.37-1.33-.77a.59.59,0,0,1-.2-.81.57.57,0,0,1,.8-.2l1.31.75,1.33.77A.59.59,0,0,1,24.89,48.26Z"/><path class="cls-17" d="M22.2,49.92a.6.6,0,0,1-.36.54,1.77,1.77,0,0,1-.87.15.68.68,0,0,0-.36.06.58.58,0,0,1-.77-.31.59.59,0,0,1,.31-.78,1.9,1.9,0,0,1,.87-.15.67.67,0,0,0,.36,0,.58.58,0,0,1,.77.31A.59.59,0,0,1,22.2,49.92Z"/><path class="cls-17" d="M28.18,47.75a.63.63,0,0,1,0,.19.59.59,0,0,1-.75.36c-.55-.19-.82-.27-1.1-.35s-.58-.18-1.15-.38a.58.58,0,0,1-.36-.75.59.59,0,0,1,.75-.36l1.1.36c.28.08.58.17,1.15.37A.59.59,0,0,1,28.18,47.75Z"/><path class="cls-16" d="M29.73,44.75a.61.61,0,0,1-.33.53,2.55,2.55,0,0,1-1.11.27,1.34,1.34,0,0,0-.65.15.58.58,0,0,1-.78-.27.59.59,0,0,1,.26-.79,2.45,2.45,0,0,1,1.12-.27,1.28,1.28,0,0,0,.64-.15.59.59,0,0,1,.85.53Z"/><path class="cls-16" d="M30.54,50.62a.59.59,0,0,1-1.1.29A3.69,3.69,0,0,1,29,49.55a2.62,2.62,0,0,0-.35-1,.59.59,0,0,1,1-.57,3.71,3.71,0,0,1,.48,1.35,2.57,2.57,0,0,0,.35,1A.59.59,0,0,1,30.54,50.62Z"/><path class="cls-16" d="M32.3,48.41a.54.54,0,0,1,0,.22.59.59,0,0,1-.77.33,2.87,2.87,0,0,1-.87-.53,1.68,1.68,0,0,0-.55-.34A.59.59,0,0,1,30.5,47a3,3,0,0,1,.88.53,1.68,1.68,0,0,0,.55.34A.58.58,0,0,1,32.3,48.41Z"/><path class="cls-16" d="M33.71,45a.62.62,0,0,1-.14.38,2.09,2.09,0,0,1-1.24.72.93.93,0,0,0-.62.33.59.59,0,0,1-.9-.76A2.08,2.08,0,0,1,32.06,45a.91.91,0,0,0,.61-.33.59.59,0,0,1,1,.38Z"/><path class="cls-16" d="M28.34,51.81a.55.55,0,0,1-.13.36.58.58,0,0,1-.82.11,3.82,3.82,0,0,1-1-1.1,2.69,2.69,0,0,0-.73-.81.59.59,0,0,1-.1-.82.58.58,0,0,1,.82-.11,3.7,3.7,0,0,1,1,1.1,2.57,2.57,0,0,0,.73.8A.6.6,0,0,1,28.34,51.81Z"/><path class="cls-16" d="M27.36,52.9v0a.59.59,0,0,1-.63.55,14.11,14.11,0,0,0-1.65,0,10.86,10.86,0,0,1-1.79,0,.59.59,0,1,1,.06-1.18,10.64,10.64,0,0,0,1.65,0,12.65,12.65,0,0,1,1.8,0A.58.58,0,0,1,27.36,52.9Z"/><path class="cls-17" d="M29.55,53.52a.58.58,0,0,1-.18.43,7,7,0,0,1-1.18.92,6.06,6.06,0,0,0-1,.79.59.59,0,0,1-.83,0,.59.59,0,0,1,0-.83,7.44,7.44,0,0,1,1.18-.92,5.67,5.67,0,0,0,1-.79.58.58,0,0,1,1,.43Z"/><path class="cls-16" d="M26.77,56.29a.59.59,0,0,1-1.06.35,2.15,2.15,0,0,0-.66-.62,3.19,3.19,0,0,1-1-.89.59.59,0,0,1,1-.71,2.15,2.15,0,0,0,.66.62,3.19,3.19,0,0,1,1,.89A.59.59,0,0,1,26.77,56.29Z"/><path class="cls-18" d="M25.15,57.14a.57.57,0,0,1,0,.18l-.34,1c-.09.25-.18.52-.35,1A.59.59,0,0,1,23.31,59l.35-1c.09-.25.18-.51.34-1a.59.59,0,0,1,1.15.18Z"/><path class="cls-18" d="M23.18,54.08a.57.57,0,0,1-.3.51,12.31,12.31,0,0,1-1.37.69,10.22,10.22,0,0,0-1.26.63.59.59,0,1,1-.58-1A12.73,12.73,0,0,1,21,54.2c.33-.15.65-.29,1.26-.63a.59.59,0,0,1,.8.22A.6.6,0,0,1,23.18,54.08Z"/><path class="cls-18" d="M19,54.73a.63.63,0,0,1,0,.19.59.59,0,0,1-.74.37A3.8,3.8,0,0,0,17,55.06a5,5,0,0,1-1.52-.3.59.59,0,1,1,.38-1.11,4,4,0,0,0,1.21.23,5.26,5.26,0,0,1,1.53.29A.6.6,0,0,1,19,54.73Z"/><path class="cls-18" d="M21,58.44a.59.59,0,0,1-.14.37.58.58,0,0,1-.83.08l-.72-.58-.74-.6a.6.6,0,0,1-.08-.83.59.59,0,0,1,.83-.08l.73.59c.18.15.37.29.73.6A.58.58,0,0,1,21,58.44Z"/><path class="cls-18" d="M18,57.65a.59.59,0,0,1-1,.38l-.85-1-.86-1a.6.6,0,0,1,.06-.83.59.59,0,0,1,.83.06l.86,1,.86,1A.62.62,0,0,1,18,57.65Z"/><path class="cls-17" d="M15.16,58.9a.61.61,0,0,1-.25.48.58.58,0,0,1-.82-.14,2.66,2.66,0,0,0-.52-.56,3.33,3.33,0,0,1-.72-.78.59.59,0,0,1,.13-.82.58.58,0,0,1,.82.14,2.93,2.93,0,0,0,.53.56,3.82,3.82,0,0,1,.72.78A.6.6,0,0,1,15.16,58.9Z"/><path class="cls-16" d="M13.83,61.6a.57.57,0,0,1-.29.51.59.59,0,0,1-.81-.21,2.09,2.09,0,0,1-.23-1.51.89.89,0,0,0-.08-.73.59.59,0,1,1,1-.59,2,2,0,0,1,.23,1.51.89.89,0,0,0,.08.73A.51.51,0,0,1,13.83,61.6Z"/><path class="cls-16" d="M12.34,63.13a.59.59,0,0,1-.59.59.6.6,0,0,1-.59-.59,1.63,1.63,0,0,0-.22-.88,2.88,2.88,0,0,1-.33-1.4.59.59,0,1,1,1.17,0,1.75,1.75,0,0,0,.22.88A2.83,2.83,0,0,1,12.34,63.13Z"/><path class="cls-16" d="M16.38,63.3a.58.58,0,0,1-.21.45,7.83,7.83,0,0,1-.79.6,5.38,5.38,0,0,0-.67.51.59.59,0,0,1-.83-.07.58.58,0,0,1,.06-.83,7.83,7.83,0,0,1,.79-.6,5.33,5.33,0,0,0,.67-.5.6.6,0,0,1,1,.44Z"/><path class="cls-16" d="M18.48,60.1a.6.6,0,0,1-.26.5l-1,.65-1,.63a.59.59,0,0,1-.65-1c.5-.33.76-.5,1-.65s.5-.31,1-.64a.58.58,0,0,1,.81.17A.55.55,0,0,1,18.48,60.1Z"/><path class="cls-16" d="M20.53,64a.61.61,0,0,1-.25.48.6.6,0,0,1-.83-.15,10.8,10.8,0,0,1-.8-1.3,9.64,9.64,0,0,0-.73-1.19.58.58,0,0,1,.14-.82.59.59,0,0,1,.82.14,12,12,0,0,1,.81,1.31,9.64,9.64,0,0,0,.73,1.19A.6.6,0,0,1,20.53,64Z"/><path class="cls-16" d="M18.21,65.28a.13.13,0,0,1,0,.06,9.51,9.51,0,0,0,0,1.36,10.27,10.27,0,0,1,0,1.52A.59.59,0,0,1,17,68.11a9.88,9.88,0,0,0,0-1.36,9,9,0,0,1,0-1.52.59.59,0,0,1,.64-.53A.58.58,0,0,1,18.21,65.28Z"/><path class="cls-18" d="M23,60.38a.6.6,0,0,1-.28.51,10.18,10.18,0,0,0-1.07.75,9.12,9.12,0,0,1-1.19.85.59.59,0,0,1-.62-1,7.34,7.34,0,0,0,1.07-.76,8.71,8.71,0,0,1,1.2-.85.59.59,0,0,1,.81.2A.54.54,0,0,1,23,60.38Z"/><path class="cls-16" d="M24.61,63.75a.59.59,0,0,1-.89.5c-.43-.25-.65-.35-.87-.47s-.49-.24-1-.51a.59.59,0,0,1,.6-1,9.76,9.76,0,0,0,.87.47c.24.12.49.24,1,.52A.61.61,0,0,1,24.61,63.75Z"/><path class="cls-16" d="M22.83,65.24a.59.59,0,0,1-.31.52,2.6,2.6,0,0,1-1.38.34,1.53,1.53,0,0,0-.84.21.6.6,0,0,1-.8-.24.59.59,0,0,1,.24-.8,2.73,2.73,0,0,1,1.38-.35,1.43,1.43,0,0,0,.84-.2.59.59,0,0,1,.8.24A.55.55,0,0,1,22.83,65.24Z"/><path class="cls-16" d="M22.15,69.53a.64.64,0,0,1-.14.38.6.6,0,0,1-.83.07l-.71-.59-.72-.6a.6.6,0,0,1-.07-.83.59.59,0,0,1,.83-.07l.71.59.72.59A.6.6,0,0,1,22.15,69.53Z"/><path class="cls-16" d="M24.77,66.05a.54.54,0,0,1-.17.41,1.5,1.5,0,0,0-.35.59,2.39,2.39,0,0,1-.62,1,.6.6,0,0,1-.84,0,.59.59,0,0,1,0-.83,1.38,1.38,0,0,0,.35-.59,2.39,2.39,0,0,1,.62-1,.6.6,0,0,1,.84,0A.63.63,0,0,1,24.77,66.05Z"/><path class="cls-16" d="M26.85,67.36a.58.58,0,0,1-.39.55.6.6,0,0,1-.76-.35c-.24-.69-.36-1-.47-1.38s-.23-.68-.48-1.36a.59.59,0,1,1,1.11-.39c.25.68.37,1,.48,1.37s.23.68.47,1.36A.48.48,0,0,1,26.85,67.36Z"/><path class="cls-16" d="M29,63.26s0,.06,0,.09a.6.6,0,0,1-.67.5,1.68,1.68,0,0,0-.87.08,3,3,0,0,1-1.38.12.59.59,0,0,1-.5-.67.59.59,0,0,1,.66-.5,1.71,1.71,0,0,0,.88-.08,2.83,2.83,0,0,1,1.38-.12A.59.59,0,0,1,29,63.26Z"/><path class="cls-16" d="M26.83,60.1a.53.53,0,0,1-.11.34,7,7,0,0,1-.67.82,5.75,5.75,0,0,0-.58.69.59.59,0,0,1-.82.13.57.57,0,0,1-.13-.82,7,7,0,0,1,.67-.82,5.89,5.89,0,0,0,.58-.69.59.59,0,0,1,.82-.13A.57.57,0,0,1,26.83,60.1Z"/><path class="cls-17" d="M29.06,57.06a.59.59,0,0,1-.41.56,4.93,4.93,0,0,0-.91.4,5.8,5.8,0,0,1-1.11.48.59.59,0,0,1-.37-1.12,4.46,4.46,0,0,0,.92-.4,6.53,6.53,0,0,1,1.11-.48.59.59,0,0,1,.74.38A.57.57,0,0,1,29.06,57.06Z"/><path class="cls-16" d="M29.94,61.88a.62.62,0,0,1-.2.45.59.59,0,0,1-.83-.07c-.4-.46-.59-.7-.77-.93s-.37-.46-.75-.9a.59.59,0,0,1,.07-.83.6.6,0,0,1,.83.06c.39.46.58.7.77.93s.36.46.74.9A.59.59,0,0,1,29.94,61.88Z"/><path class="cls-17" d="M31.84,57.37a.59.59,0,0,1-.09.31,10.33,10.33,0,0,0-.55,1,11.83,11.83,0,0,1-.61,1.07.59.59,0,0,1-.81.18.61.61,0,0,1-.18-.82,8.24,8.24,0,0,0,.55-1,8.55,8.55,0,0,1,.6-1.06.59.59,0,0,1,.82-.18A.6.6,0,0,1,31.84,57.37Z"/><path class="cls-17" d="M32.46,55.66v0a.58.58,0,0,1-.63.54,2.63,2.63,0,0,1-1.2-.35,1.62,1.62,0,0,0-.74-.22A.59.59,0,0,1,30,54.5a2.63,2.63,0,0,1,1.2.35,1.62,1.62,0,0,0,.74.22A.58.58,0,0,1,32.46,55.66Z"/><path class="cls-17" d="M33.36,52.94a.58.58,0,0,1-.39.56,10.09,10.09,0,0,1-1.26.35,8.4,8.4,0,0,0-1.1.3.58.58,0,0,1-.75-.36.59.59,0,0,1,.36-.75,10.06,10.06,0,0,1,1.25-.35,7.09,7.09,0,0,0,1.11-.3.58.58,0,0,1,.75.36A.63.63,0,0,1,33.36,52.94Z"/><path class="cls-17" d="M34.73,50.72a.49.49,0,0,1,0,.12.59.59,0,0,1-.7.46,2.23,2.23,0,0,0-.79,0,3.18,3.18,0,0,1-1.16,0,.59.59,0,0,1-.46-.7.59.59,0,0,1,.7-.45,2,2,0,0,0,.79,0,3.24,3.24,0,0,1,1.16.06A.58.58,0,0,1,34.73,50.72Z"/><path class="cls-16" d="M36.26,47.08a.58.58,0,0,1-.51.58,8.44,8.44,0,0,0-1.12.21,8.37,8.37,0,0,1-1.25.24.59.59,0,0,1-.66-.51.59.59,0,0,1,.51-.66,8.44,8.44,0,0,0,1.12-.21,9.94,9.94,0,0,1,1.25-.24.59.59,0,0,1,.66.51Z"/><path class="cls-16" d="M36.81,41.93a.54.54,0,0,1-.05.22,5.4,5.4,0,0,1-.69,1.27,4.34,4.34,0,0,0-.57,1A.59.59,0,0,1,34.41,44a5.86,5.86,0,0,1,.69-1.27,4.23,4.23,0,0,0,.57-1,.59.59,0,0,1,1.14.22Z"/><path class="cls-16" d="M37.69,46.35a.59.59,0,0,1-1.17.09,1.41,1.41,0,0,0-.31-.75,2.54,2.54,0,0,1-.51-1.26.59.59,0,1,1,1.16-.17,1.49,1.49,0,0,0,.32.75,2.74,2.74,0,0,1,.51,1.26Z"/><path class="cls-16" d="M39.71,44.9a.57.57,0,0,1,0,.18,3.43,3.43,0,0,1-.49,1,2.48,2.48,0,0,0-.35.73.59.59,0,0,1-1.13-.35,3.43,3.43,0,0,1,.49-1,2.43,2.43,0,0,0,.35-.74.6.6,0,0,1,1.16.18Z"/><path class="cls-18" d="M40,50.82a.61.61,0,0,1-.29.51.59.59,0,0,1-.81-.21,4.26,4.26,0,0,0-.64-.88,6.4,6.4,0,0,1-.77-1.07.59.59,0,0,1,1-.59,4.56,4.56,0,0,0,.64.88,6.21,6.21,0,0,1,.77,1.06A.67.67,0,0,1,40,50.82Z"/><path class="cls-18" d="M42.12,49.49a.68.68,0,0,1-.07.27.6.6,0,0,1-.8.25,8.09,8.09,0,0,1-1-.62,8.09,8.09,0,0,0-.92-.55.6.6,0,0,1-.24-.8.58.58,0,0,1,.8-.24,8.92,8.92,0,0,1,1,.62,9.46,9.46,0,0,0,.91.55A.59.59,0,0,1,42.12,49.49Z"/><path class="cls-18" d="M42.78,51.07a.59.59,0,0,1-.2.44c-.52.44-.79.66-1,.86s-.51.41-1,.84a.59.59,0,1,1-.76-.9c.51-.44.78-.65,1-.86l1-.83a.6.6,0,0,1,.83.06A.59.59,0,0,1,42.78,51.07Z"/><path class="cls-18" d="M46.52,52.58a.59.59,0,0,1-1.06.36,3.89,3.89,0,0,0-.9-.87A5.12,5.12,0,0,1,43.44,51a.59.59,0,1,1,.92-.73,4.08,4.08,0,0,0,.9.87,5.14,5.14,0,0,1,1.13,1.09A.58.58,0,0,1,46.52,52.58Z"/><path class="cls-18" d="M47.11,49.55a.58.58,0,0,1-.07.28.59.59,0,0,1-.8.24,2.36,2.36,0,0,0-.61-.25,3.47,3.47,0,0,1-.86-.35.57.57,0,0,1-.24-.79.58.58,0,0,1,.8-.24,3.41,3.41,0,0,0,.61.25,3,3,0,0,1,.86.34A.59.59,0,0,1,47.11,49.55Z"/><path class="cls-16" d="M47.64,53.29a.66.66,0,0,1-.09.33,2.71,2.71,0,0,0-.43,1,3.91,3.91,0,0,1-.58,1.33.59.59,0,1,1-1-.65,2.79,2.79,0,0,0,.42-1A3.88,3.88,0,0,1,46.56,53a.59.59,0,0,1,1.08.32Z"/><path class="cls-16" d="M49.36,58.49a.54.54,0,0,1-.08.3.59.59,0,0,1-.81.2,1.81,1.81,0,0,0-.87-.29,3.19,3.19,0,0,1-1.31-.46.59.59,0,1,1,.61-1,1.92,1.92,0,0,0,.86.3,2.94,2.94,0,0,1,1.32.46A.58.58,0,0,1,49.36,58.49Z"/><path class="cls-16" d="M47.78,61.56a.59.59,0,0,1-1.11.28,1.75,1.75,0,0,0-.54-.65,3.07,3.07,0,0,1-.84-1,.59.59,0,1,1,1-.56,1.81,1.81,0,0,0,.55.66,2.91,2.91,0,0,1,.83,1A.58.58,0,0,1,47.78,61.56Z"/><path class="cls-16" d="M45.89,62.21a.58.58,0,0,1-.18.43.6.6,0,0,1-.84,0,4.63,4.63,0,0,1-.69-.92,3.8,3.8,0,0,0-.55-.72.59.59,0,0,1,.86-.8,5.28,5.28,0,0,1,.7.91,3.66,3.66,0,0,0,.54.72A.57.57,0,0,1,45.89,62.21Z"/><path class="cls-16" d="M47.53,64a.59.59,0,0,1-.57.59,9.07,9.07,0,0,1-1.5-.08,7.78,7.78,0,0,0-1.34-.06.6.6,0,0,1-.6-.58.58.58,0,0,1,.58-.6,9.35,9.35,0,0,1,1.5.07,8.59,8.59,0,0,0,1.33.07.58.58,0,0,1,.6.58Z"/><path class="cls-16" d="M46.66,66.08a.54.54,0,0,1-.07.27.58.58,0,0,1-.79.25,1.27,1.27,0,0,0-.85-.14,2.39,2.39,0,0,1-1.51-.26.59.59,0,0,1,.55-1,1.22,1.22,0,0,0,.85.14,2.34,2.34,0,0,1,1.51.27A.58.58,0,0,1,46.66,66.08Z"/><path class="cls-16" d="M43.09,64.18a.59.59,0,0,1-.34.53l-1.15.55-1.15.55a.6.6,0,0,1-.79-.29.59.59,0,0,1,.29-.78l1.14-.55,1.16-.55a.58.58,0,0,1,.78.29A.54.54,0,0,1,43.09,64.18Z"/><path class="cls-17" d="M40.49,62.26a.59.59,0,0,1-1,.4,4.15,4.15,0,0,0-.93-.78,5.77,5.77,0,0,1-1.12-1,.58.58,0,0,1,0-.83.59.59,0,0,1,.83,0,5.11,5.11,0,0,0,.93.78,6,6,0,0,1,1.13,1A.59.59,0,0,1,40.49,62.26Z"/><path class="cls-17" d="M43.13,61.11a.49.49,0,0,1-.05.24.59.59,0,0,1-.78.3,6.82,6.82,0,0,0-1.25-.44,7.52,7.52,0,0,1-1.44-.5.58.58,0,0,1-.29-.78.59.59,0,0,1,.78-.29,5.92,5.92,0,0,0,1.24.43,7.56,7.56,0,0,1,1.45.5A.61.61,0,0,1,43.13,61.11Z"/><path class="cls-18" d="M41.8,58.65a.59.59,0,0,1-1.07.35,4.85,4.85,0,0,1-.58-1,4.17,4.17,0,0,0-.47-.79.59.59,0,0,1,1-.7,5.58,5.58,0,0,1,.59,1,3.55,3.55,0,0,0,.46.79A.57.57,0,0,1,41.8,58.65Z"/><path class="cls-17" d="M44.84,55a.57.57,0,0,1-.06.25,4.88,4.88,0,0,1-.61,1,4,4,0,0,0-.49.78.59.59,0,1,1-1.06-.51,5.39,5.39,0,0,1,.61-1,3.55,3.55,0,0,0,.49-.78.6.6,0,0,1,.79-.28A.61.61,0,0,1,44.84,55Z"/><path class="cls-17" d="M45.7,58.58a.59.59,0,0,1-.47.57,2.88,2.88,0,0,0-.79.29,3.56,3.56,0,0,1-1.08.4.59.59,0,1,1-.25-1.15,2.88,2.88,0,0,0,.79-.29A3.56,3.56,0,0,1,45,58a.59.59,0,0,1,.7.45A.69.69,0,0,1,45.7,58.58Z"/><path class="cls-18" d="M44.7,53.08a.59.59,0,0,1-.57.59,8.59,8.59,0,0,0-1,.07,9.08,9.08,0,0,1-1.08.08.59.59,0,0,1,0-1.18,8.19,8.19,0,0,0,1-.07c.27,0,.54-.06,1.09-.08a.59.59,0,0,1,.6.58Z"/><path class="cls-18" d="M41.73,55a.6.6,0,0,1-.53.59,1.15,1.15,0,0,0-.78.36,2.44,2.44,0,0,1-1.42.62.59.59,0,0,1-.11-1.18,1.19,1.19,0,0,0,.78-.36,2.44,2.44,0,0,1,1.41-.62.6.6,0,0,1,.65.53Z"/><path class="cls-18" d="M39.06,52.27a.59.59,0,0,1-.27.49c-.44.29-.67.43-.89.56s-.43.25-.84.53a.59.59,0,0,1-.66-1c.44-.3.68-.43.9-.56s.43-.26.84-.53a.59.59,0,0,1,.82.16A.67.67,0,0,1,39.06,52.27Z"/><path class="cls-17" d="M37.1,51.3a.6.6,0,0,1-1.14.23c-.18-.45-.27-.68-.35-.91s-.15-.43-.33-.85A.59.59,0,0,1,35.6,49a.58.58,0,0,1,.77.32c.19.45.27.68.35.9s.16.43.33.85A.64.64,0,0,1,37.1,51.3Z"/><path class="cls-17" d="M34.57,56.84a.58.58,0,0,1-.37.54.59.59,0,0,1-.77-.32,3.13,3.13,0,0,1-.26-1.39,2,2,0,0,0-.17-.94.59.59,0,0,1,.32-.77.6.6,0,0,1,.77.32,3.17,3.17,0,0,1,.26,1.4,2,2,0,0,0,.17.93A.64.64,0,0,1,34.57,56.84Z"/><path class="cls-18" d="M38.56,57.51a.54.54,0,0,1-.11.35.59.59,0,0,1-.83.13l-1.16-.86-1.17-.87a.59.59,0,1,1,.7-.94l1.17.86,1.16.86A.57.57,0,0,1,38.56,57.51Z"/><path class="cls-18" d="M39.63,58.83a.58.58,0,0,1-.59.58,5.7,5.7,0,0,1-1.46-.16,4.63,4.63,0,0,0-1.19-.14.59.59,0,1,1,0-1.17,5.61,5.61,0,0,1,1.45.16,4.66,4.66,0,0,0,1.2.14A.58.58,0,0,1,39.63,58.83Z"/><path class="cls-17" d="M35.24,60.17a.58.58,0,0,1-.21.45.6.6,0,0,1-.83-.06,2.23,2.23,0,0,1-.54-1.44,1,1,0,0,0-.26-.74.59.59,0,0,1,.9-.77A2.23,2.23,0,0,1,34.84,59a1.08,1.08,0,0,0,.25.75A.55.55,0,0,1,35.24,60.17Z"/><path class="cls-17" d="M34.31,61.89a.58.58,0,0,1-.21.45.6.6,0,0,1-.83-.06,7.45,7.45,0,0,1-.83-1.16,6.53,6.53,0,0,0-.72-1,.61.61,0,0,1,.06-.84.59.59,0,0,1,.83.07,6.64,6.64,0,0,1,.84,1.15,5.86,5.86,0,0,0,.71,1A.57.57,0,0,1,34.31,61.89Z"/><path class="cls-17" d="M38.11,61.94a.63.63,0,0,1,0,.19.59.59,0,0,1-.75.37,3.43,3.43,0,0,1-1-.54,2.9,2.9,0,0,0-.74-.38.59.59,0,1,1,.38-1.11A3.46,3.46,0,0,1,37,61a2.38,2.38,0,0,0,.74.38A.59.59,0,0,1,38.11,61.94Z"/><path class="cls-16" d="M36.62,64.28a.58.58,0,0,1-.15.39,2.27,2.27,0,0,1-1.21.71,1.1,1.1,0,0,0-.65.36.59.59,0,0,1-.87-.8,2.24,2.24,0,0,1,1.21-.7,1.1,1.1,0,0,0,.65-.36.59.59,0,0,1,1,.4Z"/><path class="cls-16" d="M39.37,66.46a.61.61,0,0,1-.25.48.59.59,0,0,1-.82-.14,5.69,5.69,0,0,1-.61-1.06,4.57,4.57,0,0,0-.5-.87.58.58,0,0,1,.14-.82.6.6,0,0,1,.82.14,6,6,0,0,1,.61,1.06,4.28,4.28,0,0,0,.5.87A.53.53,0,0,1,39.37,66.46Z"/><path class="cls-16" d="M43.08,67.41a.58.58,0,0,1-.13.37.59.59,0,0,1-.83.08c-.41-.33-.62-.49-.84-.65s-.46-.34-.89-.69a.59.59,0,1,1,.75-.91c.41.33.62.49.84.65l.89.69A.6.6,0,0,1,43.08,67.41Z"/><path class="cls-16" d="M41.13,69.17a.6.6,0,0,1-.42.57c-.57.16-.83.25-1.12.35s-.58.21-1.18.38a.59.59,0,0,1-.33-1.13c.57-.16.83-.26,1.12-.36s.58-.2,1.18-.38a.59.59,0,0,1,.73.41A.88.88,0,0,1,41.13,69.17Z"/><path class="cls-16" d="M36.78,68.29a.62.62,0,0,1-.17.41.59.59,0,0,1-.83,0,1.22,1.22,0,0,0-.78-.36,2.39,2.39,0,0,1-1.39-.68.59.59,0,0,1,0-.83.6.6,0,0,1,.84,0,1.23,1.23,0,0,0,.78.37,2.36,2.36,0,0,1,1.39.67A.6.6,0,0,1,36.78,68.29Z"/><path class="cls-16" d="M34.79,69.44a.78.78,0,0,1,0,.21A3.3,3.3,0,0,1,34,70.84a2.09,2.09,0,0,0-.53.8.59.59,0,0,1-.76.34.61.61,0,0,1-.34-.77A3.3,3.3,0,0,1,33.12,70a2,2,0,0,0,.53-.79.58.58,0,0,1,.76-.34A.59.59,0,0,1,34.79,69.44Z"/><path class="cls-16" d="M33.75,66.16a.59.59,0,0,1-.44.57.6.6,0,0,1-.72-.41,1.49,1.49,0,0,0-.47-.77,2.48,2.48,0,0,1-.78-1.28A.59.59,0,1,1,32.47,64a1.5,1.5,0,0,0,.47.76A2.49,2.49,0,0,1,33.73,66,1,1,0,0,1,33.75,66.16Z"/><path class="cls-16" d="M32.56,67.92a.58.58,0,0,1-.28.5.58.58,0,0,1-.81-.18c-.31-.49-.44-.75-.58-1a8.93,8.93,0,0,0-.52-.91.6.6,0,0,1,.18-.82.59.59,0,0,1,.81.19,9.51,9.51,0,0,1,.58,1,8.65,8.65,0,0,0,.53.91A.61.61,0,0,1,32.56,67.92Z"/><path class="cls-16" d="M31.23,64.28a.58.58,0,0,1-.18.42,3.39,3.39,0,0,1-1.44.88,2.26,2.26,0,0,0-1,.61.59.59,0,0,1-.83-.85,3.45,3.45,0,0,1,1.44-.87,2.21,2.21,0,0,0,1-.61.6.6,0,0,1,.84,0A.58.58,0,0,1,31.23,64.28Z"/><path class="cls-16" d="M31.78,70.38a.58.58,0,0,1-.37.55.59.59,0,0,1-.77-.33,4.76,4.76,0,0,0-.5-1,6,6,0,0,1-.62-1.17.6.6,0,0,1,.34-.77.58.58,0,0,1,.76.34,4.91,4.91,0,0,0,.5.95,5,5,0,0,1,.62,1.18A.52.52,0,0,1,31.78,70.38Z"/><path class="cls-16" d="M28.94,68.22a.59.59,0,0,1-.28.5,6,6,0,0,1-1,.5,4.18,4.18,0,0,0-.82.4.6.6,0,0,1-.81-.19.59.59,0,0,1,.2-.81,4.72,4.72,0,0,1,1-.5,4.35,4.35,0,0,0,.82-.41.6.6,0,0,1,.9.51Z"/><path class="cls-16" d="M29.4,71.23a.78.78,0,0,1,0,.21.59.59,0,0,1-.77.34,3.72,3.72,0,0,1-.9-.47A3.56,3.56,0,0,0,27,71a.59.59,0,0,1-.33-.76.58.58,0,0,1,.76-.34,4.05,4.05,0,0,1,.91.47,2.44,2.44,0,0,0,.68.35A.6.6,0,0,1,29.4,71.23Z"/><path class="cls-16" d="M25,68.79a.61.61,0,0,1-.09.31,1.59,1.59,0,0,0-.26.94,2.68,2.68,0,0,1-.44,1.52.59.59,0,0,1-1-.62,1.59,1.59,0,0,0,.26-.94,2.79,2.79,0,0,1,.44-1.53.6.6,0,0,1,.82-.18A.57.57,0,0,1,25,68.79Z"/></g><path class="cls-19" d="M41.16,50.21a.15.15,0,0,1,.16.16.15.15,0,0,1-.16.15H41v.2h0v-.51Zm-.12,0v.24h.12a.12.12,0,0,0,.12-.12.11.11,0,0,0-.12-.12Z"/><path class="cls-19" d="M41.65,50.7a.2.2,0,0,1-.11,0,.18.18,0,0,1-.18-.19c0-.12.07-.2.16-.2a.17.17,0,0,1,.16.17v0h-.27a.13.13,0,0,0,.13.15s.07,0,.09,0Zm0-.2a.12.12,0,0,0-.12-.13.13.13,0,0,0-.11.13Z"/><path class="cls-19" d="M41.8,50.43a.13.13,0,0,1,.13-.09v0h0a.12.12,0,0,0-.12.12v.22h0v-.37h0Z"/><path class="cls-19" d="M42.16,50.4a.11.11,0,0,0-.08,0,.07.07,0,0,0-.07.06s0,.06.09.09.1,0,.1.11a.11.11,0,0,1-.12.1.16.16,0,0,1-.12,0l0,0a.15.15,0,0,0,.1,0s.08,0,.08-.06,0-.06-.08-.08-.11,0-.11-.11a.1.1,0,0,1,.11-.1.17.17,0,0,1,.1,0Z"/><path class="cls-19" d="M42.26,50.53a.17.17,0,0,1,.17-.19c.09,0,.16.07.16.19s-.07.2-.16.2A.18.18,0,0,1,42.26,50.53Zm0,0c0,.11.06.17.13.17s.12-.06.12-.17,0-.16-.12-.16S42.3,50.43,42.3,50.53Z"/><path class="cls-19" d="M42.72,50.42a.14.14,0,0,1,.12-.08.13.13,0,0,1,.14.14v.24h0v-.24a.1.1,0,0,0-.1-.11.13.13,0,0,0-.12.14v.21h0v-.37h0Z"/><path class="cls-19" d="M43.1,50.37l.11,0a.13.13,0,0,1,.12.07.15.15,0,0,1,0,.07v.17a.17.17,0,0,0,0,.07h0a.1.1,0,0,0,0,0,.15.15,0,0,1-.12,0,.12.12,0,0,1-.12-.12c0-.09.06-.13.17-.13h.07c0-.06,0-.11-.09-.11l-.09,0Zm.2.15h-.06c-.1,0-.14,0-.14.1a.08.08,0,0,0,.09.08c.07,0,.11,0,.11-.09Z"/><path class="cls-19" d="M43.45,50.19h0v.53h0Z"/><path class="cls-19" d="M43.6,50.19h.06v.07H43.6Zm0,.16h0v.37h0Z"/><path class="cls-19" d="M43.73,50.69l.22-.31h-.21v0H44v0l-.22.31H44v0h-.28Z"/><path class="cls-19" d="M44.35,50.7a.2.2,0,0,1-.11,0,.18.18,0,0,1-.18-.19c0-.12.06-.2.16-.2a.16.16,0,0,1,.15.17v0H44.1a.14.14,0,0,0,.14.15.15.15,0,0,0,.09,0Zm0-.2a.13.13,0,0,0-.12-.13c-.06,0-.11.07-.12.13Z"/><path class="cls-19" d="M44.72,50.42v-.23h0v.53h0v-.07a.16.16,0,0,1-.13.08c-.09,0-.16-.07-.16-.19s.06-.2.16-.2A.16.16,0,0,1,44.72,50.42Zm-.25.12c0,.07,0,.16.12.16s.13-.07.13-.16h0c0-.1-.06-.16-.13-.16S44.47,50.46,44.47,50.54Z"/><path class="cls-19" d="M45.31,50.28a.17.17,0,0,0-.11,0c-.06,0-.1,0-.1.08s0,.09.13.12.13.08.13.15a.14.14,0,0,1-.16.14.25.25,0,0,1-.16-.06l0,0a.19.19,0,0,0,.13,0c.06,0,.13,0,.13-.1s0-.08-.13-.12-.13-.06-.13-.14a.12.12,0,0,1,.14-.13.28.28,0,0,1,.13,0Z"/><path class="cls-19" d="M45.43,50.53c0-.12.07-.19.16-.19a.17.17,0,0,1,.17.19.18.18,0,0,1-.17.2C45.5,50.73,45.43,50.65,45.43,50.53Zm0,0c0,.11.05.17.12.17s.13-.06.13-.17-.06-.16-.13-.16S45.47,50.43,45.47,50.53Z"/><path class="cls-19" d="M45.85,50.19h0v.53h0Z"/><path class="cls-19" d="M46.25,50.65a.13.13,0,0,1-.25-.06v-.24h0v.24a.09.09,0,0,0,.1.1.12.12,0,0,0,.11-.13v-.21h0v.37h0Z"/><path class="cls-19" d="M46.42,50.25h0v.11h.09v0h-.09v.25s0,.06.08.06v0c-.07,0-.12,0-.12-.09v-.26h-.06v0h.06Z"/><path class="cls-19" d="M46.62,50.19h.06v.07h-.06Zm0,.16h0v.37h0Z"/><path class="cls-19" d="M46.76,50.53a.17.17,0,0,1,.17-.19c.09,0,.16.07.16.19s-.07.2-.16.2A.18.18,0,0,1,46.76,50.53Zm0,0c0,.11.06.17.13.17s.12-.06.12-.17,0-.16-.12-.16S46.8,50.43,46.8,50.53Z"/><path class="cls-19" d="M47.22,50.42a.14.14,0,0,1,.12-.08.13.13,0,0,1,.14.14v.24h0v-.24a.1.1,0,0,0-.1-.11.13.13,0,0,0-.12.14v.21h0v-.37h0Z"/><path class="cls-19" d="M47.8,50.35V50.3a.13.13,0,0,1,0-.06.08.08,0,0,1,.08-.06H48v0h0a.05.05,0,0,0,0,0,.07.07,0,0,0,0,0v.05h.08v0h-.08v.34h0v-.34h0v0Z"/><path class="cls-19" d="M48,50.53c0-.12.07-.19.16-.19a.17.17,0,0,1,.17.19.18.18,0,0,1-.17.2C48,50.73,48,50.65,48,50.53Zm0,0c0,.11.05.17.12.17s.13-.06.13-.17-.06-.16-.13-.16S48,50.43,48,50.53Z"/><path class="cls-19" d="M48.43,50.43a.13.13,0,0,1,.13-.09v0h0a.12.12,0,0,0-.12.12v.22h0v-.37h0Z"/><path class="cls-19" d="M49.17,50.72h0v-.25h-.26v.25h0v-.51h0v.23h.26v-.23h0Z"/><path class="cls-19" d="M49.55,50.7a.2.2,0,0,1-.11,0,.18.18,0,0,1-.18-.19c0-.12.07-.2.16-.2a.17.17,0,0,1,.16.17v0H49.3a.14.14,0,0,0,.14.15s.07,0,.09,0Zm0-.2a.12.12,0,0,0-.12-.13.13.13,0,0,0-.11.13Z"/><path class="cls-19" d="M49.68,50.37a.2.2,0,0,1,.11,0,.14.14,0,0,1,.12.07.15.15,0,0,1,0,.07v.24h0a.1.1,0,0,1,0,0,.17.17,0,0,1-.13,0,.12.12,0,0,1-.12-.12c0-.09.07-.13.18-.13h.07c0-.06,0-.11-.09-.11a.19.19,0,0,0-.1,0Zm.2.15h-.06c-.1,0-.15,0-.15.1a.09.09,0,0,0,.09.08c.07,0,.12,0,.12-.09Z"/><path class="cls-19" d="M50,50.19h0v.53h0Z"/><path class="cls-19" d="M50.2,50.25h0v.11h.09v0h-.09v.25s0,.06.08.06v0c-.07,0-.12,0-.12-.09v-.26h-.06v0h.06Z"/><path class="cls-19" d="M50.45,50.42a.12.12,0,0,1,.12-.08.13.13,0,0,1,.13.14v.24h0v-.24a.1.1,0,0,0-.1-.11.13.13,0,0,0-.11.14v.21h0v-.53h0Z"/><path class="cls-19" d="M50.78,50.85c.07,0,.09-.05.12-.13l-.13-.37h0l.11.33.11-.33h0l-.12.34c0,.11-.06.17-.16.19Z"/><path class="cls-19" d="M51.68,50.5h-.13v0h.17v.22a.34.34,0,0,1-.16,0,.27.27,0,0,1,0-.53.27.27,0,0,1,.15,0l0,0a.25.25,0,0,0-.13,0c-.12,0-.19.1-.19.23a.21.21,0,0,0,.2.22l.12,0Z"/><path class="cls-19" d="M52.08,50.65a.16.16,0,0,1-.13.08.13.13,0,0,1-.13-.14v-.24h0v.24a.09.09,0,0,0,.1.1.12.12,0,0,0,.12-.13v-.21h0v.37h0Z"/><path class="cls-19" d="M52.25,50.25h0v.11h.08v0h-.08v.25s0,.06.08.06v0c-.08,0-.12,0-.12-.09v-.26h-.06v0h.06Z"/><path class="cls-20" d="M42.25,52.61h-.16l0-.17a.66.66,0,0,1-.2.16.6.6,0,0,1-.24,0,.68.68,0,0,1-.29-.06.62.62,0,0,1-.22-.17,1,1,0,0,1-.14-.24.92.92,0,0,1,0-.29,1,1,0,0,1,0-.3,1,1,0,0,1,.14-.24.6.6,0,0,1,.22-.16.69.69,0,0,1,.29-.07.85.85,0,0,1,.23,0,.66.66,0,0,1,.19.09.56.56,0,0,1,.14.16.65.65,0,0,1,.07.21H42a.22.22,0,0,0-.05-.12.24.24,0,0,0-.08-.09.27.27,0,0,0-.12-.06l-.13,0a.46.46,0,0,0-.2.05.53.53,0,0,0-.14.12.67.67,0,0,0-.07.18.76.76,0,0,0,0,.21.69.69,0,0,0,0,.2.48.48,0,0,0,.07.18.53.53,0,0,0,.14.12.46.46,0,0,0,.2,0,.48.48,0,0,0,.18,0,.2.2,0,0,0,.12-.08.25.25,0,0,0,.08-.12A.47.47,0,0,0,42,52h-.39v-.19h.62Z"/><path class="cls-20" d="M43.42,52.61h-.23v-.14h0a.3.3,0,0,1-.13.12.37.37,0,0,1-.17,0,.38.38,0,0,1-.3-.1.46.46,0,0,1-.09-.31v-.67h.23v.65a.31.31,0,0,0,.05.19.2.2,0,0,0,.15.06l.12,0,.08-.06a.18.18,0,0,0,0-.1.36.36,0,0,0,0-.11v-.61h.23Z"/><path class="cls-20" d="M43.56,51.56h.17v-.32H44v.32h.21v.17H44v.57s0,0,0,.06,0,0,0,0l0,0h.15v.18h-.29a.2.2,0,0,1-.09-.06.12.12,0,0,1,0-.08.37.37,0,0,1,0-.12v-.62h-.17Z"/><path class="cls-20" d="M44.94,51.16h.35l.4,1.14h0l.39-1.14h.35v1.45H46.2V51.49h0l-.41,1.12h-.21l-.4-1.12h0v1.12h-.24Z"/><path class="cls-20" d="M47.2,52.64a.56.56,0,0,1-.23,0,.48.48,0,0,1-.16-.12.42.42,0,0,1-.11-.17.78.78,0,0,1,0-.22.85.85,0,0,1,0-.23.62.62,0,0,1,.11-.17.48.48,0,0,1,.16-.12.79.79,0,0,1,.23,0,.72.72,0,0,1,.22,0,.52.52,0,0,1,.17.12.42.42,0,0,1,.1.17.59.59,0,0,1,0,.23.54.54,0,0,1,0,.22.32.32,0,0,1-.1.17.52.52,0,0,1-.17.12A.51.51,0,0,1,47.2,52.64Zm0-.18a.28.28,0,0,0,.13,0,.43.43,0,0,0,.1-.09.61.61,0,0,0,0-.12.59.59,0,0,0,0-.13.68.68,0,0,0,0-.14.61.61,0,0,0,0-.12.39.39,0,0,0-.1-.08.28.28,0,0,0-.13,0,.32.32,0,0,0-.14,0,.34.34,0,0,0-.09.08.61.61,0,0,0,0,.12.34.34,0,0,0,0,.14.3.3,0,0,0,0,.13.61.61,0,0,0,0,.12s.06.06.09.09A.32.32,0,0,0,47.2,52.46Z"/><path class="cls-20" d="M47.92,51.56h.22v.2h0a.59.59,0,0,1,0-.08.27.27,0,0,1,.08-.07.2.2,0,0,1,.09-.06l.1,0h.09v.22h-.1a.2.2,0,0,0-.11,0,.15.15,0,0,0-.09.06.23.23,0,0,0-.06.12.33.33,0,0,0,0,.15v.5h-.23Z"/><path class="cls-20" d="M48.68,51.56h.22v.16h0a.38.38,0,0,1,.14-.14.38.38,0,0,1,.19,0,.4.4,0,0,1,.27.09.33.33,0,0,1,.1.27v.72h-.23V52a.3.3,0,0,0-.06-.18.17.17,0,0,0-.15-.05.16.16,0,0,0-.1,0,.12.12,0,0,0-.08.06.14.14,0,0,0,0,.08.22.22,0,0,0,0,.11v.62h-.23Z"/><path class="cls-20" d="M49.85,51.16h.23v.22h-.23Zm0,.4h.23v1h-.23Z"/><path class="cls-20" d="M50.33,51.56h.22v.16h0a.38.38,0,0,1,.14-.14.38.38,0,0,1,.19,0,.4.4,0,0,1,.27.09.37.37,0,0,1,.1.27v.72H51V52a.3.3,0,0,0-.06-.18.17.17,0,0,0-.15-.05.22.22,0,0,0-.11,0,.21.21,0,0,0-.08.06.56.56,0,0,0-.05.08.41.41,0,0,0,0,.11v.62h-.24Z"/><path class="cls-20" d="M52.47,52.56a.43.43,0,0,1-.13.35A.56.56,0,0,1,52,53l-.16,0-.15,0a.52.52,0,0,1-.11-.1.3.3,0,0,1,0-.16h.23l0,.08.06,0,.08,0H52a.31.31,0,0,0,.21-.07.32.32,0,0,0,.06-.2v-.16h0a.29.29,0,0,1-.14.13.27.27,0,0,1-.18,0,.46.46,0,0,1-.21,0,.44.44,0,0,1-.15-.12.37.37,0,0,1-.08-.18.71.71,0,0,1,0-.21.64.64,0,0,1,0-.2.48.48,0,0,1,.1-.17.44.44,0,0,1,.15-.12.59.59,0,0,1,.2,0,.58.58,0,0,1,.18,0,.29.29,0,0,1,.13.14h0v-.15h.23ZM52,52.43a.28.28,0,0,0,.13,0,.2.2,0,0,0,.09-.09.37.37,0,0,0,0-.11.66.66,0,0,0,0-.14.57.57,0,0,0,0-.13.37.37,0,0,0,0-.11l-.09-.08a.27.27,0,0,0-.13,0,.25.25,0,0,0-.13,0,.34.34,0,0,0-.09.08.56.56,0,0,0,0,.12.43.43,0,0,0,0,.26.37.37,0,0,0,0,.11.3.3,0,0,0,.08.08A.28.28,0,0,0,52,52.43Z"/><path class="cls-21" d="M55.36,49.91a6.29,6.29,0,0,0-.72.59,5,5,0,0,0-.37.39L54,50.58a.58.58,0,0,0-.7-.26A.65.65,0,0,0,53,51a.58.58,0,0,1,0-.32,2.41,2.41,0,0,1,.81-1.11,2.55,2.55,0,0,1,1.14-.76.65.65,0,0,1,.71.38C55.72,49.38,55.68,49.67,55.36,49.91Z"/><path class="cls-22" d="M54.27,50.89c-.1.11-.14.18-.25.31-.26.3-.55.33-.72.23A.73.73,0,0,1,53,51h0a.65.65,0,0,1,.38-.7.58.58,0,0,1,.7.26Z"/><path class="cls-23" d="M55.12,53a.48.48,0,0,1-.29,0,2.57,2.57,0,0,1-1.11-.81A2.48,2.48,0,0,1,53,51h0a.73.73,0,0,0,.34.41c.17.1.46.07.72-.23.11-.13.15-.2.25-.31.07.09.17.21.36.42l.38.36c-.13.09-.2.13-.34.24-.31.25-.35.53-.26.71A.64.64,0,0,0,55.12,53Z"/><path class="cls-24" d="M55.56,52.65a.77.77,0,0,1-.43.34h0a.64.64,0,0,1-.71-.37c-.09-.18,0-.46.26-.71.14-.11.21-.15.34-.24.12.1.19.14.32.26C55.63,52.19,55.66,52.48,55.56,52.65Z"/><path class="cls-25" d="M57.08,51.13A4,4,0,0,1,55.13,53a.77.77,0,0,0,.43-.34c.1-.17.07-.46-.23-.72-.13-.12-.2-.16-.32-.26l.36-.32a.55.55,0,0,0,.33.12h.75a.57.57,0,0,0,.38-1A.63.63,0,0,1,57.08,51.13Z"/><path class="cls-26" d="M57,50.89a.58.58,0,0,1-.58.58H55.7a.55.55,0,0,1-.33-.12l0,0a6,6,0,0,0,.62-.7.58.58,0,0,1,.72-.22l.09.06h0A.58.58,0,0,1,57,50.89Z"/><path class="cls-27" d="M56.83,50.46l-.09-.06a.58.58,0,0,0-.72.22,6,6,0,0,1-.62.7l0,0a.55.55,0,0,1-.24-.46.58.58,0,0,1,.57-.57h.75A.56.56,0,0,1,56.83,50.46Z"/><path class="cls-23" d="M59.37,51.18a2.59,2.59,0,0,1-.68-.07,2.48,2.48,0,0,0-.56,0,.34.34,0,0,1,0-.67,3.23,3.23,0,0,1,.69.07,2.44,2.44,0,0,0,.55,0,.34.34,0,1,1,0,.67Z"/><path class="cls-22" d="M58.68,53.27a.33.33,0,0,1-.19-.06c-.25-.17-.38-.24-.51-.32s-.27-.17-.54-.35a.33.33,0,0,1,.37-.55l.51.33a6.35,6.35,0,0,1,.54.34.32.32,0,0,1,.09.46A.33.33,0,0,1,58.68,53.27Z"/><path class="cls-27" d="M57.34,54.8a.35.35,0,0,1-.27-.14,2.1,2.1,0,0,0-.37-.42,2.94,2.94,0,0,1-.46-.52.34.34,0,0,1,.08-.46.32.32,0,0,1,.46.07,2.47,2.47,0,0,0,.37.42,3.37,3.37,0,0,1,.46.52.32.32,0,0,1-.07.46A.31.31,0,0,1,57.34,54.8Z"/><path class="cls-24" d="M57.54,49.63a.32.32,0,0,1-.28-.15.34.34,0,0,1,.09-.46,1.77,1.77,0,0,1,.71-.29,1.07,1.07,0,0,0,.47-.19.33.33,0,0,1,.46.1.34.34,0,0,1-.09.46,1.83,1.83,0,0,1-.71.29,1.07,1.07,0,0,0-.47.19A.31.31,0,0,1,57.54,49.63Z"/><path class="cls-26" d="M56.42,48.44a.31.31,0,0,1-.2-.07.32.32,0,0,1-.07-.46,1.7,1.7,0,0,1,.57-.52,1.08,1.08,0,0,0,.37-.33.33.33,0,1,1,.54.39,1.64,1.64,0,0,1-.57.51,1,1,0,0,0-.37.34A.35.35,0,0,1,56.42,48.44Z"/><path class="cls-28" d="M72.67,59.17A3.07,3.07,0,1,1,69.6,56.1,3.06,3.06,0,0,1,72.67,59.17Z"/><rect class="cls-29" x="65.71" y="59.4" width="7.52" height="3.21"/><path class="cls-8" d="M67.59,57.76l-.08.26h-.1l.25-.83h.12L68,58h-.1l-.08-.26Zm.24-.08-.07-.24c0-.06,0-.11,0-.15h0c0,.05,0,.1,0,.15l-.07.24Z"/><path class="cls-8" d="M68.46,58a.38.38,0,0,1-.15,0,.27.27,0,0,1-.27-.3.3.3,0,0,1,.29-.32.42.42,0,0,1,.14,0l0,.09a.16.16,0,0,0-.11,0,.2.2,0,0,0-.19.22c0,.14.08.23.19.23a.35.35,0,0,0,.12,0Z"/><path class="cls-8" d="M68.91,58a.43.43,0,0,1-.15,0,.27.27,0,0,1-.27-.3.29.29,0,0,1,.29-.32.42.42,0,0,1,.13,0l0,.09a.16.16,0,0,0-.11,0c-.13,0-.19.1-.19.22s.08.23.18.23a.3.3,0,0,0,.12,0Z"/><path class="cls-8" d="M69.43,57.86V58h-.09v-.1h0a.21.21,0,0,1-.18.11c-.08,0-.18-.05-.18-.26v-.34h.09v.32c0,.12,0,.19.12.19a.15.15,0,0,0,.13-.09.13.13,0,0,0,0-.06v-.36h.1Z"/><path class="cls-8" d="M69.53,57.89a.35.35,0,0,0,.18,0,.13.13,0,0,0,.15-.14c0-.07,0-.12-.14-.16s-.2-.12-.2-.24a.22.22,0,0,1,.25-.22.31.31,0,0,1,.16,0l0,.09a.21.21,0,0,0-.14,0c-.1,0-.14.06-.14.12s0,.12.15.16.19.12.19.24a.23.23,0,0,1-.26.24.36.36,0,0,1-.19-.05Z"/><path class="cls-8" d="M70.16,57.25v.18h.14v.08h-.14v.32c0,.07,0,.11.07.11h.06V58h-.08a.12.12,0,0,1-.11,0,.24.24,0,0,1,0-.16v-.32H70v-.08h.08v-.15Z"/><path class="cls-8" d="M70.84,57.72a.27.27,0,0,1-.27.31c-.14,0-.25-.11-.25-.3s.11-.32.26-.32S70.84,57.54,70.84,57.72Zm-.42,0c0,.13.06.23.16.23s.16-.09.16-.23,0-.23-.16-.23S70.42,57.61,70.42,57.72Z"/><path class="cls-8" d="M71.4,57.72c0,.22-.13.31-.26.31a.26.26,0,0,1-.26-.3.28.28,0,0,1,.27-.32C71.3,57.41,71.4,57.54,71.4,57.72Zm-.42,0c0,.13.07.23.16.23s.16-.09.16-.23,0-.23-.16-.23S71,57.61,71,57.72Z"/><path class="cls-8" d="M71.48,57.15h.1V58h-.1Z"/><path class="cls-8" d="M67.48,59.08a.46.46,0,0,1-.2,0,.37.37,0,0,1-.37-.42.4.4,0,0,1,.39-.44.34.34,0,0,1,.18,0l0,.09a.33.33,0,0,0-.15,0,.3.3,0,0,0-.3.34c0,.21.11.34.29.34a.38.38,0,0,0,.16,0Z"/><path class="cls-8" d="M68,58.8c0,.22-.13.32-.26.32s-.26-.12-.26-.31a.27.27,0,0,1,.27-.31C67.92,58.5,68,58.62,68,58.8Zm-.42,0c0,.13.07.23.16.23s.16-.1.16-.23,0-.23-.16-.23S67.6,58.7,67.6,58.81Z"/><path class="cls-8" d="M68.1,58.23h.1v.87h-.1Z"/><path class="cls-8" d="M68.32,58.23h.1v.87h-.1Z"/><path class="cls-8" d="M68.59,58.83a.18.18,0,0,0,.18.2.31.31,0,0,0,.15,0l0,.08a.4.4,0,0,1-.18,0c-.17,0-.26-.12-.26-.3s.09-.32.25-.32.22.17.22.28v0Zm.28-.08a.14.14,0,0,0-.13-.18c-.1,0-.14.1-.15.18Z"/><path class="cls-8" d="M69.43,59.08a.31.31,0,0,1-.16,0c-.16,0-.26-.12-.26-.31a.28.28,0,0,1,.28-.31.26.26,0,0,1,.14,0l0,.08a.3.3,0,0,0-.12,0c-.12,0-.19.1-.19.23s.08.22.19.22a.3.3,0,0,0,.12,0Z"/><path class="cls-8" d="M69.63,58.34v.17h.14v.08h-.14v.32c0,.08,0,.12.07.12h.06v.08l-.08,0a.13.13,0,0,1-.11,0,.21.21,0,0,1,0-.15v-.33h-.08v-.08h.08v-.14Z"/><path class="cls-8" d="M69.94,58.34s0,.07-.06.07-.06,0-.06-.07a.07.07,0,0,1,.06-.07S69.94,58.3,69.94,58.34Zm-.11.76v-.59h.1v.59Z"/><path class="cls-8" d="M70.53,58.8a.28.28,0,0,1-.27.32c-.14,0-.25-.12-.25-.31a.27.27,0,0,1,.26-.31A.26.26,0,0,1,70.53,58.8Zm-.42,0c0,.13.06.23.16.23s.16-.1.16-.23,0-.23-.16-.23S70.11,58.7,70.11,58.81Z"/><path class="cls-8" d="M70.61,58.67v-.16h.08v.1h0a.19.19,0,0,1,.18-.11c.07,0,.19,0,.19.25v.35H71v-.34c0-.09,0-.17-.13-.17a.15.15,0,0,0-.13.11v.4h-.1Z"/><path class="cls-8" d="M71.47,58.78h0a.43.43,0,0,0,0-.07l.16-.2h.12l-.21.24.24.35H71.7l-.19-.28,0,.06v.22h-.1v-.87h.1Z"/><path class="cls-8" d="M72,58.34s0,.07-.06.07-.06,0-.06-.07a.07.07,0,0,1,.06-.07S72,58.3,72,58.34Zm-.11.76v-.59H72v.59Z"/><path class="cls-8" d="M72.19,58.34v.17h.14v.08h-.14v.32c0,.08,0,.12.08.12h0v.08l-.09,0a.12.12,0,0,1-.1,0,.21.21,0,0,1,0-.15v-.33H72v-.08h.08v-.14Z"/><path class="cls-19" d="M67.87,60.18l-.11,0c-.12,0-.21-.09-.21-.25a.22.22,0,0,1,.22-.25l.1,0v.05l-.09,0c-.09,0-.16.07-.16.2s.06.2.16.2l.09,0Z"/><path class="cls-19" d="M68.08,60.19v0h0a.13.13,0,0,1-.09.05.09.09,0,0,1-.09-.1c0-.09.06-.13.18-.13h0s0-.08-.07-.08a.11.11,0,0,0-.08,0v0a.24.24,0,0,1,.1,0c.09,0,.11.08.11.15v.21Zm0-.18c-.06,0-.13,0-.13.08a.06.06,0,0,0,0,.06.07.07,0,0,0,.07-.06V60Z"/><path class="cls-19" d="M68.25,59.74v.1h.08v0h-.08v.19s0,.07,0,.07h0v0h0a.06.06,0,0,1-.06,0s0-.05,0-.09v-.19h0v0h0v-.08Z"/><path class="cls-19" d="M68.41,60.19V59.7h.06l.13.25.08.16h0a1.34,1.34,0,0,1,0-.2V59.7h0v.49h0l-.13-.25-.08-.16h0v.41Z"/><path class="cls-19" d="M69.06,60c0,.13-.07.19-.14.19a.16.16,0,0,1-.15-.18c0-.12.07-.19.15-.19S69.06,59.91,69.06,60Zm-.23,0c0,.07,0,.13.09.13S69,60.09,69,60s0-.14-.09-.14S68.83,60,68.83,60Z"/><path class="cls-19" d="M69.09,60.15s0,0,0,0a0,0,0,0,1,0,0s0,.05,0,.05S69.09,60.18,69.09,60.15Z"/><path class="cls-19" d="M69.42,60l0,.15h0l.14-.49h.06l.14.49h0L69.57,60Zm.14,0,0-.14a.29.29,0,0,1,0-.09h0a.29.29,0,0,0,0,.09l0,.14Z"/><path class="cls-19" d="M70,60.18a.19.19,0,0,1-.1,0c-.12,0-.21-.09-.21-.25a.22.22,0,0,1,.22-.25l.1,0,0,.05-.08,0c-.1,0-.16.07-.16.2s.06.2.16.2l.08,0Z"/><path class="cls-19" d="M70,60.19V59.7h.06l.13.25a.79.79,0,0,1,.08.16h0c0-.07,0-.13,0-.2V59.7h0v.49h0l-.13-.25a1.19,1.19,0,0,1-.08-.16h0v.41Z"/><path class="cls-19" d="M70.62,60.19v-.13h-.19v0l.18-.3h.06V60h0v.05h0v.13Zm0-.18v-.23h0l0,.07-.1.16h.14Z"/><path class="cls-19" d="M70.86,59.78h0l-.07,0v0l.09-.06h0v.47h0Z"/><path class="cls-19" d="M71,60.15a0,0,0,0,1,0,0s0,0,0,0,0,.05,0,.05S71,60.18,71,60.15Z"/><path class="cls-19" d="M71.37,60c0,.16-.05.25-.14.25s-.13-.09-.13-.24.05-.25.13-.25S71.37,59.8,71.37,60Zm-.22,0c0,.12,0,.19.08.19s.08-.08.08-.2,0-.19-.08-.19S71.15,59.83,71.15,60Z"/><path class="cls-19" d="M71.52,59.78h0l-.07,0v0l.09-.06h0v.47h0Z"/><rect class="cls-28" x="66.65" y="60.45" width="5.74" height="0.04"/></g><path class="cls-28" d="M52,67.38a2.52,2.52,0,0,1,.15.24l.18.26a3.1,3.1,0,0,1,.18.26l.15.21.09.12a.68.68,0,0,0,0-.12s0-.11,0-.18l0-.23c0-.08,0-.17,0-.25a2,2,0,0,0,0-.24.88.88,0,0,0,0-.21h.15l-.05.2c0,.08,0,.18-.07.28s0,.21-.07.32,0,.22-.07.32,0,.18,0,.26a.91.91,0,0,1,0,.16h0l-.08-.12-.15-.22-.19-.28-.19-.27L52,67.67l-.09-.12s0,.1,0,.16a1.74,1.74,0,0,1,0,.22c0,.08,0,.16-.05.25s0,.16,0,.24a1.77,1.77,0,0,0,0,.2c0,.06,0,.11,0,.14h-.15a1.67,1.67,0,0,0,.06-.2c0-.09,0-.18.07-.29s0-.21.07-.32,0-.21.07-.31,0-.19,0-.26a.8.8,0,0,0,0-.16h0Z"/><path class="cls-28" d="M53.11,68.34a1,1,0,0,1,0-.24.8.8,0,0,1,.13-.21.7.7,0,0,1,.19-.15.78.78,0,0,1,.49,0,.39.39,0,0,1,.14.1.29.29,0,0,1,.08.14.45.45,0,0,1,0,.16.69.69,0,0,1-.05.24.78.78,0,0,1-.12.22.57.57,0,0,1-.46.2.5.5,0,0,1-.23,0,.31.31,0,0,1-.14-.11.39.39,0,0,1-.08-.14A.77.77,0,0,1,53.11,68.34Zm.18,0a.39.39,0,0,0,.06.23.25.25,0,0,0,.22.1.33.33,0,0,0,.21-.07.61.61,0,0,0,.15-.17,1,1,0,0,0,.08-.21,1.37,1.37,0,0,0,0-.19A.3.3,0,0,0,54,68a.31.31,0,0,0,0-.1l-.1-.07-.12,0a.37.37,0,0,0-.21.06.7.7,0,0,0-.14.16.76.76,0,0,0-.08.21A1.5,1.5,0,0,0,53.29,68.39Z"/><path class="cls-28" d="M54.7,68.45l.08-.13.09-.17L55,68c0-.06.06-.11.08-.16l.06-.11h.12a.45.45,0,0,0,0,.11,1,1,0,0,0,0,.16l0,.17,0,.17,0,.13a.64.64,0,0,0,0,.09h0c.08-.14.16-.27.23-.41s.15-.28.23-.42H56l-.09.14-.16.25-.19.32-.19.34h-.11c0-.1,0-.18,0-.26l0-.21c0-.06,0-.12,0-.18l0-.16h0l-.24.4c-.08.14-.16.28-.22.41h-.11a.44.44,0,0,1,0-.13s0-.11,0-.18l0-.2c0-.07,0-.14,0-.21l0-.18q0-.09,0-.15h.18c0,.12,0,.25,0,.39s.05.28.08.44h0A.44.44,0,0,1,54.7,68.45Z"/><path class="cls-28" d="M55.9,68.63l.06-.08a.07.07,0,0,1,.06,0l0,0s0,0,0,.06a.09.09,0,0,1,0,0l0,0-.35.42,0,0Z"/><path class="cls-28" d="M57.19,68.34l-.06.33h.3l.3,0s0,0,0,.06v.06h-.79c0-.1,0-.22.08-.36s.07-.27.1-.41,0-.28.08-.41,0-.25.06-.34h.7s0,0,0,.06v.06l-.11,0h-.4c0,.12,0,.23-.07.32s0,.18-.06.26h.52s0,0,0,.06a.07.07,0,0,0,0,.05h-.52C57.24,68.11,57.21,68.22,57.19,68.34Z"/><path class="cls-28" d="M58.28,68.24c-.05-.09-.09-.18-.14-.26L58,67.71h.21l0,.05a.36.36,0,0,0,0,.09l0,.08a.11.11,0,0,0,0,0l0,.07,0,.07.1-.12.09-.12,0,0,0,0,0-.05,0,0h.15l-.13.14-.13.15-.11.12-.06.07a.64.64,0,0,1,.06.11l0,.08a.56.56,0,0,1,.05.08l0,.11a.31.31,0,0,1,0,.1l.06.09h-.2s0,0,0,0l0-.07,0-.06,0,0c0-.06-.05-.1-.06-.14a.41.41,0,0,1,0-.09l-.12.16a.74.74,0,0,0-.09.12l-.07.09-.06.08h-.14l.09-.1.11-.13.12-.14Z"/><path class="cls-28" d="M59,68.56c0,.13,0,.26-.07.4s-.06.26-.08.38h-.16c0-.08,0-.18.06-.28l.06-.31c0-.11,0-.22.07-.33a2.82,2.82,0,0,1,.07-.31l0-.2c0-.07,0-.14,0-.2h.17l0,.09a.25.25,0,0,0,0,.1l.05-.07.09-.07.11-.05a.32.32,0,0,1,.14,0h.12a.34.34,0,0,1,.12.06.29.29,0,0,1,.1.12.45.45,0,0,1,0,.22,1,1,0,0,1,0,.24.84.84,0,0,1-.12.23.58.58,0,0,1-.19.15.48.48,0,0,1-.24.06h-.11l-.09,0a.27.27,0,0,1-.08-.07.28.28,0,0,1-.05-.11Zm.05-.15a.33.33,0,0,0,0,.15.2.2,0,0,0,.06.09.18.18,0,0,0,.09,0l.08,0a.38.38,0,0,0,.21-.07.55.55,0,0,0,.13-.17.7.7,0,0,0,.08-.2,1.41,1.41,0,0,0,0-.18.59.59,0,0,0,0-.14.36.36,0,0,0-.07-.1l-.08,0-.1,0a.42.42,0,0,0-.16,0,.52.52,0,0,0-.11.1.64.64,0,0,0-.08.14.58.58,0,0,0-.05.14.6.6,0,0,0,0,.12A.34.34,0,0,0,59.09,68.41Z"/><path class="cls-28" d="M60.58,67.1a.49.49,0,0,0,0,.13c0,.08,0,.16-.06.27s-.05.21-.08.33,0,.24-.08.36l-.06.33c0,.1,0,.18-.05.24H60c0-.09.05-.18.08-.28s0-.21.07-.32,0-.21.07-.31l.06-.3c0-.09,0-.18,0-.26a.74.74,0,0,0,0-.19h.19Z"/><path class="cls-28" d="M60.53,68.34a.67.67,0,0,1,0-.24,1.13,1.13,0,0,1,.12-.21.75.75,0,0,1,.2-.15.71.71,0,0,1,.26,0,.69.69,0,0,1,.22,0,.56.56,0,0,1,.15.1.39.39,0,0,1,.08.14.88.88,0,0,1,0,.16.67.67,0,0,1,0,.24.61.61,0,0,1-.13.22.62.62,0,0,1-.2.15.67.67,0,0,1-.26,0,.53.53,0,0,1-.23,0,.31.31,0,0,1-.14-.11.27.27,0,0,1-.07-.14A.39.39,0,0,1,60.53,68.34Zm.17,0a.33.33,0,0,0,.07.23.22.22,0,0,0,.21.1.38.38,0,0,0,.22-.07.58.58,0,0,0,.14-.17.49.49,0,0,0,.08-.21.68.68,0,0,0,0-.19.59.59,0,0,0,0-.13.33.33,0,0,0-.06-.1.31.31,0,0,0-.09-.07l-.13,0a.37.37,0,0,0-.21.06,1.07,1.07,0,0,0-.14.16,1.23,1.23,0,0,0-.1.41Z"/><path class="cls-28" d="M62.31,67.87h-.05a.26.26,0,0,0-.15.07.43.43,0,0,0-.12.2.13.13,0,0,1,0,.05.3.3,0,0,0,0,.1l0,.13,0,.14a.5.5,0,0,0,0,.12.51.51,0,0,0,0,.09h-.17a1,1,0,0,0,0-.12s0-.11,0-.18,0-.13.05-.2,0-.15,0-.22,0-.13,0-.19,0-.1,0-.14h.17v0a.08.08,0,0,0,0,.06.64.64,0,0,0,0,.07s0,0,0,.07h0l.07-.09.08-.09.09-.06.12,0s0,.07,0,.1v.08h-.06Z"/><path class="cls-28" d="M63.18,68.69l-.17.07-.19,0-.15,0a.37.37,0,0,1-.14-.07.38.38,0,0,1-.11-.14.51.51,0,0,1,0-.22.69.69,0,0,1,0-.25.45.45,0,0,1,.12-.2.49.49,0,0,1,.18-.14.59.59,0,0,1,.23,0l.15,0a.32.32,0,0,1,.22.17.48.48,0,0,1,0,.18.31.31,0,0,1,0,.1.25.25,0,0,0,0,.08h-.77a.11.11,0,0,1,0,0v.08a.48.48,0,0,0,0,.18.43.43,0,0,0,.09.1.19.19,0,0,0,.1,0H63l.1,0,.07,0,.05,0h0ZM63,67.75l-.1,0a.3.3,0,0,0-.11.06.62.62,0,0,0-.09.12.47.47,0,0,0-.07.19h.6a.11.11,0,0,1,0,0V68a.51.51,0,0,0,0-.13.16.16,0,0,0-.06-.08l-.07,0Z"/><path class="cls-28" d="M64.54,68.4a1.4,1.4,0,0,0,.09-.17l.12-.2.07-.13,0-.08a.14.14,0,0,0,0-.06l0-.05h.15l-.25.4-.25.41c-.08.14-.16.28-.23.42a3.84,3.84,0,0,0-.21.4H64l.18-.3.18-.28c0-.19-.09-.36-.13-.53s-.09-.34-.14-.52h.18c0,.1.05.22.08.37s.07.3.12.48h0Z"/><path class="cls-28" d="M65,68.34a.67.67,0,0,1,0-.24,1.13,1.13,0,0,1,.12-.21.75.75,0,0,1,.2-.15.71.71,0,0,1,.26,0,.69.69,0,0,1,.22,0,.56.56,0,0,1,.15.1.39.39,0,0,1,.08.14.88.88,0,0,1,0,.16.67.67,0,0,1,0,.24.61.61,0,0,1-.13.22.62.62,0,0,1-.2.15.67.67,0,0,1-.26,0,.53.53,0,0,1-.23,0,.38.38,0,0,1-.14-.11.37.37,0,0,1-.07-.14A.39.39,0,0,1,65,68.34Zm.17,0a.33.33,0,0,0,.07.23.22.22,0,0,0,.21.1.38.38,0,0,0,.22-.07.58.58,0,0,0,.14-.17.49.49,0,0,0,.08-.21.68.68,0,0,0,0-.19.59.59,0,0,0,0-.13.21.21,0,0,0-.06-.1.31.31,0,0,0-.09-.07l-.13,0a.37.37,0,0,0-.21.06,1.07,1.07,0,0,0-.14.16,1.23,1.23,0,0,0-.1.41Z"/><path class="cls-28" d="M66.9,68.6a.13.13,0,0,1-.06.07l-.08.06-.11,0h-.24a.24.24,0,0,1-.1,0,.19.19,0,0,1-.07-.08.2.2,0,0,1,0-.11,1.05,1.05,0,0,1,0-.13l0-.22,0-.08,0-.12a.59.59,0,0,1,0-.14s0-.09,0-.13h.19c0,.05,0,.12,0,.19l-.06.23c0,.07,0,.14,0,.2a1.15,1.15,0,0,0,0,.14.21.21,0,0,0,.06.16.23.23,0,0,0,.16.05.2.2,0,0,0,.11,0,.21.21,0,0,0,.1-.06.27.27,0,0,0,.07-.08.31.31,0,0,0,0-.1.53.53,0,0,0,0-.11l0-.14L67,68l0-.15a.52.52,0,0,0,0-.11.18.18,0,0,0,0-.05h.19a.53.53,0,0,0,0,.11c0,.05,0,.1,0,.17s0,.13,0,.2,0,.14-.05.21,0,.14,0,.2a1.15,1.15,0,0,0,0,.16h-.17l0-.15Z"/><path class="cls-28" d="M67.94,67.87h0a.26.26,0,0,0-.15.07.35.35,0,0,0-.11.2s0,0,0,.05l0,.1,0,.13,0,.14s0,.08,0,.12a.34.34,0,0,0,0,.09h-.18a1,1,0,0,0,0-.12s0-.11.05-.18,0-.13,0-.2,0-.15,0-.22l0-.19a.93.93,0,0,0,0-.14h.17v0s0,0,0,.06,0,0,0,.07a.64.64,0,0,0,0,.07h0l.08-.09.08-.09.09-.06.11,0s0,.07,0,.1a.22.22,0,0,0,0,.08h-.06Z"/><path class="cls-28" d="M68.58,67.79a.21.21,0,0,0-.12,0l-.08,0-.07,0a.25.25,0,0,0,0,.07.24.24,0,0,0,0,.08.19.19,0,0,0,0,.07l0,0,.06,0,.07,0,.07,0,.07,0,0,.07a.22.22,0,0,1,0,.09.4.4,0,0,1,0,.15.58.58,0,0,1-.1.12.39.39,0,0,1-.14.08.58.58,0,0,1-.19,0h-.12a.31.31,0,0,1-.12,0,.56.56,0,0,0,0-.08l0-.06h0a.28.28,0,0,0,.09.1.28.28,0,0,0,.13,0l.11,0,.08-.06a.21.21,0,0,0,0-.15.14.14,0,0,0,0-.11.5.5,0,0,0-.13-.07l-.08,0-.06-.05a.18.18,0,0,1-.05-.07.3.3,0,0,1,0-.1.27.27,0,0,1,0-.12.25.25,0,0,1,.07-.12.36.36,0,0,1,.12-.08.38.38,0,0,1,.19,0h.11l.09,0,0,.1a.13.13,0,0,0,0,.06h0A.2.2,0,0,0,68.58,67.79Z"/><path class="cls-28" d="M69.62,68.69l-.18.07-.18,0-.15,0a.41.41,0,0,1-.15-.07.53.53,0,0,1-.11-.14.72.72,0,0,1,0-.22,1,1,0,0,1,0-.25.56.56,0,0,1,.12-.2.49.49,0,0,1,.18-.14.6.6,0,0,1,.24,0l.15,0a.27.27,0,0,1,.12.06.31.31,0,0,1,.09.11.48.48,0,0,1,0,.18v.1a.31.31,0,0,0,0,.08H69a.07.07,0,0,0,0,0v.08a.48.48,0,0,0,0,.18.39.39,0,0,0,.08.1.22.22,0,0,0,.11,0h.22l.09,0,.07,0,0,0h0Zm-.23-.94-.1,0a.24.24,0,0,0-.11.06.4.4,0,0,0-.1.12.69.69,0,0,0-.07.19h.6a.07.07,0,0,0,0,0s0,0,0-.07a.51.51,0,0,0,0-.13l-.06-.08-.08,0Z"/><path class="cls-28" d="M70.38,67.1a.66.66,0,0,1,0,.13c0,.08,0,.16-.06.27s-.05.21-.07.33-.06.24-.08.36,0,.22-.07.33,0,.18,0,.24h-.18c0-.09.05-.18.07-.28s0-.21.07-.32.05-.21.07-.31l.06-.3c0-.09,0-.18,0-.26s0-.14,0-.19h.18Z"/><path class="cls-28" d="M70.48,67.73h.08a1.93,1.93,0,0,1,0-.2,1.21,1.21,0,0,0,0-.14l.06-.11a.76.76,0,0,1,.09-.09l.1-.07.13,0h0l0,0,0,.08a.64.64,0,0,1,0,.07h0l-.06,0-.08,0a.18.18,0,0,0-.11,0l0,.07a.41.41,0,0,0,0,.08v.31h.19l0,.09H70.7c0,.12,0,.24-.08.36s-.05.24-.07.37a.36.36,0,0,0,0,.11.43.43,0,0,0,0,.11h-.17c0-.07,0-.15,0-.23l.06-.25a2,2,0,0,0,0-.24c0-.09,0-.16,0-.23h-.16v-.09Z"/><path class="cls-28" d="M71.22,68.67a.11.11,0,0,1,0-.08.11.11,0,0,1,.09,0,.09.09,0,0,1,.08,0,.11.11,0,0,1-.08.19.14.14,0,0,1-.09,0A.11.11,0,0,1,71.22,68.67Zm.28-1.25a.2.2,0,0,0,0-.07s0,0,0-.06a.1.1,0,0,1,0-.05h.06a.09.09,0,0,1,.07,0,.11.11,0,0,1,0,0v.07a.64.64,0,0,1,0,.07l-.28.94h0Z"/></svg>