<svg id="레이어_1" data-name="레이어 1" xmlns="http://www.w3.org/2000/svg" viewBox="0 0 185 40"><defs><style>.cls-1{fill:#fff;}.cls-2{fill:#ccc;}.cls-3{fill:#999;}.cls-4{fill:#1ec800;}</style></defs><title>NAVER</title><path class="cls-1" d="M185,36.55A3.46,3.46,0,0,1,181.55,40H3.44A3.45,3.45,0,0,1,0,36.55V3.45A3.45,3.45,0,0,1,3.44,0H181.55A3.46,3.46,0,0,1,185,3.45Z"/><rect class="cls-2" x="39.43" y="0.57" width="0.57" height="38.86"/><path class="cls-2" d="M181.55.57a2.88,2.88,0,0,1,2.88,2.88v33.1a2.88,2.88,0,0,1-2.88,2.88H3.44A2.88,2.88,0,0,1,.57,36.55V3.45A2.88,2.88,0,0,1,3.44.57H181.55m0-.57H3.44A3.45,3.45,0,0,0,0,3.45v33.1A3.45,3.45,0,0,0,3.44,40H181.55A3.46,3.46,0,0,0,185,36.55V3.45A3.46,3.46,0,0,0,181.55,0Z"/><path class="cls-3" d="M57.37,21.27a12,12,0,0,0,3.11-.41v1.27a14.41,14.41,0,0,1-3.49.41H55.87V15.25h1.5ZM61,14.56h1.45V25.28H61V19.12H59V17.87h2Zm3.84,11H63.37V14.44h1.44Z"/><path class="cls-3" d="M72.42,19.09c0,2.6-1.17,4-2.92,4s-2.91-1.43-2.91-4,1.16-4,2.91-4S72.42,16.5,72.42,19.09Zm-1.52,0c0-1.71-.51-2.75-1.4-2.75s-1.4,1-1.4,2.75.51,2.76,1.4,2.76S70.9,20.81,70.9,19.09ZM74,14.44h1.49V25.56H74Z"/><path class="cls-3" d="M83,18.22h2V14.44h1.49V25.56H85V19.48H83v3.14H77.82V15.26h1.51v2.66h2.21V15.26H83Zm-1.46.92H79.32V21.4h2.23Z"/><path class="cls-3" d="M97.28,19.09c0,2.6-1.14,4-2.89,4s-2.89-1.43-2.89-4,1.14-4,2.89-4S97.28,16.5,97.28,19.09Zm-1.51,0c0-1.71-.49-2.75-1.38-2.75S93,17.38,93,19.09s.49,2.76,1.38,2.76S95.77,20.81,95.77,19.09Zm6,.62H100v5.85H98.49V14.44H100v4h1.74Z"/><path class="cls-3" d="M108.42,19.09c0,2.6-1.17,4-2.92,4s-2.91-1.43-2.91-4,1.16-4,2.91-4S108.42,16.5,108.42,19.09Zm-1.52,0c0-1.71-.51-2.75-1.4-2.75s-1.4,1-1.4,2.75.51,2.76,1.4,2.76S106.9,20.81,106.9,19.09ZM110,14.44h1.49V25.56H110Z"/><path class="cls-3" d="M113.94,15.37h5.3v1.27h-3.79v4.89h1.13a20.65,20.65,0,0,0,4-.48v1.24a18.66,18.66,0,0,1-4.31.51h-2.3Zm7-.93h1.49V25.56H121Z"/><path class="cls-3" d="M125.84,21.29V17.66h5.58V16.42h-5.59V15.16h7.08v3.71h-5.6v1.18h5.93v1.24h-3.13V22.8h4.39V24H124.21V22.8h4.39V21.29Z"/><path class="cls-3" d="M139.83,21.29V17.66h5.58V16.42h-5.59V15.16h7.08v3.71h-5.6v1.18h5.94v1.24h-3.13V22.8h4.39V24H138.2V22.8h4.39V21.29Z"/><path class="cls-3" d="M156.39,16.71h-5.67V15.42H158a57.47,57.47,0,0,1-.71,7.24h2.25V23.9H149.21V22.66h6.5A34.81,34.81,0,0,0,156.39,16.71Z"/><path class="cls-3" d="M160.6,17.76a3,3,0,1,1,2.94,2.86A2.83,2.83,0,0,1,160.6,17.76Zm1.53,0a1.4,1.4,0,0,0,1.43,1.59A1.42,1.42,0,0,0,165,17.76a1.45,1.45,0,0,0-1.44-1.65C162.68,16.11,162.13,16.73,162.13,17.76Zm7.56,7.58h-7.27V21.91h1.47v2.17h5.8Zm-.23-3H168V14.44h1.48Z"/><polygon class="cls-4" points="23.03 11.25 23.03 20.08 16.99 11.25 10.45 11.25 10.45 28.75 16.96 28.75 16.96 19.92 23.01 28.75 29.55 28.75 29.55 11.25 23.03 11.25"/></svg>