<?xml version="1.0" encoding="utf-8"?>
<!-- Generator: Adobe Illustrator 23.0.1, SVG Export Plug-In . SVG Version: 6.00 Build 0)  -->
<svg version="1.1" id="Layer_1" xmlns="http://www.w3.org/2000/svg" xmlns:xlink="http://www.w3.org/1999/xlink" x="0px" y="0px"
	 viewBox="0 0 512 512" style="enable-background:new 0 0 512 512;" xml:space="preserve">
<style type="text/css">
	.st0{fill:#F0A247;}
	.st1{fill:#FFFFFF;}
</style>
<g id="Others">
</g>
<g id="SEO_x2F__Web">
</g>
<g id="Finance__x2F__Money">
</g>
<g id="E-Commerce__x2F__Shopping">
</g>
<g id="Strategy">
</g>
<g>
	<path class="st0" d="M491.4,239.8L387.8,60.2C382,50.2,371.3,44,359.7,44H152.3c-11.6,0-22.3,6.2-28.1,16.2L20.6,239.8
		c-5.8,10-5.8,22.4,0,32.4l103.7,179.6c5.8,10,16.5,16.2,28.1,16.2h207.3c11.6,0,22.3-6.2,28.1-16.2l103.7-179.6
		C497.2,262.2,497.2,249.8,491.4,239.8z"/>
	<g>
		<g>
			<path class="st1" d="M244.1,171.9c0,0-93.2,9.8-73.6,114.7h14.7c0,0-3.9-44.5,18-64.6c0,0-26.2,44.8,0,97.3H256V207.5
				L244.1,171.9z"/>
			<path class="st1" d="M267.9,171.9c0,0,93.2,9.8,73.6,114.7h-14.7c0,0,3.9-44.5-18-64.6c0,0,26.2,44.8,0,97.3H256V207.5
				L267.9,171.9z"/>
		</g>
		<path class="st1" d="M243.5,386.2c0,4.9-4,8.9-8.9,8.9l0,0c-4.9,0-8.9-4-8.9-8.9v-13.6c0-4.9,4-8.9,8.9-8.9l0,0
			c4.9,0,8.9,4,8.9,8.9V386.2z"/>
		<path class="st1" d="M185.3,286.8c0.1,3.5-3.1,6.5-7.2,6.7l0,0c-4.1,0.2-7.6-2.6-7.7-6.1l-0.4-9.8c-0.1-3.5,3.1-6.5,7.2-6.7l0,0
			c4.1-0.2,7.6,2.6,7.7,6.1L185.3,286.8z"/>
		<path class="st1" d="M341.3,287.6c-0.2,3.5-3.8,6.2-7.9,5.9l0,0c-4.1-0.3-7.3-3.4-7-6.9l0.7-9.8c0.2-3.5,3.8-6.2,7.9-5.9l0,0
			c4.1,0.3,7.3,3.4,7,6.9L341.3,287.6z"/>
		<path class="st1" d="M198.4,299.4c0,0,2,40.4,27.4,80.9h17.8v-60.7h6.2v-20.2H198.4z"/>
		<g>
			<path class="st1" d="M268.5,386.2c0,4.9,4,8.9,8.9,8.9l0,0c4.9,0,8.9-4,8.9-8.9v-13.6c0-4.9-4-8.9-8.9-8.9l0,0
				c-4.9,0-8.9,4-8.9,8.9V386.2z"/>
			<path class="st1" d="M313.6,299.4c0,0-2,40.4-27.4,80.9h-17.8v-60.7h-6.2v-20.2H313.6z"/>
		</g>
		<ellipse class="st1" cx="256" cy="211.2" rx="55.8" ry="40.1"/>
		<circle class="st1" cx="256" cy="141.2" r="24.3"/>
	</g>
</g>
</svg>
