<?xml version="1.0" encoding="utf-8"?>
<!-- Generator: Adobe Illustrator 23.0.1, SVG Export Plug-In . SVG Version: 6.00 Build 0)  -->
<svg version="1.1" id="Layer_1" xmlns="http://www.w3.org/2000/svg" xmlns:xlink="http://www.w3.org/1999/xlink" x="0px" y="0px"
	 viewBox="0 0 512 512" style="enable-background:new 0 0 512 512;" xml:space="preserve">
<style type="text/css">
	.st0{fill:#A0C931;}
	.st1{fill:#FFFFFF;}
</style>
<g id="Others">
</g>
<g id="SEO_x2F__Web">
</g>
<g id="Finance__x2F__Money">
</g>
<g id="E-Commerce__x2F__Shopping">
</g>
<g id="Strategy">
</g>
<g>
	<path class="st0" d="M489.1,238.4L386.3,60.4c-5.7-9.9-16.4-16.1-27.9-16.1H152.8c-11.5,0-22.1,6.1-27.9,16.1L22.1,238.4
		c-5.7,10-5.7,22.2,0,32.2L125,448.7c5.7,9.9,16.4,16.1,27.9,16.1h205.6c11.5,0,22.1-6.1,27.9-16.1l102.8-178.1
		C494.9,260.7,494.9,248.4,489.1,238.4z"/>
	<g>
		<g>
			<path class="st0" d="M270.7,265.5c0,40.5-32.9,73.4-73.4,73.4c-40.5,0-73.4-32.9-73.4-73.4c0-40.5,32.9-73.4,73.4-73.4
				C237.8,192.1,270.7,224.9,270.7,265.5z"/>
			<path class="st1" d="M197.3,343.2c-42.8,0-77.7-34.9-77.7-77.7c0-42.8,34.8-77.7,77.7-77.7c42.8,0,77.7,34.9,77.7,77.7
				C275,308.3,240.1,343.2,197.3,343.2z M197.3,196.3c-38.1,0-69.1,31-69.1,69.1c0,38.1,31,69.1,69.1,69.1c38.1,0,69.1-31,69.1-69.1
				C266.4,227.4,235.4,196.3,197.3,196.3z"/>
		</g>
		<g>
			<path class="st0" d="M205.3,198.1c0,0,12.8-1.9,13.9-19.3c-11.1,0-13.9,0-13.9,0s-3-10.3-6.8-18.6c-3.9,9-9,18.9-9,18.9l-13,0.2
				c0,0,2.8,18.5,16.9,18.8C209,198.4,205.3,198.1,205.3,198.1z"/>
			<path class="st1" d="M203.4,202.5c-2.1,0-5.5,0-10.2-0.1c-7.4-0.1-13.4-4.2-17.4-11.8c-2.8-5.3-3.6-10.5-3.6-10.7
				c-0.2-1.2,0.2-2.5,1-3.4c0.8-0.9,2-1.5,3.2-1.5l10.4-0.1c1.7-3.4,5-10.2,7.7-16.4c0.7-1.6,2.2-2.6,3.9-2.6c0,0,0,0,0.1,0
				c1.7,0,3.2,1,3.9,2.5c2.7,5.8,4.9,12.4,6.1,16.1h10.7c1.2,0,2.3,0.5,3.1,1.4c0.8,0.9,1.2,2,1.2,3.2c-1,14.9-9.9,21.1-15.8,22.8
				c-0.6,0.3-1.3,0.5-2.3,0.5C205,202.5,204.3,202.5,203.4,202.5z M182,183.5c0.4,1,0.9,2.2,1.5,3.3c2.5,4.7,5.8,7,9.9,7.1
				c6.5,0.1,9.5,0.1,10.8,0.1c0.1,0,0.3,0,0.4-0.1c1-0.2,7.4-1.7,9.6-10.8h-8.9c-1.9,0-3.6-1.3-4.1-3.1c0-0.1-1.2-4-2.9-8.9
				c-2.6,5.5-4.8,9.8-5,10.1c-0.7,1.4-2.2,2.3-3.7,2.3L182,183.5z"/>
		</g>
		<g>
			<path class="st0" d="M345.7,275.2c0,0-6.5-41.9,4.4-40.3c10.9,1.6-12.8-31.8,0-29.2c12.8,2.6-14-41.8,3-39.8
				c16.9,1.9,22.1,30.8,26.6,26.3c4.5-4.5,14.2,26.5,0,39c-14.2,12.5,10.6,3.7,7.4,8.6C363.6,275.2,345.7,275.2,345.7,275.2z"/>
			<path class="st1" d="M345.7,279.4c-2.1,0-3.9-1.5-4.2-3.6c-0.1-0.4-1.3-8.5-1.8-17.6c-0.9-17.9,2-23,4.3-25.3
				c1.3-1.3,2.9-2.1,4.6-2.3c-0.5-2.3-1.9-6-2.8-8.4c-3.1-8.2-5.6-14.7-2.2-18.7c1-1.2,2.8-2.5,5.9-2.3c-0.3-2.8-1.8-8.2-2.8-11.7
				c-3-10.3-5.7-19.9-1.4-25.1c1.3-1.6,3.9-3.3,8.3-2.8c12.4,1.4,19.1,13.7,23.5,21.9c0.7,1.3,1.6,3,2.3,4.1
				c0.9-0.2,1.8-0.2,2.8,0.1c4.7,1.4,7.1,8.8,8,13.2c2.4,10.6,1.7,24.7-7.1,33c3.3-0.1,6.4,0,8,2.7c0.5,0.8,1.3,3-0.4,5.5
				c-10.1,15.3-20.5,26.2-30.9,32.4C351.6,279.3,346.3,279.4,345.7,279.4z M349.9,239.1c-0.6,0.9-2.4,4.8-1.7,18.4
				c0.2,4.7,0.7,9.3,1.1,12.5c5.5-2,16.8-8.2,30.6-27.5c-3.6,0.1-7.2-0.4-8.6-3.8c-1.8-4.5,2.9-8.6,5.4-10.9
				c4.8-4.2,5.9-11,5.9-15.9c0.1-6.8-1.6-12.6-2.9-15.2c-0.6,0.1-1.3,0.2-2,0.1c-3.6-0.5-5.5-4-8.4-9.3c-3.8-7-9-16.5-17-17.4
				c-0.4,0-0.7,0-0.8,0c-0.2,0.4-0.5,1.8,0.1,5.5c0.6,3.5,1.8,7.6,2.9,11.6c2.8,9.8,4.8,16.8,1.2,20.8c-0.8,0.9-2.5,2.2-5.4,2.1
				c0.5,2.5,2.1,6.7,3.1,9.2c2.9,7.8,5.3,13.9,2.2,17.7C355.1,237.9,353.3,239.4,349.9,239.1z"/>
		</g>
		<g>
			<path class="st0" d="M143.6,337.9l141.7-78.7c22.6-12.5,50.9-1.2,58.6,23.5l0,0c7.7,24.8-9.5,50.4-35.4,52.6L147,348.9
				C140.7,349.4,138.1,341,143.6,337.9z"/>
			<path class="st1" d="M146.4,353.2c-4.5,0-8.3-2.8-9.6-7.2c-1.4-4.7,0.5-9.4,4.8-11.8l0,0l141.7-78.7c11.9-6.6,25.9-7.5,38.5-2.4
				c12.6,5.1,22.2,15.4,26.2,28.4c4.1,13.1,2,27.1-5.6,38.4c-7.6,11.4-19.9,18.5-33.5,19.7l-161.5,13.6
				C147,353.2,146.7,353.2,146.4,353.2z M145.7,341.6c-0.9,0.5-0.9,1.3-0.8,1.8c0.2,0.6,0.6,1.2,1.7,1.1L308.1,331
				c11-0.9,20.9-6.7,27.1-15.9c6.2-9.2,7.8-20.6,4.6-31.1c-3.3-10.5-11-18.9-21.2-23c-10.2-4.1-21.6-3.4-31.2,2L145.7,341.6
				L145.7,341.6z"/>
		</g>
		<path class="st1" d="M342.6,281.8l-1.5-8.4h-0.1c0.2-0.1,6.3-1.4,11.9-10.1c5.4-8.4,11.3-25.5,8.4-58.6c-0.2-2.4,1.5-4.4,3.9-4.6
			c2.3-0.2,4.4,1.5,4.6,3.9C376.1,275.1,344,281.6,342.6,281.8z"/>
		<path class="st1" d="M304.5,286.3c-1.7,0-3.3-1-4-2.7c-2.4-5.9-8-10-16.7-12.2c-6.9-1.8-13-1.6-13.1-1.6c-2.4,0-4.4-1.8-4.4-4.2
			c-0.1-2.4,1.8-4.4,4.1-4.4c1.2,0,29.9-0.7,38,19.2c0.9,2.2-0.2,4.7-2.4,5.6C305.6,286.2,305.1,286.3,304.5,286.3z"/>
		<path class="st1" d="M270.7,300.5c-1.8,0-3.5-1.2-4.1-3c-1.6-5.3-5.5-8.7-11.6-10.3c-4.9-1.2-9.3-0.8-9.4-0.8
			c-2.4,0.3-4.5-1.4-4.7-3.8c-0.2-2.3,1.4-4.5,3.8-4.7c8.3-0.9,25.3,1.5,30.1,17c0.7,2.3-0.6,4.7-2.8,5.4
			C271.5,300.4,271.1,300.5,270.7,300.5z"/>
		<path class="st1" d="M243.2,311.3c-1.7,0-3.3-1-4-2.7c-1.5-3.8-3.8-6.2-6.8-7.4c-6.1-2.5-13.6,0.6-13.7,0.6
			c-2.2,0.9-4.7-0.1-5.6-2.2c-0.9-2.2,0.1-4.7,2.2-5.6c0.4-0.2,10.8-4.6,20.3-0.7c5.2,2.1,9.1,6.2,11.5,12.1
			c0.9,2.2-0.2,4.7-2.4,5.6C244.2,311.2,243.7,311.3,243.2,311.3z"/>
	</g>
</g>
</svg>
