<?xml version="1.0" encoding="utf-8"?>
<!-- Generator: Adobe Illustrator 23.0.1, SVG Export Plug-In . SVG Version: 6.00 Build 0)  -->
<svg version="1.1" id="Layer_1" xmlns="http://www.w3.org/2000/svg" xmlns:xlink="http://www.w3.org/1999/xlink" x="0px" y="0px"
	 viewBox="0 0 512 512" style="enable-background:new 0 0 512 512;" xml:space="preserve">
<style type="text/css">
	.st0{fill:#E47D8F;}
	.st1{opacity:0.6;}
	.st2{opacity:0.5;}
	.st3{fill:#040000;}
	.st4{fill:#FFFFFF;}
</style>
<g id="Others">
</g>
<g id="SEO_x2F__Web">
</g>
<g id="Finance__x2F__Money">
</g>
<g id="E-Commerce__x2F__Shopping">
</g>
<g id="Strategy">
</g>
<g>
	<path class="st0" d="M489.4,238.9L386.3,60.4c-5.8-10-16.4-16.1-27.9-16.1H152.3c-11.5,0-22.2,6.2-27.9,16.1L21.3,238.9
		c-5.8,10-5.8,22.3,0,32.3l103.1,178.5c5.8,10,16.4,16.1,27.9,16.1h206.1c11.5,0,22.2-6.1,27.9-16.1l103.1-178.5
		C495.2,261.2,495.2,248.9,489.4,238.9z"/>
	<g>
		<g class="st1">
			<g class="st2">
				<g>
					<path class="st3" d="M348.3,190.3c-28.2-12.3-36.3,11-49.8,6.1c-13.5-4.9-18.3-49.7-18.3-49.7c-13.5-1.2-30.7,7.4-30.7,7.4
						c-2.5,54,44.2,67.5,20.9,126.5c-7.9,20-24.6,9.8-39.3-2.5c-11.8-9.9-29.2-3.9-35.6-1.2c-1.5,1.8-2.7,3.9-3.3,6
						c-0.5,1.6-1.9,2.7-3.5,2.7c-0.3,0-0.7,0-1-0.1c-1.9-0.6-3.1-2.6-2.5-4.5c1-3.6,3.2-6.9,5.6-9.7c-3.2-6.6-10.6-14.5-27.2-6.6
						c-34.2,16.3-27,77.4-27,77.4l28.2,7.4c0,0-0.6-16.7,2.8-28c-0.7,0.1-1.4,0.2-2.1,0.2c-2.7,0-5.6-0.5-8.4-1.6
						c-1.9-0.7-2.9-2.8-2.2-4.7c0.7-1.9,2.8-2.9,4.7-2.2c6.2,2.3,10.6,0.7,13.1-1.1c3.5-2.5,5.7-6.8,5.6-11.1c0,0,0,0,0-0.1
						c0-0.1,0-0.3,0-0.4c0-0.1,0-0.2,0-0.3c0-0.1,0.1-0.2,0.1-0.4c0-0.1,0.1-0.2,0.1-0.3c0-0.1,0.1-0.2,0.2-0.3
						c0.1-0.1,0.1-0.2,0.2-0.3c0.1-0.1,0.1-0.2,0.2-0.3c0.1-0.1,0.1-0.2,0.2-0.3c0.1-0.1,0.2-0.1,0.3-0.2c0.1-0.1,0.2-0.2,0.3-0.2
						c0.1-0.1,0.2-0.1,0.3-0.2c0.1-0.1,0.2-0.1,0.4-0.2c0.1,0,0.2-0.1,0.3-0.1c0.1,0,0.3-0.1,0.4-0.1c0,0,0,0,0.1,0
						c0.1,0,0.2,0,0.3,0c0.1,0,0.2,0,0.3,0c0,0,0.1,0,0.1,0c0.1,0,0.1,0,0.2,0c0.7,0,1.3,0.2,1.9,0.6c0.1,0,0.1,0.1,0.2,0.1
						c0.1,0.1,0.2,0.2,0.3,0.3c0.1,0.1,0.2,0.3,0.3,0.4c0,0,0.1,0.1,0.1,0.1c0.1,0.2,0.2,0.3,0.3,0.5c0,0,0,0.1,0.1,0.1
						c0.1,0.1,0.1,0.3,0.2,0.5c0,0.1,0.1,0.2,0.1,0.3c0,0,0,0.1,0,0.1c0,0.1,2,10.3,7.8,22.4c8.4,12.1,20.1,30.1,52.4,38
						c55.3,13.5,99.5-18.4,121.6-68.8C381.3,259.9,376.5,202.6,348.3,190.3z"/>
				</g>
			</g>
		</g>
		<g>
			<g>
				<path class="st4" d="M348.3,190.3c-28.2-12.3-36.3,11-49.8,6.1c-13.5-4.9-18.3-49.7-18.3-49.7c-13.5-1.2-30.7,7.4-30.7,7.4
					c-2.5,54,44.2,67.5,20.9,126.5c-7.9,20-24.6,9.8-39.3-2.5c-11.8-9.9-29.2-3.9-35.6-1.2c-1.5,1.8-2.7,3.9-3.3,6
					c-0.5,1.6-1.9,2.7-3.5,2.7c-0.3,0-0.7,0-1-0.1c-1.9-0.6-3.1-2.6-2.5-4.5c1-3.6,3.2-6.9,5.6-9.7c-3.2-6.6-10.6-14.5-27.2-6.6
					c-34.2,16.3-27,77.4-27,77.4l28.2,7.4c0,0-0.6-16.7,2.8-28c-0.7,0.1-1.4,0.2-2.1,0.2c-2.7,0-5.6-0.5-8.4-1.6
					c-1.9-0.7-2.9-2.8-2.2-4.7c0.7-1.9,2.8-2.9,4.7-2.2c6.2,2.3,10.6,0.7,13.1-1.1c3.5-2.5,5.7-6.8,5.6-11.1c0,0,0,0,0-0.1
					c0-0.1,0-0.3,0-0.4c0-0.1,0-0.2,0-0.3c0-0.1,0.1-0.2,0.1-0.4c0-0.1,0.1-0.2,0.1-0.3c0-0.1,0.1-0.2,0.2-0.3
					c0.1-0.1,0.1-0.2,0.2-0.3c0.1-0.1,0.1-0.2,0.2-0.3c0.1-0.1,0.1-0.2,0.2-0.3c0.1-0.1,0.2-0.1,0.3-0.2c0.1-0.1,0.2-0.2,0.3-0.2
					c0.1-0.1,0.2-0.1,0.3-0.2c0.1-0.1,0.2-0.1,0.4-0.2c0.1,0,0.2-0.1,0.3-0.1c0.1,0,0.3-0.1,0.4-0.1c0,0,0,0,0.1,0
					c0.1,0,0.2,0,0.3,0c0.1,0,0.2,0,0.3,0c0,0,0.1,0,0.1,0c0.1,0,0.1,0,0.2,0c0.7,0,1.3,0.2,1.9,0.6c0.1,0,0.1,0.1,0.2,0.1
					c0.1,0.1,0.2,0.2,0.3,0.3c0.1,0.1,0.2,0.3,0.3,0.4c0,0,0.1,0.1,0.1,0.1c0.1,0.2,0.2,0.3,0.3,0.5c0,0,0,0.1,0.1,0.1
					c0.1,0.1,0.1,0.3,0.2,0.5c0,0.1,0.1,0.2,0.1,0.3c0,0,0,0.1,0,0.1c0,0.1,2,10.3,7.8,22.4c8.4,12.1,20.1,30.1,52.4,38
					c55.3,13.5,99.5-18.4,121.6-68.8C381.3,259.9,376.5,202.6,348.3,190.3z"/>
			</g>
		</g>
	</g>
</g>
</svg>
