<?xml version="1.0" encoding="utf-8"?>
<!-- Generator: Adobe Illustrator 23.0.1, SVG Export Plug-In . SVG Version: 6.00 Build 0)  -->
<svg version="1.1" id="Layer_1" xmlns="http://www.w3.org/2000/svg" xmlns:xlink="http://www.w3.org/1999/xlink" x="0px" y="0px"
	 viewBox="0 0 512 512" style="enable-background:new 0 0 512 512;" xml:space="preserve">
<style type="text/css">
	.st0{fill:#4CAAC3;}
	.st1{fill:#FFFFFF;}
</style>
<g id="Others">
</g>
<g id="SEO_x2F__Web">
</g>
<g id="Finance__x2F__Money">
</g>
<g id="E-Commerce__x2F__Shopping">
</g>
<g id="Strategy">
</g>
<g>
	<g>
		<g>
			<path class="st0" d="M489.6,239.9L386.7,61.7c-5.8-10-16.4-16.1-27.9-16.1H153.1c-11.5,0-22.1,6.1-27.9,16.1L22.4,239.9
				c-5.8,10-5.8,22.2,0,32.2l102.9,178.2c5.7,10,16.4,16.1,27.9,16.1h205.8c11.5,0,22.1-6.1,27.9-16.1l102.9-178.2
				C495.4,262.1,495.4,249.9,489.6,239.9z"/>
		</g>
	</g>
	<g>
		<g>
			<path class="st1" d="M263,341.8c-32.5,0-61.5-20.7-72-51.5c-0.5-1.5-0.3-3.1,0.6-4.3c0.9-1.3,2.4-2,3.9-2l21.3-0.2h0.1
				c1.8,0,3.5,1,4.3,2.7c8,16,24,25.9,41.8,25.9c25.7,0,46.7-20.9,46.7-46.7c0-20.3-13-38.2-32.3-44.4c-1.4-0.4-2.5-1.5-3-2.8
				c-0.5-1.3-0.4-2.8,0.3-4.1l9.9-17.5c1.2-2.1,3.7-3,5.9-2.1c14.2,5.5,26.3,15,35,27.5c8.9,12.8,13.6,27.8,13.6,43.5
				C339.1,307.7,304.9,341.8,263,341.8z M202.6,293.5c10.7,23.4,34.2,38.7,60.4,38.7c36.7,0,66.4-29.8,66.4-66.4
				c0-13.7-4.1-26.8-11.9-38c-6.8-9.8-16-17.5-26.8-22.4l-5,8.9c20.3,8.9,33.6,29,33.6,51.5c0,31-25.3,56.3-56.3,56.3
				c-10.7,0-21.1-3-30.1-8.7c-7.9-5-14.4-11.8-18.9-19.9L202.6,293.5z"/>
		</g>
		<g>
			<path class="st1" d="M303.4,392.9h-80.8c-2.7,0-4.8-2.1-4.8-4.8v-18.2c0-2.7,2.1-4.8,4.8-4.8h80.8c2.7,0,4.8,2.2,4.8,4.8v18.2
				C308.2,390.8,306.1,392.9,303.4,392.9z M227.4,383.3h71.2v-8.5h-71.2V383.3z"/>
		</g>
		<g>
			<path class="st1" d="M263,337v32.9V337z"/>
			<path class="st1" d="M263,374.7c-2.6,0-4.8-2.1-4.8-4.8V337c0-2.7,2.2-4.8,4.8-4.8c2.7,0,4.8,2.2,4.8,4.8v32.9
				C267.8,372.6,265.7,374.7,263,374.7z"/>
		</g>
		<g>
			<path class="st1" d="M177.7,288.7h64.8H177.7z"/>
			<path class="st1" d="M242.5,293.6h-64.8c-2.7,0-4.8-2.2-4.8-4.8c0-2.7,2.1-4.8,4.8-4.8h64.8c2.7,0,4.8,2.2,4.8,4.8
				C247.3,291.4,245.2,293.6,242.5,293.6z"/>
		</g>
		<g>
			<path class="st1" d="M254.5,251c-1,0-2.1-0.3-2.9-1l-50-38.6c-1-0.8-1.7-1.9-1.8-3.2c-0.2-1.3,0.2-2.6,1-3.6l57.1-73.9
				c0.8-1,1.9-1.7,3.2-1.8c1.3-0.1,2.5,0.2,3.5,1l50,38.6c2.1,1.6,2.5,4.6,0.8,6.7l-57.1,73.9C257.4,250.4,255.9,251,254.5,251z
				 M211.2,206.7l42.4,32.7l51.2-66.3l-42.4-32.7L211.2,206.7z"/>
		</g>
		<g>
			<path class="st1" d="M306.1,172.9c-1,0-2.1-0.3-2.9-1l-39-30.1c-1-0.8-1.7-1.9-1.8-3.2c-0.2-1.3,0.2-2.5,1-3.6l10.8-14
				c1.6-2.1,4.7-2.5,6.8-0.9l39,30.1c1,0.8,1.7,2,1.8,3.2c0.2,1.3-0.2,2.5-1,3.6l-10.8,14C308.9,172.2,307.5,172.9,306.1,172.9z
				 M273.8,137.1l31.4,24.3l4.9-6.4l-31.4-24.2L273.8,137.1z"/>
		</g>
		<g>
			<path class="st1" d="M231.7,255.8c-1.1,0-2.1-0.3-2.9-1l-26-20.1c-1.5-1.2-2.2-3.1-1.7-4.9l4.3-19c0.4-1.6,1.5-2.9,3.1-3.5
				c1.5-0.6,3.3-0.3,4.6,0.7l39,30.1c1.3,1,2,2.6,1.9,4.2c-0.2,1.7-1.1,3.1-2.6,3.8l-17.3,9C233.2,255.6,232.4,255.8,231.7,255.8z
				 M211,228.9l21.2,16.3l7.9-4.1L213,220.3L211,228.9z"/>
		</g>
		<path class="st1" d="M236.8,200c-1,0-2.1-0.3-3-1c-2.1-1.7-2.4-4.7-0.8-6.8l26.2-32.8c1.7-2.1,4.7-2.4,6.8-0.7
			c2.1,1.7,2.4,4.7,0.8,6.7l-26.2,32.8C239.7,199.3,238.2,200,236.8,200z"/>
	</g>
</g>
</svg>
